IbarraRealNova-Italic.ufo
<glyph name="exclam" format="2">
  <advance width="222"/>
  <unicode hex="0021"/>
  <outline>
    <contour>
      <point x="95" y="199" type="line"/>
      <point x="122" y="199" type="line"/>
      <point x="339" y="658" type="line"/>
      <point x="249" y="658" type="line"/>
    </contour>
    <contour>
      <point x="44" y="-7" type="curve" smooth="yes"/>
      <point x="76" y="-7"/>
      <point x="102" y="19"/>
      <point x="102" y="49" type="curve" smooth="yes"/>
      <point x="102" y="81"/>
      <point x="76" y="107"/>
      <point x="44" y="107" type="curve" smooth="yes"/>
      <point x="14" y="107"/>
      <point x="-12" y="81"/>
      <point x="-12" y="49" type="curve" smooth="yes"/>
      <point x="-12" y="19"/>
      <point x="14" y="-7"/>
    </contour>
  </outline>
</glyph>
<glyph name="numbersign" format="2">
  <advance width="490"/>
  <unicode hex="0023"/>
  <outline>
    <contour>
      <point x="-9" y="-26" type="line"/>
      <point x="34" y="-26" type="line"/>
      <point x="150" y="180" type="line"/>
      <point x="269" y="180" type="line"/>
      <point x="154" y="-26" type="line"/>
      <point x="198" y="-26" type="line"/>
      <point x="311" y="180" type="line"/>
      <point x="407" y="180" type="line"/>
      <point x="431" y="222" type="line"/>
      <point x="336" y="222" type="line"/>
      <point x="441" y="410" type="line"/>
      <point x="534" y="410" type="line"/>
      <point x="557" y="452" type="line"/>
      <point x="466" y="452" type="line"/>
      <point x="587" y="674" type="line"/>
      <point x="540" y="674" type="line"/>
      <point x="422" y="452" type="line"/>
      <point x="301" y="452" type="line"/>
      <point x="423" y="674" type="line"/>
      <point x="378" y="674" type="line"/>
      <point x="256" y="452" type="line"/>
      <point x="167" y="452" type="line"/>
      <point x="144" y="410" type="line"/>
      <point x="231" y="410" type="line"/>
      <point x="130" y="222" type="line"/>
      <point x="41" y="222" type="line"/>
      <point x="17" y="180" type="line"/>
      <point x="105" y="180" type="line"/>
    </contour>
    <contour>
      <point x="173" y="221" type="line"/>
      <point x="275" y="410" type="line"/>
      <point x="397" y="410" type="line"/>
      <point x="291" y="221" type="line"/>
    </contour>
  </outline>
</glyph>
<glyph name="dollar" format="2">
  <advance width="587"/>
  <unicode hex="0024"/>
  <outline>
    <contour>
      <point x="162" y="-89" type="line"/>
      <point x="193" y="-89" type="line"/>
      <point x="509" y="766" type="line"/>
      <point x="478" y="766" type="line"/>
    </contour>
    <component base="S"/>
  </outline>
</glyph>
<glyph name="percent" format="2">
  <advance width="650"/>
  <unicode hex="0025"/>
  <outline>
    <contour>
      <point x="222" y="345" type="curve" smooth="yes"/>
      <point x="308" y="345"/>
      <point x="363" y="410"/>
      <point x="401" y="515" type="curve" smooth="yes"/>
      <point x="409" y="538"/>
      <point x="416" y="569"/>
      <point x="416" y="598" type="curve" smooth="yes"/>
      <point x="416" y="642"/>
      <point x="388" y="682"/>
      <point x="332" y="682" type="curve" smooth="yes"/>
      <point x="255" y="682"/>
      <point x="189" y="632"/>
      <point x="147" y="515" type="curve" smooth="yes"/>
      <point x="138" y="492"/>
      <point x="132" y="461"/>
      <point x="132" y="432" type="curve" smooth="yes"/>
      <point x="132" y="387"/>
      <point x="166" y="345"/>
    </contour>
    <contour>
      <point x="425" y="-8" type="curve" smooth="yes"/>
      <point x="511" y="-8"/>
      <point x="566" y="57"/>
      <point x="604" y="162" type="curve" smooth="yes"/>
      <point x="612" y="185"/>
      <point x="619" y="216"/>
      <point x="619" y="245" type="curve" smooth="yes"/>
      <point x="619" y="289"/>
      <point x="591" y="329"/>
      <point x="535" y="329" type="curve" smooth="yes"/>
      <point x="458" y="329"/>
      <point x="392" y="279"/>
      <point x="350" y="162" type="curve" smooth="yes"/>
      <point x="341" y="139"/>
      <point x="335" y="108"/>
      <point x="335" y="79" type="curve" smooth="yes"/>
      <point x="335" y="34"/>
      <point x="369" y="-8"/>
    </contour>
    <contour>
      <point x="430" y="15" type="curve" smooth="yes"/>
      <point x="402" y="15"/>
      <point x="385" y="31"/>
      <point x="385" y="58" type="curve" smooth="yes"/>
      <point x="385" y="85"/>
      <point x="395" y="122"/>
      <point x="409" y="162" type="curve" smooth="yes"/>
      <point x="436" y="242"/>
      <point x="472" y="306"/>
      <point x="527" y="306" type="curve" smooth="yes"/>
      <point x="555" y="306"/>
      <point x="567" y="289"/>
      <point x="567" y="263" type="curve" smooth="yes"/>
      <point x="567" y="237"/>
      <point x="557" y="202"/>
      <point x="544" y="162" type="curve" smooth="yes"/>
      <point x="517" y="82"/>
      <point x="485" y="15"/>
    </contour>
    <contour>
      <point x="227" y="368" type="curve" smooth="yes"/>
      <point x="199" y="368"/>
      <point x="182" y="384"/>
      <point x="182" y="411" type="curve" smooth="yes"/>
      <point x="182" y="438"/>
      <point x="192" y="475"/>
      <point x="206" y="515" type="curve" smooth="yes"/>
      <point x="233" y="595"/>
      <point x="269" y="659"/>
      <point x="324" y="659" type="curve" smooth="yes"/>
      <point x="352" y="659"/>
      <point x="364" y="642"/>
      <point x="364" y="616" type="curve" smooth="yes"/>
      <point x="364" y="590"/>
      <point x="354" y="555"/>
      <point x="341" y="515" type="curve" smooth="yes"/>
      <point x="314" y="435"/>
      <point x="282" y="368"/>
    </contour>
    <component base="fraction" xOffset="125"/>
  </outline>
</glyph>
<glyph name="ampersand" format="2">
  <advance width="819"/>
  <unicode hex="0026"/>
  <guideline x="172" y="494" angle="90"/>
  <outline>
    <contour>
      <point x="243" y="-8" type="curve" smooth="yes"/>
      <point x="413" y="-8"/>
      <point x="642" y="137"/>
      <point x="661" y="348" type="curve" smooth="yes"/>
      <point x="665" y="397"/>
      <point x="640" y="427"/>
      <point x="584" y="427" type="curve" smooth="yes"/>
      <point x="512" y="427"/>
      <point x="403" y="357"/>
      <point x="394" y="249" type="curve" smooth="yes"/>
      <point x="391" y="220"/>
      <point x="404" y="198"/>
      <point x="441" y="198" type="curve" smooth="yes"/>
      <point x="481" y="198"/>
      <point x="540" y="212"/>
      <point x="599" y="225" type="curve" smooth="yes"/>
      <point x="652" y="237"/>
      <point x="703" y="248"/>
      <point x="738" y="248" type="curve" smooth="yes"/>
      <point x="758" y="248"/>
      <point x="762" y="238"/>
      <point x="760" y="213" type="curve" smooth="yes"/>
      <point x="759" y="207"/>
      <point x="758" y="200"/>
      <point x="757" y="192" type="curve"/>
      <point x="749" y="135" type="line"/>
      <point x="768" y="137" type="line"/>
      <point x="768" y="137"/>
      <point x="809" y="316"/>
      <point x="809" y="316" type="curve"/>
      <point x="801" y="319" type="line"/>
      <point x="759" y="319"/>
      <point x="709" y="308"/>
      <point x="655" y="296" type="curve" smooth="yes"/>
      <point x="600" y="284"/>
      <point x="540" y="271"/>
      <point x="482" y="271" type="curve" smooth="yes"/>
      <point x="458" y="271"/>
      <point x="448" y="282"/>
      <point x="448" y="298" type="curve" smooth="yes"/>
      <point x="448" y="339"/>
      <point x="493" y="389"/>
      <point x="550" y="389" type="curve" smooth="yes"/>
      <point x="585" y="389"/>
      <point x="597" y="363"/>
      <point x="594" y="328" type="curve" smooth="yes"/>
      <point x="581" y="170"/>
      <point x="454" y="35"/>
      <point x="283" y="35" type="curve" smooth="yes"/>
      <point x="206" y="35"/>
      <point x="142" y="88"/>
      <point x="142" y="205" type="curve" smooth="yes"/>
      <point x="142" y="334"/>
      <point x="217" y="541"/>
      <point x="325" y="541" type="curve" smooth="yes"/>
      <point x="352" y="541"/>
      <point x="364" y="525"/>
      <point x="364" y="502" type="curve" smooth="yes"/>
      <point x="364" y="449"/>
      <point x="299" y="354"/>
      <point x="213" y="319" type="curve"/>
      <point x="213" y="319"/>
      <point x="257" y="333"/>
      <point x="257" y="333" type="curve"/>
      <point x="325" y="364"/>
      <point x="429" y="450"/>
      <point x="429" y="540" type="curve" smooth="yes"/>
      <point x="429" y="582"/>
      <point x="401" y="598"/>
      <point x="370" y="598" type="curve" smooth="yes"/>
      <point x="301" y="598"/>
      <point x="229" y="540"/>
      <point x="172" y="462" type="curve" smooth="yes"/>
      <point x="106" y="372"/>
      <point x="59" y="254"/>
      <point x="59" y="168" type="curve" smooth="yes"/>
      <point x="59" y="45"/>
      <point x="140" y="-8"/>
    </contour>
    <contour>
      <point x="141" y="259" type="line"/>
      <point x="385" y="349"/>
      <point x="556" y="541"/>
      <point x="592" y="629" type="curve" smooth="yes"/>
      <point x="602" y="651"/>
      <point x="605" y="671"/>
      <point x="605" y="687" type="curve" smooth="yes"/>
      <point x="605" y="718"/>
      <point x="587" y="740"/>
      <point x="559" y="740" type="curve" smooth="yes"/>
      <point x="529" y="740"/>
      <point x="501" y="713"/>
      <point x="501" y="681" type="curve" smooth="yes"/>
      <point x="501" y="668"/>
      <point x="507" y="657"/>
      <point x="514" y="645" type="curve" smooth="yes"/>
      <point x="521" y="633"/>
      <point x="526" y="622"/>
      <point x="524" y="602" type="curve" smooth="yes"/>
      <point x="523" y="595"/>
      <point x="520" y="586"/>
      <point x="517" y="576" type="curve" smooth="yes"/>
      <point x="487" y="504"/>
      <point x="337" y="346"/>
      <point x="146" y="298" type="curve"/>
    </contour>
  </outline>
</glyph>
<glyph name="quotesingle" format="2">
  <advance width="265"/>
  <unicode hex="0027"/>
  <outline>
    <contour>
      <point x="384" y="710" type="line"/>
      <point x="283" y="710" type="line"/>
      <point x="216" y="454" type="line"/>
      <point x="243" y="454" type="line"/>
    </contour>
  </outline>
</glyph>
<glyph name="parenright" format="2">
  <advance width="331"/>
  <unicode hex="0029"/>
  <outline>
    <contour>
      <point x="274" y="746" type="curve"/>
      <point x="250" y="733" type="line"/>
      <point x="273" y="655"/>
      <point x="289" y="580"/>
      <point x="289" y="507" type="curve" smooth="yes"/>
      <point x="289" y="220"/>
      <point x="117" y="-23"/>
      <point x="-99" y="-220" type="curve"/>
      <point x="-78" y="-238" type="line"/>
      <point x="156" y="-49"/>
      <point x="347" y="199"/>
      <point x="347" y="464" type="curve" smooth="yes"/>
      <point x="347" y="556"/>
      <point x="328" y="651"/>
    </contour>
  </outline>
</glyph>
<glyph name="asterisk" format="2">
  <advance width="436"/>
  <unicode hex="002A"/>
  <outline>
    <contour>
      <point x="459" y="371" type="curve" smooth="yes"/>
      <point x="469" y="379"/>
      <point x="485" y="403"/>
      <point x="469" y="424" type="curve" smooth="yes"/>
      <point x="457" y="438"/>
      <point x="439" y="450"/>
      <point x="419" y="462" type="curve" smooth="yes"/>
      <point x="398" y="477"/>
      <point x="374" y="493"/>
      <point x="352" y="520" type="curve" smooth="yes"/>
      <point x="344" y="531" type="line" smooth="yes"/>
      <point x="323" y="558"/>
      <point x="314" y="584"/>
      <point x="304" y="610" type="curve" smooth="yes"/>
      <point x="296" y="632"/>
      <point x="289" y="652"/>
      <point x="278" y="668" type="curve" smooth="yes"/>
      <point x="262" y="688"/>
      <point x="235" y="679"/>
      <point x="226" y="671" type="curve" smooth="yes"/>
      <point x="216" y="663"/>
      <point x="200" y="639"/>
      <point x="216" y="618" type="curve" smooth="yes"/>
      <point x="228" y="604"/>
      <point x="246" y="592"/>
      <point x="266" y="580" type="curve" smooth="yes"/>
      <point x="287" y="565"/>
      <point x="311" y="549"/>
      <point x="333" y="522" type="curve" smooth="yes"/>
      <point x="341" y="511" type="line" smooth="yes"/>
      <point x="362" y="484"/>
      <point x="371" y="458"/>
      <point x="381" y="432" type="curve" smooth="yes"/>
      <point x="389" y="410"/>
      <point x="396" y="390"/>
      <point x="407" y="374" type="curve" smooth="yes"/>
      <point x="423" y="354"/>
      <point x="450" y="363"/>
    </contour>
    <contour>
      <point x="272" y="345" type="curve" smooth="yes"/>
      <point x="283" y="340"/>
      <point x="311" y="338"/>
      <point x="321" y="362" type="curve" smooth="yes"/>
      <point x="328" y="380"/>
      <point x="329" y="401"/>
      <point x="330" y="425" type="curve" smooth="yes"/>
      <point x="332" y="452"/>
      <point x="334" y="480"/>
      <point x="347" y="512" type="curve" smooth="yes"/>
      <point x="352" y="525" type="line" smooth="yes"/>
      <point x="365" y="556"/>
      <point x="383" y="578"/>
      <point x="400" y="599" type="curve" smooth="yes"/>
      <point x="416" y="616"/>
      <point x="430" y="632"/>
      <point x="437" y="650" type="curve" smooth="yes"/>
      <point x="447" y="674"/>
      <point x="425" y="692"/>
      <point x="413" y="697" type="curve" smooth="yes"/>
      <point x="402" y="702"/>
      <point x="374" y="704"/>
      <point x="364" y="680" type="curve" smooth="yes"/>
      <point x="357" y="662"/>
      <point x="356" y="641"/>
      <point x="355" y="617" type="curve" smooth="yes"/>
      <point x="353" y="590"/>
      <point x="351" y="562"/>
      <point x="338" y="530" type="curve" smooth="yes"/>
      <point x="333" y="517" type="line" smooth="yes"/>
      <point x="320" y="486"/>
      <point x="302" y="464"/>
      <point x="285" y="443" type="curve" smooth="yes"/>
      <point x="269" y="426"/>
      <point x="255" y="410"/>
      <point x="248" y="392" type="curve" smooth="yes"/>
      <point x="238" y="368"/>
      <point x="260" y="350"/>
    </contour>
    <contour>
      <point x="196" y="461" type="curve" smooth="yes"/>
      <point x="213" y="463"/>
      <point x="232" y="473"/>
      <point x="253" y="484" type="curve" smooth="yes"/>
      <point x="277" y="496"/>
      <point x="303" y="508"/>
      <point x="336" y="513" type="curve" smooth="yes"/>
      <point x="350" y="515" type="line" smooth="yes"/>
      <point x="384" y="519"/>
      <point x="412" y="515"/>
      <point x="439" y="510" type="curve" smooth="yes"/>
      <point x="462" y="505"/>
      <point x="483" y="501"/>
      <point x="502" y="503" type="curve" smooth="yes"/>
      <point x="528" y="507"/>
      <point x="533" y="535"/>
      <point x="531" y="547" type="curve" smooth="yes"/>
      <point x="528" y="560"/>
      <point x="516" y="586"/>
      <point x="489" y="581" type="curve" smooth="yes"/>
      <point x="472" y="579"/>
      <point x="453" y="569"/>
      <point x="432" y="558" type="curve" smooth="yes"/>
      <point x="408" y="546"/>
      <point x="382" y="534"/>
      <point x="349" y="529" type="curve" smooth="yes"/>
      <point x="335" y="527" type="line" smooth="yes"/>
      <point x="301" y="523"/>
      <point x="273" y="527"/>
      <point x="246" y="532" type="curve" smooth="yes"/>
      <point x="223" y="537"/>
      <point x="202" y="541"/>
      <point x="183" y="539" type="curve" smooth="yes"/>
      <point x="157" y="535"/>
      <point x="152" y="507"/>
      <point x="154" y="495" type="curve" smooth="yes"/>
      <point x="157" y="482"/>
      <point x="169" y="456"/>
    </contour>
  </outline>
</glyph>
<glyph name="plus" format="2">
  <advance width="530"/>
  <unicode hex="002B"/>
  <outline>
    <contour>
      <point x="295" y="316" type="line"/>
      <point x="295" y="148" type="line"/>
      <point x="333" y="148" type="line"/>
      <point x="333" y="316" type="line"/>
      <point x="506" y="316" type="line"/>
      <point x="506" y="354" type="line"/>
      <point x="333" y="354" type="line"/>
      <point x="333" y="521" type="line"/>
      <point x="295" y="521" type="line"/>
      <point x="295" y="354" type="line"/>
      <point x="122" y="354" type="line"/>
      <point x="122" y="316" type="line"/>
    </contour>
  </outline>
</glyph>
<glyph name="comma" format="2">
  <advance width="265"/>
  <unicode hex="002C"/>
  <outline>
    <contour>
      <point x="-107" y="-150" type="line"/>
      <point x="14" y="-140"/>
      <point x="134" y="-41"/>
      <point x="134" y="68" type="curve" smooth="yes"/>
      <point x="134" y="105"/>
      <point x="114" y="132"/>
      <point x="83" y="149" type="curve"/>
      <point x="60" y="122"/>
      <point x="45" y="108"/>
      <point x="9" y="94" type="curve"/>
      <point x="-3" y="62" type="line"/>
      <point x="36" y="56"/>
      <point x="57" y="31"/>
      <point x="57" y="4" type="curve" smooth="yes"/>
      <point x="57" y="-65"/>
      <point x="-35" y="-118"/>
      <point x="-98" y="-130" type="curve"/>
    </contour>
  </outline>
</glyph>
<glyph name="period" format="2">
  <advance width="265"/>
  <unicode hex="002E"/>
  <outline>
    <contour>
      <point x="68" y="-6" type="curve" smooth="yes"/>
      <point x="104" y="-6"/>
      <point x="133" y="23"/>
      <point x="133" y="57" type="curve" smooth="yes"/>
      <point x="133" y="93"/>
      <point x="104" y="122"/>
      <point x="68" y="122" type="curve" smooth="yes"/>
      <point x="34" y="122"/>
      <point x="5" y="93"/>
      <point x="5" y="57" type="curve" smooth="yes"/>
      <point x="5" y="23"/>
      <point x="34" y="-6"/>
    </contour>
  </outline>
</glyph>
<glyph name="slash" format="2">
  <advance width="447"/>
  <unicode hex="002F"/>
  <outline>
    <contour>
      <point x="-69" y="-7" type="line"/>
      <point x="-23" y="-7" type="line"/>
      <point x="629" y="711" type="line"/>
      <point x="583" y="711" type="line"/>
    </contour>
  </outline>
</glyph>
<glyph name="zero" format="2">
  <advance width="584"/>
  <unicode hex="0030"/>
  <outline>
    <contour>
      <point x="233" y="-8" type="curve" smooth="yes"/>
      <point x="410" y="-8"/>
      <point x="497" y="127"/>
      <point x="575" y="342" type="curve" smooth="yes"/>
      <point x="591" y="388"/>
      <point x="606" y="451"/>
      <point x="606" y="511" type="curve" smooth="yes"/>
      <point x="606" y="601"/>
      <point x="572" y="683"/>
      <point x="458" y="683" type="curve" smooth="yes"/>
      <point x="301" y="683"/>
      <point x="198" y="580"/>
      <point x="113" y="342" type="curve" smooth="yes"/>
      <point x="95" y="295"/>
      <point x="82" y="230"/>
      <point x="82" y="170" type="curve" smooth="yes"/>
      <point x="82" y="77"/>
      <point x="119" y="-8"/>
    </contour>
    <contour>
      <point x="235" y="15" type="curve" smooth="yes"/>
      <point x="175" y="15"/>
      <point x="152" y="52"/>
      <point x="152" y="110" type="curve" smooth="yes"/>
      <point x="152" y="170"/>
      <point x="174" y="253"/>
      <point x="205" y="342" type="curve" smooth="yes"/>
      <point x="263" y="517"/>
      <point x="329" y="659"/>
      <point x="450" y="659" type="curve" smooth="yes"/>
      <point x="511" y="659"/>
      <point x="533" y="622"/>
      <point x="533" y="564" type="curve" smooth="yes"/>
      <point x="533" y="507"/>
      <point x="512" y="429"/>
      <point x="483" y="342" type="curve" smooth="yes"/>
      <point x="424" y="166"/>
      <point x="357" y="15"/>
    </contour>
  </outline>
</glyph>
<glyph name="two" format="2">
  <advance width="527"/>
  <unicode hex="0032"/>
  <outline>
    <contour>
      <point x="-35" y="0" type="line"/>
      <point x="353" y="0" type="line"/>
      <point x="450" y="170" type="line"/>
      <point x="432" y="170" type="line"/>
      <point x="407" y="136" type="line" smooth="yes"/>
      <point x="371" y="88"/>
      <point x="361" y="80"/>
      <point x="324" y="80" type="curve" smooth="yes"/>
      <point x="111" y="80" type="line"/>
      <point x="326" y="246" type="line" smooth="yes"/>
      <point x="459" y="349"/>
      <point x="571" y="447"/>
      <point x="571" y="558" type="curve" smooth="yes"/>
      <point x="571" y="632"/>
      <point x="517" y="681"/>
      <point x="406" y="681" type="curve" smooth="yes"/>
      <point x="296" y="681"/>
      <point x="179" y="631"/>
      <point x="179" y="534" type="curve" smooth="yes"/>
      <point x="179" y="502"/>
      <point x="200" y="492"/>
      <point x="221" y="492" type="curve" smooth="yes"/>
      <point x="248" y="492"/>
      <point x="274" y="508"/>
      <point x="274" y="534" type="curve" smooth="yes"/>
      <point x="274" y="557"/>
      <point x="258" y="565"/>
      <point x="258" y="588" type="curve" smooth="yes"/>
      <point x="258" y="621"/>
      <point x="318" y="649"/>
      <point x="379" y="649" type="curve" smooth="yes"/>
      <point x="453" y="649"/>
      <point x="475" y="613"/>
      <point x="475" y="560" type="curve" smooth="yes"/>
      <point x="475" y="445"/>
      <point x="400" y="344"/>
      <point x="237" y="218" type="curve" smooth="yes"/>
      <point x="-30" y="12" type="line"/>
    </contour>
  </outline>
</glyph>
<glyph name="five" format="2">
  <advance width="496"/>
  <unicode hex="0035"/>
  <outline>
    <contour>
      <point x="115" y="-10" type="curve" smooth="yes"/>
      <point x="317" y="-10"/>
      <point x="453" y="138"/>
      <point x="453" y="272" type="curve" smooth="yes"/>
      <point x="453" y="352"/>
      <point x="396" y="419"/>
      <point x="263" y="419" type="curve" smooth="yes"/>
      <point x="247" y="419"/>
      <point x="229" y="417"/>
      <point x="213" y="414" type="curve"/>
      <point x="299" y="581" type="line"/>
      <point x="539" y="581" type="line"/>
      <point x="608" y="699" type="line"/>
      <point x="592" y="699" type="line"/>
      <point x="588" y="694" type="line" smooth="yes"/>
      <point x="571" y="672"/>
      <point x="557" y="661"/>
      <point x="532" y="661" type="curve" smooth="yes"/>
      <point x="308" y="661" type="line"/>
      <point x="147" y="351" type="line"/>
      <point x="150" y="348" type="line"/>
      <point x="171" y="351"/>
      <point x="191" y="352"/>
      <point x="210" y="352" type="curve" smooth="yes"/>
      <point x="308" y="352"/>
      <point x="349" y="315"/>
      <point x="349" y="241" type="curve" smooth="yes"/>
      <point x="349" y="124"/>
      <point x="250" y="24"/>
      <point x="111" y="24" type="curve" smooth="yes"/>
      <point x="69" y="24"/>
      <point x="34" y="40"/>
      <point x="34" y="63" type="curve" smooth="yes"/>
      <point x="34" y="79"/>
      <point x="65" y="90"/>
      <point x="65" y="126" type="curve" smooth="yes"/>
      <point x="65" y="141"/>
      <point x="55" y="165"/>
      <point x="20" y="165" type="curve" smooth="yes"/>
      <point x="-11" y="165"/>
      <point x="-28" y="132"/>
      <point x="-28" y="103" type="curve" smooth="yes"/>
      <point x="-28" y="33"/>
      <point x="25" y="-10"/>
    </contour>
  </outline>
</glyph>
<glyph name="six" format="2">
  <advance width="508"/>
  <unicode hex="0036"/>
  <outline>
    <contour>
      <point x="180" y="-9" type="curve" smooth="yes"/>
      <point x="362" y="-9"/>
      <point x="483" y="155"/>
      <point x="483" y="287" type="curve" smooth="yes"/>
      <point x="483" y="358"/>
      <point x="445" y="410"/>
      <point x="358" y="410" type="curve" smooth="yes"/>
      <point x="276" y="410"/>
      <point x="168" y="366"/>
      <point x="159" y="297" type="curve" smooth="yes"/>
      <point x="152" y="240" type="line"/>
      <point x="175" y="307"/>
      <point x="264" y="378"/>
      <point x="328" y="378" type="curve" smooth="yes"/>
      <point x="363" y="378"/>
      <point x="397" y="354"/>
      <point x="397" y="297" type="curve" smooth="yes"/>
      <point x="397" y="179"/>
      <point x="298" y="13"/>
      <point x="180" y="13" type="curve" smooth="yes"/>
      <point x="143" y="13"/>
      <point x="117" y="44"/>
      <point x="117" y="99" type="curve" smooth="yes"/>
      <point x="117" y="138"/>
      <point x="130" y="185"/>
      <point x="158" y="255" type="curve" smooth="yes"/>
      <point x="245" y="470"/>
      <point x="375" y="623"/>
      <point x="588" y="673" type="curve"/>
      <point x="592" y="683" type="line"/>
      <point x="382" y="683"/>
      <point x="171" y="513"/>
      <point x="73" y="269" type="curve" smooth="yes"/>
      <point x="53" y="218"/>
      <point x="36" y="166"/>
      <point x="36" y="120" type="curve" smooth="yes"/>
      <point x="36" y="47"/>
      <point x="73" y="-9"/>
    </contour>
  </outline>
</glyph>
<glyph name="seven" format="2">
  <advance width="470"/>
  <unicode hex="0037"/>
  <outline>
    <contour>
      <point x="23" y="0" type="line"/>
      <point x="124" y="0" type="line"/>
      <point x="602" y="615" type="line"/>
      <point x="626" y="674" type="line"/>
      <point x="233" y="674" type="line"/>
      <point x="152" y="527" type="line"/>
      <point x="168" y="527" type="line"/>
      <point x="202" y="569" type="line" smooth="yes"/>
      <point x="216" y="586"/>
      <point x="232" y="594"/>
      <point x="245" y="594" type="curve" smooth="yes"/>
      <point x="544" y="594" type="line"/>
    </contour>
  </outline>
</glyph>
<glyph name="eight" format="2">
  <advance width="559"/>
  <unicode hex="0038"/>
  <outline>
    <contour>
      <point x="199" y="-12" type="curve" smooth="yes"/>
      <point x="343" y="-12"/>
      <point x="490" y="73"/>
      <point x="490" y="216" type="curve" smooth="yes"/>
      <point x="490" y="296"/>
      <point x="430" y="338"/>
      <point x="381" y="379" type="curve" smooth="yes"/>
      <point x="334" y="418"/>
      <point x="294" y="445"/>
      <point x="294" y="504" type="curve" smooth="yes"/>
      <point x="294" y="584"/>
      <point x="375" y="651"/>
      <point x="449" y="651" type="curve" smooth="yes"/>
      <point x="496" y="651"/>
      <point x="527" y="624"/>
      <point x="527" y="579" type="curve" smooth="yes"/>
      <point x="527" y="492"/>
      <point x="437" y="424"/>
      <point x="367" y="390" type="curve"/>
      <point x="389" y="370" type="line"/>
      <point x="486" y="401"/>
      <point x="609" y="463"/>
      <point x="609" y="572" type="curve" smooth="yes"/>
      <point x="609" y="640"/>
      <point x="551" y="681"/>
      <point x="477" y="681" type="curve" smooth="yes"/>
      <point x="339" y="681"/>
      <point x="211" y="592"/>
      <point x="211" y="469" type="curve" smooth="yes"/>
      <point x="211" y="407"/>
      <point x="268" y="360"/>
      <point x="315" y="323" type="curve" smooth="yes"/>
      <point x="359" y="288"/>
      <point x="397" y="254"/>
      <point x="397" y="199" type="curve" smooth="yes"/>
      <point x="397" y="90"/>
      <point x="300" y="22"/>
      <point x="220" y="22" type="curve" smooth="yes"/>
      <point x="161" y="22"/>
      <point x="121" y="56"/>
      <point x="121" y="122" type="curve" smooth="yes"/>
      <point x="121" y="232"/>
      <point x="215" y="302"/>
      <point x="307" y="338" type="curve"/>
      <point x="287" y="359" type="line"/>
      <point x="177" y="327"/>
      <point x="30" y="242"/>
      <point x="30" y="123" type="curve" smooth="yes"/>
      <point x="30" y="32"/>
      <point x="109" y="-12"/>
    </contour>
  </outline>
</glyph>
<glyph name="less" format="2">
  <advance width="530"/>
  <unicode hex="003C"/>
  <outline>
    <contour>
      <point x="90" y="315" type="line"/>
      <point x="465" y="137" type="line"/>
      <point x="465" y="183" type="line"/>
      <point x="131" y="334" type="line"/>
      <point x="465" y="484" type="line"/>
      <point x="465" y="529" type="line"/>
      <point x="91" y="353" type="line"/>
    </contour>
  </outline>
</glyph>
<glyph name="greater" format="2">
  <advance width="530"/>
  <unicode hex="003E"/>
  <outline>
    <contour>
      <point x="536" y="315" type="line"/>
      <point x="535" y="353" type="line"/>
      <point x="161" y="529" type="line"/>
      <point x="161" y="484" type="line"/>
      <point x="495" y="334" type="line"/>
      <point x="161" y="183" type="line"/>
      <point x="161" y="137" type="line"/>
    </contour>
  </outline>
</glyph>
<glyph name="question" format="2">
  <advance width="364"/>
  <unicode hex="003F"/>
  <outline>
    <contour>
      <point x="82" y="199" type="curve"/>
      <point x="109" y="199" type="line"/>
      <point x="129" y="248"/>
      <point x="153" y="274"/>
      <point x="228" y="284" type="curve" smooth="yes"/>
      <point x="327" y="297"/>
      <point x="375" y="353"/>
      <point x="412" y="444" type="curve" smooth="yes"/>
      <point x="425" y="477"/>
      <point x="432" y="503"/>
      <point x="432" y="524" type="curve" smooth="yes"/>
      <point x="432" y="561"/>
      <point x="411" y="581"/>
      <point x="368" y="589" type="curve" smooth="yes"/>
      <point x="279" y="606" type="line" smooth="yes"/>
      <point x="260" y="610"/>
      <point x="254" y="621"/>
      <point x="260" y="647" type="curve"/>
      <point x="267" y="673" type="line"/>
      <point x="249" y="673" type="line"/>
      <point x="200" y="550" type="line"/>
      <point x="355" y="518" type="line" smooth="yes"/>
      <point x="380" y="513"/>
      <point x="392" y="501"/>
      <point x="392" y="481" type="curve" smooth="yes"/>
      <point x="392" y="471"/>
      <point x="389" y="459"/>
      <point x="383" y="443" type="curve" smooth="yes"/>
      <point x="364" y="396"/>
      <point x="346" y="379"/>
      <point x="268" y="366" type="curve" smooth="yes"/>
      <point x="168" y="350"/>
      <point x="131" y="320"/>
    </contour>
    <contour>
      <point x="40" y="-6" type="curve" smooth="yes"/>
      <point x="72" y="-6"/>
      <point x="98" y="20"/>
      <point x="98" y="50" type="curve" smooth="yes"/>
      <point x="98" y="82"/>
      <point x="72" y="108"/>
      <point x="40" y="108" type="curve" smooth="yes"/>
      <point x="10" y="108"/>
      <point x="-16" y="82"/>
      <point x="-16" y="50" type="curve" smooth="yes"/>
      <point x="-16" y="20"/>
      <point x="10" y="-6"/>
    </contour>
  </outline>
</glyph>
<glyph name="at" format="2">
  <advance width="963"/>
  <unicode hex="0040"/>
  <outline>
    <contour>
      <point x="338" y="-180" type="curve" smooth="yes"/>
      <point x="460" y="-180"/>
      <point x="599" y="-141"/>
      <point x="729" y="-62" type="curve"/>
      <point x="722" y="-41" type="line"/>
      <point x="598" y="-107"/>
      <point x="466" y="-144"/>
      <point x="354" y="-144" type="curve" smooth="yes"/>
      <point x="198" y="-144"/>
      <point x="80" y="-74"/>
      <point x="80" y="81" type="curve" smooth="yes"/>
      <point x="80" y="437"/>
      <point x="430" y="674"/>
      <point x="691" y="674" type="curve" smooth="yes"/>
      <point x="836" y="674"/>
      <point x="932" y="610"/>
      <point x="932" y="455" type="curve" smooth="yes"/>
      <point x="932" y="272"/>
      <point x="762" y="67"/>
      <point x="647" y="67" type="curve" smooth="yes"/>
      <point x="586" y="67"/>
      <point x="577" y="87"/>
      <point x="608" y="168" type="curve"/>
      <point x="552" y="161" type="line"/>
      <point x="544" y="139" type="line" smooth="yes"/>
      <point x="519" y="71"/>
      <point x="545" y="30"/>
      <point x="611" y="30" type="curve" smooth="yes"/>
      <point x="807" y="30"/>
      <point x="1003" y="272"/>
      <point x="1003" y="454" type="curve" smooth="yes"/>
      <point x="1003" y="630"/>
      <point x="871" y="707"/>
      <point x="705" y="707" type="curve" smooth="yes"/>
      <point x="569" y="707"/>
      <point x="411" y="649"/>
      <point x="282" y="547" type="curve" smooth="yes"/>
      <point x="136" y="432"/>
      <point x="18" y="274"/>
      <point x="18" y="84" type="curve" smooth="yes"/>
      <point x="18" y="-92"/>
      <point x="156" y="-180"/>
    </contour>
    <contour>
      <point x="405" y="83" type="curve" smooth="yes"/>
      <point x="380" y="83"/>
      <point x="365" y="99"/>
      <point x="365" y="136" type="curve" smooth="yes"/>
      <point x="365" y="209"/>
      <point x="400" y="284"/>
      <point x="452" y="339" type="curve" smooth="yes"/>
      <point x="494" y="384"/>
      <point x="538" y="408"/>
      <point x="571" y="408" type="curve" smooth="yes"/>
      <point x="602" y="408"/>
      <point x="614" y="391"/>
      <point x="614" y="361" type="curve" smooth="yes"/>
      <point x="614" y="272"/>
      <point x="487" y="83"/>
    </contour>
    <contour>
      <point x="352" y="31" type="curve" smooth="yes"/>
      <point x="419" y="31"/>
      <point x="499" y="94"/>
      <point x="545" y="155" type="curve"/>
      <point x="550" y="155" type="line"/>
      <point x="590" y="119" type="line"/>
      <point x="730" y="467" type="line"/>
      <point x="721" y="467" type="line"/>
      <point x="666" y="427" type="line"/>
      <point x="663" y="427" type="line"/>
      <point x="653" y="446"/>
      <point x="637" y="457"/>
      <point x="610" y="457" type="curve" smooth="yes"/>
      <point x="501" y="457"/>
      <point x="291" y="239"/>
      <point x="291" y="105" type="curve" smooth="yes"/>
      <point x="291" y="48"/>
      <point x="320" y="31"/>
    </contour>
  </outline>
</glyph>
<glyph name="B" format="2">
  <advance width="703"/>
  <unicode hex="0042"/>
  <outline>
    <contour>
      <point x="-44" y="0" type="line"/>
      <point x="263" y="0" type="line" smooth="yes"/>
      <point x="524" y="0"/>
      <point x="637" y="111"/>
      <point x="637" y="240" type="curve" smooth="yes"/>
      <point x="637" y="316"/>
      <point x="592" y="360"/>
      <point x="492" y="371" type="curve"/>
      <point x="493" y="373" type="line"/>
      <point x="616" y="389"/>
      <point x="727" y="459"/>
      <point x="727" y="568" type="curve" smooth="yes"/>
      <point x="727" y="633"/>
      <point x="670" y="673"/>
      <point x="529" y="673" type="curve" smooth="yes"/>
      <point x="226" y="673" type="line"/>
      <point x="219" y="655" type="line"/>
      <point x="276" y="644" type="line" smooth="yes"/>
      <point x="328" y="634"/>
      <point x="333" y="629"/>
      <point x="316" y="585" type="curve" smooth="yes"/>
      <point x="115" y="88" type="line" smooth="yes"/>
      <point x="98" y="46"/>
      <point x="86" y="39"/>
      <point x="28" y="29" type="curve" smooth="yes"/>
      <point x="-37" y="18" type="line"/>
    </contour>
    <contour>
      <point x="252" y="24" type="line" smooth="yes"/>
      <point x="199" y="24"/>
      <point x="184" y="42"/>
      <point x="205" y="90" type="curve" smooth="yes"/>
      <point x="313" y="357" type="line"/>
      <point x="412" y="357" type="line" smooth="yes"/>
      <point x="499" y="357"/>
      <point x="533" y="311"/>
      <point x="533" y="247" type="curve" smooth="yes"/>
      <point x="533" y="128"/>
      <point x="445" y="24"/>
      <point x="276" y="24" type="curve" smooth="yes"/>
    </contour>
    <contour>
      <point x="323" y="383" type="line"/>
      <point x="431" y="649" type="line"/>
      <point x="510" y="649" type="line" smooth="yes"/>
      <point x="601" y="649"/>
      <point x="636" y="623"/>
      <point x="636" y="570" type="curve" smooth="yes"/>
      <point x="636" y="466"/>
      <point x="535" y="383"/>
      <point x="427" y="383" type="curve" smooth="yes"/>
    </contour>
  </outline>
</glyph>
<glyph name="C" format="2">
  <advance width="767"/>
  <unicode hex="0043"/>
  <guideline x="781" y="368" angle="68"/>
  <anchor x="550" y="690" name="topcase"/>
  <outline>
    <contour>
      <point x="390" y="-8" type="curve" smooth="yes"/>
      <point x="432" y="-8"/>
      <point x="494" y="4"/>
      <point x="547" y="14" type="curve" smooth="yes"/>
      <point x="587" y="21"/>
      <point x="621" y="28"/>
      <point x="638" y="28" type="curve" smooth="yes"/>
      <point x="648" y="28"/>
      <point x="655" y="27"/>
      <point x="655" y="27" type="curve"/>
      <point x="666" y="80"/>
      <point x="690" y="143"/>
      <point x="714" y="207" type="curve"/>
      <point x="694" y="207" type="line"/>
      <point x="599" y="35"/>
      <point x="459" y="18"/>
      <point x="402" y="18" type="curve" smooth="yes"/>
      <point x="281" y="18"/>
      <point x="195" y="97"/>
      <point x="195" y="248" type="curve" smooth="yes"/>
      <point x="195" y="431"/>
      <point x="337" y="657"/>
      <point x="549" y="657" type="curve" smooth="yes"/>
      <point x="707" y="657"/>
      <point x="770" y="573"/>
      <point x="798" y="469" type="curve"/>
      <point x="818" y="469" type="line"/>
      <point x="814" y="536"/>
      <point x="822" y="589"/>
      <point x="845" y="641" type="curve"/>
      <point x="843" y="643" type="line"/>
      <point x="830" y="641"/>
      <point x="821" y="638"/>
      <point x="806" y="638" type="curve" smooth="yes"/>
      <point x="779" y="638"/>
      <point x="759" y="646"/>
      <point x="733" y="656" type="curve" smooth="yes"/>
      <point x="701" y="668"/>
      <point x="635" y="682"/>
      <point x="559" y="682" type="curve" smooth="yes"/>
      <point x="305" y="682"/>
      <point x="102" y="480"/>
      <point x="102" y="255" type="curve" smooth="yes"/>
      <point x="102" y="114"/>
      <point x="214" y="-8"/>
    </contour>
  </outline>
</glyph>
<glyph name="D" format="2">
  <advance width="805"/>
  <unicode hex="0044"/>
  <anchor x="548" y="690" name="topcase"/>
  <outline>
    <contour>
      <point x="-46" y="0" type="line"/>
      <point x="334" y="0" type="line" smooth="yes"/>
      <point x="601" y="0"/>
      <point x="812" y="195"/>
      <point x="812" y="406" type="curve" smooth="yes"/>
      <point x="812" y="581"/>
      <point x="689" y="673"/>
      <point x="519" y="673" type="curve" smooth="yes"/>
      <point x="226" y="673" type="line"/>
      <point x="219" y="655" type="line"/>
      <point x="275" y="644" type="line" smooth="yes"/>
      <point x="326" y="634"/>
      <point x="332" y="627"/>
      <point x="315" y="585" type="curve" smooth="yes"/>
      <point x="115" y="88" type="line" smooth="yes"/>
      <point x="98" y="46"/>
      <point x="86" y="39"/>
      <point x="27" y="29" type="curve" smooth="yes"/>
      <point x="-39" y="18" type="line"/>
    </contour>
    <contour>
      <point x="305" y="24" type="curve" smooth="yes"/>
      <point x="212" y="24"/>
      <point x="185" y="38"/>
      <point x="203" y="83" type="curve" smooth="yes"/>
      <point x="431" y="649" type="line"/>
      <point x="528" y="649" type="line" smooth="yes"/>
      <point x="637" y="649"/>
      <point x="722" y="578"/>
      <point x="722" y="446" type="curve" smooth="yes"/>
      <point x="722" y="179"/>
      <point x="550" y="24"/>
    </contour>
  </outline>
</glyph>
<glyph name="E" format="2">
  <advance width="685"/>
  <unicode hex="0045"/>
  <anchor x="568" y="690" name="topcase"/>
  <outline>
    <contour>
      <point x="-46" y="0" type="line"/>
      <point x="533" y="0" type="line"/>
      <point x="555" y="52"/>
      <point x="590" y="118"/>
      <point x="632" y="180" type="curve"/>
      <point x="613" y="180" type="line"/>
      <point x="566" y="129" type="line" smooth="yes"/>
      <point x="523" y="82"/>
      <point x="432" y="25"/>
      <point x="350" y="25" type="curve" smooth="yes"/>
      <point x="258" y="25" type="line" smooth="yes"/>
      <point x="194" y="25"/>
      <point x="187" y="41"/>
      <point x="206" y="90" type="curve" smooth="yes"/>
      <point x="308" y="341" type="line"/>
      <point x="467" y="341" type="line" smooth="yes"/>
      <point x="536" y="341"/>
      <point x="542" y="319"/>
      <point x="530" y="263" type="curve" smooth="yes"/>
      <point x="520" y="216" type="line"/>
      <point x="538" y="216" type="line"/>
      <point x="651" y="494" type="line"/>
      <point x="633" y="494" type="line"/>
      <point x="605" y="447" type="line" smooth="yes"/>
      <point x="571" y="391"/>
      <point x="547" y="369"/>
      <point x="478" y="369" type="curve" smooth="yes"/>
      <point x="319" y="369" type="line"/>
      <point x="432" y="649" type="line"/>
      <point x="606" y="649" type="line" smooth="yes"/>
      <point x="708" y="649"/>
      <point x="719" y="583"/>
      <point x="713" y="496" type="curve"/>
      <point x="733" y="496" type="line"/>
      <point x="741" y="524"/>
      <point x="747" y="568"/>
      <point x="766" y="617" type="curve" smooth="yes"/>
      <point x="774" y="635"/>
      <point x="783" y="654"/>
      <point x="795" y="673" type="curve"/>
      <point x="226" y="673" type="line"/>
      <point x="219" y="655" type="line"/>
      <point x="275" y="644" type="line" smooth="yes"/>
      <point x="326" y="634"/>
      <point x="332" y="627"/>
      <point x="315" y="585" type="curve" smooth="yes"/>
      <point x="115" y="88" type="line" smooth="yes"/>
      <point x="98" y="46"/>
      <point x="86" y="39"/>
      <point x="27" y="29" type="curve" smooth="yes"/>
      <point x="-39" y="18" type="line"/>
    </contour>
  </outline>
</glyph>
<glyph name="F" format="2">
  <advance width="644"/>
  <unicode hex="0046"/>
  <outline>
    <contour>
      <point x="-46" y="0" type="line"/>
      <point x="299" y="0" type="line"/>
      <point x="306" y="18" type="line"/>
      <point x="245" y="29" type="line" smooth="yes"/>
      <point x="193" y="38"/>
      <point x="188" y="46"/>
      <point x="205" y="88" type="curve" smooth="yes"/>
      <point x="299" y="321" type="line"/>
      <point x="433" y="321" type="line" smooth="yes"/>
      <point x="491" y="321"/>
      <point x="539" y="321"/>
      <point x="521" y="241" type="curve" smooth="yes"/>
      <point x="512" y="197" type="line"/>
      <point x="530" y="198" type="line"/>
      <point x="642" y="474" type="line"/>
      <point x="624" y="474" type="line"/>
      <point x="597" y="427" type="line" smooth="yes"/>
      <point x="552" y="349"/>
      <point x="506" y="349"/>
      <point x="445" y="349" type="curve" smooth="yes"/>
      <point x="311" y="349" type="line"/>
      <point x="432" y="649" type="line"/>
      <point x="619" y="649" type="line" smooth="yes"/>
      <point x="710" y="649"/>
      <point x="721" y="554"/>
      <point x="713" y="496" type="curve"/>
      <point x="733" y="496" type="line"/>
      <point x="741" y="524"/>
      <point x="747" y="568"/>
      <point x="766" y="617" type="curve" smooth="yes"/>
      <point x="774" y="635"/>
      <point x="783" y="654"/>
      <point x="795" y="673" type="curve"/>
      <point x="226" y="673" type="line"/>
      <point x="219" y="655" type="line"/>
      <point x="275" y="644" type="line" smooth="yes"/>
      <point x="326" y="634"/>
      <point x="332" y="627"/>
      <point x="315" y="585" type="curve" smooth="yes"/>
      <point x="115" y="88" type="line" smooth="yes"/>
      <point x="98" y="46"/>
      <point x="86" y="39"/>
      <point x="27" y="29" type="curve" smooth="yes"/>
      <point x="-39" y="18" type="line"/>
    </contour>
  </outline>
</glyph>
<glyph name="G" format="2">
  <advance width="842"/>
  <unicode hex="0047"/>
  <anchor x="552" y="690" name="topcase"/>
  <outline>
    <contour>
      <point x="385" y="-6" type="curve" smooth="yes"/>
      <point x="418" y="-6"/>
      <point x="452" y="-1"/>
      <point x="485" y="8" type="curve" smooth="yes"/>
      <point x="526" y="17"/>
      <point x="563" y="25"/>
      <point x="584" y="25" type="curve" smooth="yes"/>
      <point x="599" y="25"/>
      <point x="614" y="24"/>
      <point x="623" y="21" type="curve"/>
      <point x="629" y="24" type="line"/>
      <point x="706" y="215" type="line" smooth="yes"/>
      <point x="723" y="257"/>
      <point x="735" y="264"/>
      <point x="794" y="274" type="curve" smooth="yes"/>
      <point x="850" y="283" type="line"/>
      <point x="857" y="301" type="line"/>
      <point x="521" y="301" type="line"/>
      <point x="514" y="283" type="line"/>
      <point x="570" y="272" type="line" smooth="yes"/>
      <point x="619" y="262"/>
      <point x="628" y="257"/>
      <point x="611" y="213" type="curve" smooth="yes"/>
      <point x="557" y="75" type="line"/>
      <point x="501" y="37"/>
      <point x="442" y="21"/>
      <point x="390" y="21" type="curve" smooth="yes"/>
      <point x="278" y="21"/>
      <point x="197" y="88"/>
      <point x="197" y="253" type="curve" smooth="yes"/>
      <point x="197" y="462"/>
      <point x="357" y="657"/>
      <point x="551" y="657" type="curve" smooth="yes"/>
      <point x="659" y="657"/>
      <point x="762" y="605"/>
      <point x="804" y="473" type="curve"/>
      <point x="824" y="472" type="line"/>
      <point x="822" y="484"/>
      <point x="821" y="497"/>
      <point x="821" y="510" type="curve" smooth="yes"/>
      <point x="821" y="557"/>
      <point x="835" y="608"/>
      <point x="852" y="643" type="curve"/>
      <point x="850" y="645" type="line"/>
      <point x="845" y="643"/>
      <point x="828" y="642"/>
      <point x="811" y="642" type="curve" smooth="yes"/>
      <point x="779" y="642"/>
      <point x="758" y="646"/>
      <point x="730" y="655" type="curve" smooth="yes"/>
      <point x="678" y="672"/>
      <point x="615" y="681"/>
      <point x="548" y="681" type="curve" smooth="yes"/>
      <point x="327" y="681"/>
      <point x="104" y="500"/>
      <point x="104" y="260" type="curve" smooth="yes"/>
      <point x="104" y="84"/>
      <point x="242" y="-6"/>
    </contour>
  </outline>
</glyph>
<glyph name="H" format="2">
  <advance width="836"/>
  <unicode hex="0048"/>
  <outline>
    <contour>
      <point x="370" y="0" type="line"/>
      <point x="710" y="0" type="line"/>
      <point x="717" y="18" type="line"/>
      <point x="661" y="29" type="line" smooth="yes"/>
      <point x="610" y="39"/>
      <point x="604" y="46"/>
      <point x="621" y="88" type="curve" smooth="yes"/>
      <point x="821" y="585" type="line" smooth="yes"/>
      <point x="838" y="627"/>
      <point x="850" y="634"/>
      <point x="909" y="644" type="curve" smooth="yes"/>
      <point x="975" y="655" type="line"/>
      <point x="982" y="673" type="line"/>
      <point x="642" y="673" type="line"/>
      <point x="635" y="655" type="line"/>
      <point x="691" y="644" type="line" smooth="yes"/>
      <point x="742" y="634"/>
      <point x="748" y="627"/>
      <point x="731" y="585" type="curve" smooth="yes"/>
      <point x="531" y="88" type="line" smooth="yes"/>
      <point x="514" y="46"/>
      <point x="502" y="39"/>
      <point x="443" y="29" type="curve" smooth="yes"/>
      <point x="377" y="18" type="line"/>
    </contour>
    <contour>
      <point x="-46" y="0" type="line"/>
      <point x="294" y="0" type="line"/>
      <point x="301" y="18" type="line"/>
      <point x="245" y="29" type="line" smooth="yes"/>
      <point x="194" y="39"/>
      <point x="188" y="46"/>
      <point x="205" y="88" type="curve" smooth="yes"/>
      <point x="405" y="585" type="line" smooth="yes"/>
      <point x="422" y="627"/>
      <point x="434" y="634"/>
      <point x="493" y="644" type="curve" smooth="yes"/>
      <point x="559" y="655" type="line"/>
      <point x="566" y="673" type="line"/>
      <point x="226" y="673" type="line"/>
      <point x="219" y="655" type="line"/>
      <point x="275" y="644" type="line" smooth="yes"/>
      <point x="326" y="634"/>
      <point x="332" y="627"/>
      <point x="315" y="585" type="curve" smooth="yes"/>
      <point x="115" y="88" type="line" smooth="yes"/>
      <point x="98" y="46"/>
      <point x="86" y="39"/>
      <point x="27" y="29" type="curve" smooth="yes"/>
      <point x="-39" y="18" type="line"/>
    </contour>
    <contour>
      <point x="282" y="341" type="line"/>
      <point x="666" y="341" type="line"/>
      <point x="674" y="369" type="line"/>
      <point x="289" y="369" type="line"/>
    </contour>
  </outline>
</glyph>
<glyph name="I" format="2">
  <advance width="420"/>
  <unicode hex="0049"/>
  <anchor x="405" y="690" name="topcase"/>
  <outline>
    <contour>
      <point x="-46" y="0" type="line"/>
      <point x="294" y="0" type="line"/>
      <point x="301" y="18" type="line"/>
      <point x="245" y="29" type="line" smooth="yes"/>
      <point x="194" y="39"/>
      <point x="188" y="46"/>
      <point x="205" y="88" type="curve" smooth="yes"/>
      <point x="405" y="585" type="line" smooth="yes"/>
      <point x="422" y="627"/>
      <point x="434" y="634"/>
      <point x="493" y="644" type="curve" smooth="yes"/>
      <point x="559" y="655" type="line"/>
      <point x="566" y="673" type="line"/>
      <point x="226" y="673" type="line"/>
      <point x="219" y="655" type="line"/>
      <point x="275" y="644" type="line" smooth="yes"/>
      <point x="326" y="634"/>
      <point x="332" y="627"/>
      <point x="315" y="585" type="curve" smooth="yes"/>
      <point x="115" y="88" type="line" smooth="yes"/>
      <point x="98" y="46"/>
      <point x="86" y="39"/>
      <point x="27" y="29" type="curve" smooth="yes"/>
      <point x="-39" y="18" type="line"/>
    </contour>
  </outline>
</glyph>
<glyph name="J" format="2">
  <advance width="421"/>
  <unicode hex="004A"/>
  <guideline x="69" y="25" angle="0"/>
  <anchor x="445" y="690" name="topcase"/>
  <outline>
    <contour>
      <point x="-41" y="-180" type="curve" smooth="yes"/>
      <point x="46" y="-180"/>
      <point x="87" y="-131"/>
      <point x="114" y="-90" type="curve" smooth="yes"/>
      <point x="134" y="-60"/>
      <point x="147" y="-35"/>
      <point x="167" y="-35" type="curve" smooth="yes"/>
      <point x="169" y="-35" type="line"/>
      <point x="421" y="585" type="line" smooth="yes"/>
      <point x="438" y="627"/>
      <point x="450" y="634"/>
      <point x="509" y="644" type="curve" smooth="yes"/>
      <point x="575" y="655" type="line"/>
      <point x="582" y="673" type="line"/>
      <point x="242" y="673" type="line"/>
      <point x="235" y="655" type="line"/>
      <point x="291" y="644" type="line" smooth="yes"/>
      <point x="342" y="634"/>
      <point x="348" y="627"/>
      <point x="331" y="585" type="curve" smooth="yes"/>
      <point x="76" y="-50" type="line" smooth="yes"/>
      <point x="49" y="-117"/>
      <point x="-3" y="-154"/>
      <point x="-44" y="-154" type="curve" smooth="yes"/>
      <point x="-72" y="-154"/>
      <point x="-78" y="-144"/>
      <point x="-78" y="-136" type="curve" smooth="yes"/>
      <point x="-78" y="-125"/>
      <point x="-70" y="-118"/>
      <point x="-61" y="-109" type="curve" smooth="yes"/>
      <point x="-51" y="-99"/>
      <point x="-40" y="-87"/>
      <point x="-40" y="-68" type="curve" smooth="yes"/>
      <point x="-40" y="-35"/>
      <point x="-61" y="-21"/>
      <point x="-88" y="-21" type="curve" smooth="yes"/>
      <point x="-115" y="-21"/>
      <point x="-148" y="-39"/>
      <point x="-148" y="-79" type="curve" smooth="yes"/>
      <point x="-148" y="-133"/>
      <point x="-104" y="-180"/>
    </contour>
  </outline>
</glyph>
<glyph name="K" format="2">
  <advance width="809"/>
  <unicode hex="004B"/>
  <outline>
    <contour>
      <point x="663" y="0" type="curve" smooth="yes"/>
      <point x="708" y="0" type="line"/>
      <point x="715" y="18" type="line"/>
      <point x="685" y="24"/>
      <point x="674" y="33"/>
      <point x="656" y="55" type="curve" smooth="yes"/>
      <point x="404" y="351" type="line"/>
      <point x="706" y="564" type="line" smooth="yes"/>
      <point x="784" y="619"/>
      <point x="821" y="634"/>
      <point x="877" y="645" type="curve" smooth="yes"/>
      <point x="927" y="655" type="line"/>
      <point x="934" y="673" type="line"/>
      <point x="669" y="673" type="line"/>
      <point x="662" y="655" type="line"/>
      <point x="699" y="647" type="line" smooth="yes"/>
      <point x="726" y="641"/>
      <point x="739" y="636"/>
      <point x="739" y="628" type="curve" smooth="yes"/>
      <point x="739" y="616"/>
      <point x="716" y="602"/>
      <point x="695" y="588" type="curve" smooth="yes"/>
      <point x="323" y="329" type="line"/>
      <point x="320" y="321" type="line"/>
      <point x="550" y="48" type="line" smooth="yes"/>
      <point x="577" y="15"/>
      <point x="607" y="0"/>
    </contour>
    <contour>
      <point x="-46" y="0" type="line"/>
      <point x="294" y="0" type="line"/>
      <point x="301" y="18" type="line"/>
      <point x="245" y="29" type="line" smooth="yes"/>
      <point x="193" y="39"/>
      <point x="188" y="44"/>
      <point x="205" y="88" type="curve" smooth="yes"/>
      <point x="405" y="585" type="line" smooth="yes"/>
      <point x="422" y="627"/>
      <point x="434" y="634"/>
      <point x="493" y="644" type="curve" smooth="yes"/>
      <point x="559" y="655" type="line"/>
      <point x="566" y="673" type="line"/>
      <point x="226" y="673" type="line"/>
      <point x="219" y="655" type="line"/>
      <point x="275" y="644" type="line" smooth="yes"/>
      <point x="327" y="634"/>
      <point x="332" y="629"/>
      <point x="315" y="585" type="curve" smooth="yes"/>
      <point x="115" y="88" type="line" smooth="yes"/>
      <point x="98" y="46"/>
      <point x="86" y="39"/>
      <point x="27" y="29" type="curve" smooth="yes"/>
      <point x="-39" y="18" type="line"/>
    </contour>
  </outline>
</glyph>
<glyph name="L" format="2">
  <advance width="704"/>
  <unicode hex="004C"/>
  <anchor x="396" y="690" name="topcase"/>
  <outline>
    <contour>
      <point x="-46" y="0" type="line"/>
      <point x="582" y="0" type="line"/>
      <point x="604" y="52"/>
      <point x="639" y="118"/>
      <point x="681" y="180" type="curve"/>
      <point x="662" y="180" type="line"/>
      <point x="615" y="129" type="line" smooth="yes"/>
      <point x="572" y="82"/>
      <point x="481" y="25"/>
      <point x="399" y="25" type="curve" smooth="yes"/>
      <point x="258" y="25" type="line" smooth="yes"/>
      <point x="194" y="25"/>
      <point x="186" y="41"/>
      <point x="205" y="90" type="curve" smooth="yes"/>
      <point x="405" y="585" type="line" smooth="yes"/>
      <point x="422" y="627"/>
      <point x="434" y="634"/>
      <point x="493" y="644" type="curve" smooth="yes"/>
      <point x="559" y="655" type="line"/>
      <point x="566" y="673" type="line"/>
      <point x="226" y="673" type="line"/>
      <point x="219" y="655" type="line"/>
      <point x="275" y="644" type="line" smooth="yes"/>
      <point x="326" y="634"/>
      <point x="332" y="627"/>
      <point x="315" y="585" type="curve" smooth="yes"/>
      <point x="115" y="88" type="line" smooth="yes"/>
      <point x="98" y="46"/>
      <point x="86" y="39"/>
      <point x="27" y="29" type="curve" smooth="yes"/>
      <point x="-39" y="18" type="line"/>
    </contour>
  </outline>
</glyph>
<glyph name="M" format="2">
  <advance width="955"/>
  <unicode hex="004D"/>
  <outline>
    <contour>
      <point x="359" y="-9" type="line"/>
      <point x="366" y="-9" type="line"/>
      <point x="829" y="562" type="line"/>
      <point x="639" y="65" type="line" smooth="yes"/>
      <point x="631" y="44"/>
      <point x="621" y="36"/>
      <point x="593" y="31" type="curve" smooth="yes"/>
      <point x="518" y="18" type="line"/>
      <point x="510" y="0" type="line"/>
      <point x="833" y="0" type="line"/>
      <point x="841" y="18" type="line"/>
      <point x="784" y="29" type="line" smooth="yes"/>
      <point x="733" y="39"/>
      <point x="728" y="46"/>
      <point x="744" y="88" type="curve" smooth="yes"/>
      <point x="929" y="578" type="line" smooth="yes"/>
      <point x="946" y="623"/>
      <point x="963" y="636"/>
      <point x="1020" y="645" type="curve" smooth="yes"/>
      <point x="1084" y="655" type="line"/>
      <point x="1091" y="673" type="line"/>
      <point x="883" y="673" type="line"/>
      <point x="447" y="143" type="line"/>
      <point x="442" y="673" type="line"/>
      <point x="250" y="673" type="line"/>
      <point x="243" y="655" type="line"/>
      <point x="282" y="647" type="line" smooth="yes"/>
      <point x="330" y="636"/>
      <point x="336" y="621"/>
      <point x="318" y="579" type="curve" smooth="yes"/>
      <point x="109" y="89" type="line" smooth="yes"/>
      <point x="91" y="47"/>
      <point x="81" y="41"/>
      <point x="22" y="30" type="curve" smooth="yes"/>
      <point x="-43" y="18" type="line"/>
      <point x="-51" y="0" type="line"/>
      <point x="227" y="0" type="line"/>
      <point x="235" y="18" type="line"/>
      <point x="177" y="30" type="line" smooth="yes"/>
      <point x="127" y="41"/>
      <point x="119" y="48"/>
      <point x="137" y="89" type="curve" smooth="yes"/>
      <point x="352" y="586" type="line"/>
    </contour>
  </outline>
</glyph>
<glyph name="O" format="2">
  <advance width="822"/>
  <unicode hex="004F"/>
  <anchor x="562" y="690" name="topcase"/>
  <outline>
    <contour>
      <point x="400" y="-8" type="curve" smooth="yes"/>
      <point x="607" y="-8"/>
      <point x="827" y="177"/>
      <point x="827" y="408" type="curve" smooth="yes"/>
      <point x="827" y="579"/>
      <point x="695" y="682"/>
      <point x="532" y="682" type="curve" smooth="yes"/>
      <point x="325" y="682"/>
      <point x="105" y="497"/>
      <point x="105" y="266" type="curve" smooth="yes"/>
      <point x="105" y="95"/>
      <point x="237" y="-8"/>
    </contour>
    <contour>
      <point x="394" y="17" type="curve" smooth="yes"/>
      <point x="286" y="17"/>
      <point x="198" y="95"/>
      <point x="198" y="226" type="curve" smooth="yes"/>
      <point x="198" y="496"/>
      <point x="377" y="658"/>
      <point x="540" y="658" type="curve" smooth="yes"/>
      <point x="648" y="658"/>
      <point x="734" y="577"/>
      <point x="734" y="446" type="curve" smooth="yes"/>
      <point x="734" y="176"/>
      <point x="557" y="17"/>
    </contour>
  </outline>
</glyph>
<glyph name="P" format="2">
  <advance width="674"/>
  <unicode hex="0050"/>
  <outline>
    <contour>
      <point x="-43" y="0" type="line"/>
      <point x="296" y="0" type="line"/>
      <point x="303" y="18" type="line"/>
      <point x="246" y="29" type="line" smooth="yes"/>
      <point x="195" y="39"/>
      <point x="189" y="46"/>
      <point x="206" y="88" type="curve" smooth="yes"/>
      <point x="433" y="649" type="line"/>
      <point x="519" y="649" type="line" smooth="yes"/>
      <point x="605" y="649"/>
      <point x="655" y="618"/>
      <point x="655" y="551" type="curve" smooth="yes"/>
      <point x="655" y="403"/>
      <point x="504" y="323"/>
      <point x="397" y="317" type="curve"/>
      <point x="393" y="310" type="line"/>
      <point x="410" y="305"/>
      <point x="429" y="302"/>
      <point x="449" y="302" type="curve" smooth="yes"/>
      <point x="597" y="302"/>
      <point x="754" y="416"/>
      <point x="754" y="540" type="curve" smooth="yes"/>
      <point x="754" y="620"/>
      <point x="677" y="673"/>
      <point x="544" y="673" type="curve" smooth="yes"/>
      <point x="226" y="673" type="line"/>
      <point x="219" y="655" type="line"/>
      <point x="261" y="647" type="line" smooth="yes"/>
      <point x="329" y="634"/>
      <point x="336" y="632"/>
      <point x="312" y="572" type="curve" smooth="yes"/>
      <point x="116" y="88" type="line" smooth="yes"/>
      <point x="99" y="46"/>
      <point x="87" y="39"/>
      <point x="29" y="29" type="curve" smooth="yes"/>
      <point x="-36" y="18" type="line"/>
    </contour>
  </outline>
</glyph>
<glyph name="Q" format="2">
  <advance width="822"/>
  <unicode hex="0051"/>
  <guideline x="78" y="94" angle="68"/>
  <guideline x="834" y="82" angle="68"/>
  <outline>
    <contour>
      <point x="582" y="-256" type="curve" smooth="yes"/>
      <point x="668" y="-256"/>
      <point x="718" y="-221"/>
      <point x="750" y="-129" type="curve"/>
      <point x="727" y="-123" type="line"/>
      <point x="710" y="-155"/>
      <point x="682" y="-182"/>
      <point x="624" y="-182" type="curve" smooth="yes"/>
      <point x="563" y="-182"/>
      <point x="508" y="-152"/>
      <point x="442" y="-108" type="curve" smooth="yes"/>
      <point x="361" y="-56"/>
      <point x="268" y="2"/>
      <point x="145" y="2" type="curve" smooth="yes"/>
      <point x="71" y="2"/>
      <point x="14" y="-32"/>
      <point x="14" y="-78" type="curve" smooth="yes"/>
      <point x="14" y="-108"/>
      <point x="34" y="-123"/>
      <point x="57" y="-123" type="curve" smooth="yes"/>
      <point x="95" y="-123"/>
      <point x="98" y="-99"/>
      <point x="102" y="-75" type="curve" smooth="yes"/>
      <point x="105" y="-52"/>
      <point x="106" y="-29"/>
      <point x="147" y="-29" type="curve" smooth="yes"/>
      <point x="248" y="-29"/>
      <point x="315" y="-88"/>
      <point x="379" y="-145" type="curve" smooth="yes"/>
      <point x="441" y="-201"/>
      <point x="502" y="-256"/>
    </contour>
    <component base="O"/>
  </outline>
</glyph>
<glyph name="R" format="2">
  <advance width="809"/>
  <unicode hex="0052"/>
  <anchor x="513" y="690" name="topcase"/>
  <outline>
    <contour>
      <point x="662" y="-13" type="curve" smooth="yes"/>
      <point x="680" y="-13"/>
      <point x="699" y="-10"/>
      <point x="716" y="-5" type="curve"/>
      <point x="723" y="13" type="line"/>
      <point x="659" y="13"/>
      <point x="620" y="88"/>
      <point x="576" y="161" type="curve" smooth="yes"/>
      <point x="531" y="236"/>
      <point x="495" y="301"/>
      <point x="424" y="312" type="curve"/>
      <point x="425" y="315" type="line"/>
      <point x="556" y="325"/>
      <point x="725" y="420"/>
      <point x="725" y="546" type="curve" smooth="yes"/>
      <point x="725" y="623"/>
      <point x="651" y="673"/>
      <point x="506" y="673" type="curve" smooth="yes"/>
      <point x="226" y="673" type="line"/>
      <point x="219" y="655" type="line"/>
      <point x="275" y="644" type="line" smooth="yes"/>
      <point x="326" y="634"/>
      <point x="333" y="627"/>
      <point x="316" y="585" type="curve" smooth="yes"/>
      <point x="115" y="88" type="line" smooth="yes"/>
      <point x="98" y="46"/>
      <point x="86" y="39"/>
      <point x="28" y="29" type="curve" smooth="yes"/>
      <point x="-38" y="18" type="line"/>
      <point x="-45" y="0" type="line"/>
      <point x="294" y="0" type="line"/>
      <point x="301" y="18" type="line"/>
      <point x="245" y="29" type="line" smooth="yes"/>
      <point x="194" y="39"/>
      <point x="188" y="46"/>
      <point x="205" y="88" type="curve" smooth="yes"/>
      <point x="291" y="301" type="line"/>
      <point x="311" y="301" type="line" smooth="yes"/>
      <point x="390" y="301"/>
      <point x="434" y="221"/>
      <point x="484" y="142" type="curve" smooth="yes"/>
      <point x="534" y="63"/>
      <point x="588" y="-13"/>
    </contour>
    <contour>
      <point x="302" y="329" type="line"/>
      <point x="432" y="650" type="line"/>
      <point x="484" y="650" type="line" smooth="yes"/>
      <point x="576" y="650"/>
      <point x="628" y="610"/>
      <point x="628" y="546" type="curve" smooth="yes"/>
      <point x="628" y="418"/>
      <point x="501" y="329"/>
      <point x="367" y="329" type="curve" smooth="yes"/>
    </contour>
  </outline>
</glyph>
<glyph name="S" format="2">
  <advance width="587"/>
  <unicode hex="0053"/>
  <anchor x="457" y="690" name="topcase"/>
  <outline>
    <contour>
      <point x="235" y="-8" type="curve"/>
      <point x="382" y="-8"/>
      <point x="526" y="63"/>
      <point x="526" y="215" type="curve" smooth="yes"/>
      <point x="526" y="311"/>
      <point x="439" y="351"/>
      <point x="378" y="385" type="curve" smooth="yes"/>
      <point x="316" y="419"/>
      <point x="253" y="441"/>
      <point x="253" y="504" type="curve" smooth="yes"/>
      <point x="253" y="602"/>
      <point x="330" y="659"/>
      <point x="417" y="659" type="curve" smooth="yes"/>
      <point x="533" y="659"/>
      <point x="595" y="574"/>
      <point x="582" y="460" type="curve"/>
      <point x="604" y="459" type="line"/>
      <point x="612" y="521"/>
      <point x="618" y="572"/>
      <point x="655" y="627" type="curve"/>
      <point x="651" y="631" type="line"/>
      <point x="642" y="629"/>
      <point x="634" y="628"/>
      <point x="626" y="628" type="curve" smooth="yes"/>
      <point x="609" y="628"/>
      <point x="590" y="641"/>
      <point x="571" y="651" type="curve" smooth="yes"/>
      <point x="530" y="674"/>
      <point x="480" y="685"/>
      <point x="433" y="685" type="curve" smooth="yes"/>
      <point x="308" y="685"/>
      <point x="178" y="608"/>
      <point x="178" y="482" type="curve" smooth="yes"/>
      <point x="178" y="387"/>
      <point x="248" y="350"/>
      <point x="314" y="314" type="curve" smooth="yes"/>
      <point x="373" y="282"/>
      <point x="434" y="253"/>
      <point x="434" y="182" type="curve" smooth="yes"/>
      <point x="434" y="71"/>
      <point x="348" y="15"/>
      <point x="245" y="15" type="curve" smooth="yes"/>
      <point x="138" y="15"/>
      <point x="95" y="76"/>
      <point x="95" y="166" type="curve" smooth="yes"/>
      <point x="95" y="193"/>
      <point x="99" y="222"/>
      <point x="105" y="251" type="curve"/>
      <point x="76" y="254" type="line"/>
      <point x="70" y="191"/>
      <point x="44" y="126"/>
      <point x="14" y="70" type="curve"/>
      <point x="63" y="26"/>
      <point x="124" y="-8"/>
    </contour>
  </outline>
</glyph>
<glyph name="T" format="2">
  <advance width="694"/>
  <unicode hex="0054"/>
  <anchor x="549" y="690" name="topcase"/>
  <outline>
    <contour>
      <point x="91" y="0" type="line"/>
      <point x="431" y="0" type="line"/>
      <point x="438" y="18" type="line"/>
      <point x="382" y="29" type="line" smooth="yes"/>
      <point x="331" y="39"/>
      <point x="325" y="46"/>
      <point x="342" y="88" type="curve" smooth="yes"/>
      <point x="568" y="649" type="line"/>
      <point x="663" y="649" type="line"/>
      <point x="761" y="649"/>
      <point x="782" y="581"/>
      <point x="772" y="496" type="curve"/>
      <point x="793" y="496" type="line"/>
      <point x="811" y="573"/>
      <point x="823" y="617"/>
      <point x="854" y="673" type="curve"/>
      <point x="211" y="673" type="line"/>
      <point x="196" y="617"/>
      <point x="175" y="573"/>
      <point x="129" y="496" type="curve"/>
      <point x="150" y="496" type="line"/>
      <point x="210" y="581"/>
      <point x="285" y="649"/>
      <point x="383" y="649" type="curve" smooth="yes"/>
      <point x="478" y="649" type="line"/>
      <point x="252" y="88" type="line" smooth="yes"/>
      <point x="235" y="46"/>
      <point x="223" y="39"/>
      <point x="164" y="29" type="curve" smooth="yes"/>
      <point x="98" y="18" type="line"/>
    </contour>
  </outline>
</glyph>
<glyph name="V" format="2">
  <advance width="764"/>
  <unicode hex="0056"/>
  <outline>
    <contour>
      <point x="306" y="-15" type="line"/>
      <point x="314" y="-15" type="line"/>
      <point x="782" y="576" type="line" smooth="yes"/>
      <point x="824" y="628"/>
      <point x="848" y="635"/>
      <point x="892" y="645" type="curve" smooth="yes"/>
      <point x="938" y="655" type="line"/>
      <point x="945" y="673" type="line"/>
      <point x="695" y="673" type="line"/>
      <point x="688" y="655" type="line"/>
      <point x="731" y="646" type="line" smooth="yes"/>
      <point x="761" y="640"/>
      <point x="773" y="635"/>
      <point x="773" y="624" type="curve" smooth="yes"/>
      <point x="773" y="614"/>
      <point x="766" y="602"/>
      <point x="752" y="584" type="curve" smooth="yes"/>
      <point x="378" y="111" type="line"/>
      <point x="386" y="111" type="line"/>
      <point x="367" y="571" type="line" smooth="yes"/>
      <point x="366" y="585"/>
      <point x="368" y="605"/>
      <point x="372" y="616" type="curve"/>
      <point x="381" y="636"/>
      <point x="413" y="641"/>
      <point x="448" y="647" type="curve" smooth="yes"/>
      <point x="498" y="655" type="line"/>
      <point x="505" y="673" type="line"/>
      <point x="191" y="673" type="line"/>
      <point x="184" y="655" type="line"/>
      <point x="223" y="647" type="line" smooth="yes"/>
      <point x="269" y="637"/>
      <point x="277" y="623"/>
      <point x="279" y="577" type="curve" smooth="yes"/>
    </contour>
  </outline>
</glyph>
<glyph name="W" format="2">
  <advance width="1129"/>
  <unicode hex="0057"/>
  <anchor x="788" y="690" name="topcase"/>
  <outline>
    <contour>
      <point x="262" y="-9" type="line"/>
      <point x="269" y="-9" type="line"/>
      <point x="695" y="535" type="line"/>
      <point x="667" y="-9" type="line"/>
      <point x="674" y="-9" type="line"/>
      <point x="1131" y="574" type="line" smooth="yes"/>
      <point x="1166" y="619"/>
      <point x="1193" y="640"/>
      <point x="1245" y="647" type="curve" smooth="yes"/>
      <point x="1303" y="655" type="line"/>
      <point x="1310" y="673" type="line"/>
      <point x="1041" y="673" type="line"/>
      <point x="1034" y="655" type="line"/>
      <point x="1093" y="643" type="line" smooth="yes"/>
      <point x="1133" y="634"/>
      <point x="1135" y="625"/>
      <point x="1103" y="584" type="curve" smooth="yes"/>
      <point x="748" y="130" type="line"/>
      <point x="764" y="124" type="line"/>
      <point x="785" y="577" type="line" smooth="yes"/>
      <point x="788" y="625"/>
      <point x="789" y="633"/>
      <point x="844" y="643" type="curve" smooth="yes"/>
      <point x="916" y="655" type="line"/>
      <point x="923" y="673" type="line"/>
      <point x="637" y="673" type="line"/>
      <point x="630" y="655" type="line"/>
      <point x="686" y="643" type="line" smooth="yes"/>
      <point x="734" y="632"/>
      <point x="729" y="622"/>
      <point x="691" y="574" type="curve" smooth="yes"/>
      <point x="342" y="130" type="line"/>
      <point x="355" y="124" type="line"/>
      <point x="370" y="584" type="line" smooth="yes"/>
      <point x="370" y="624"/>
      <point x="380" y="636"/>
      <point x="428" y="643" type="curve" smooth="yes"/>
      <point x="501" y="655" type="line"/>
      <point x="508" y="673" type="line"/>
      <point x="191" y="673" type="line"/>
      <point x="184" y="655" type="line"/>
      <point x="222" y="647" type="line" smooth="yes"/>
      <point x="268" y="638"/>
      <point x="279" y="619"/>
      <point x="278" y="574" type="curve" smooth="yes"/>
    </contour>
  </outline>
</glyph>
<glyph name="X" format="2">
  <advance width="783"/>
  <unicode hex="0058"/>
  <outline>
    <contour>
      <point x="363" y="0" type="line"/>
      <point x="684" y="0" type="line"/>
      <point x="692" y="19" type="line"/>
      <point x="664" y="24" type="line" smooth="yes"/>
      <point x="608" y="34"/>
      <point x="586" y="60"/>
      <point x="564" y="127" type="curve"/>
      <point x="487" y="362" type="line"/>
      <point x="484" y="371" type="line"/>
      <point x="416" y="580" type="line"/>
      <point x="402" y="624"/>
      <point x="424" y="638"/>
      <point x="483" y="647" type="curve" smooth="yes"/>
      <point x="541" y="655" type="line"/>
      <point x="548" y="673" type="line"/>
      <point x="226" y="673" type="line"/>
      <point x="218" y="654" type="line"/>
      <point x="246" y="649" type="line" smooth="yes"/>
      <point x="299" y="639"/>
      <point x="314" y="619"/>
      <point x="327" y="580" type="curve"/>
      <point x="411" y="323" type="line"/>
      <point x="414" y="314" type="line"/>
      <point x="486" y="96" type="line"/>
      <point x="501" y="50"/>
      <point x="486" y="36"/>
      <point x="428" y="27" type="curve" smooth="yes"/>
      <point x="370" y="18" type="line"/>
    </contour>
    <contour>
      <point x="-76" y="0" type="line"/>
      <point x="212" y="0" type="line"/>
      <point x="219" y="18" type="line"/>
      <point x="157" y="32" type="line" smooth="yes"/>
      <point x="127" y="39"/>
      <point x="128" y="55"/>
      <point x="159" y="81" type="curve" smooth="yes"/>
      <point x="432" y="315" type="line"/>
      <point x="420" y="343" type="line"/>
      <point x="113" y="80" type="line" smooth="yes"/>
      <point x="73" y="46"/>
      <point x="27" y="31"/>
      <point x="-23" y="24" type="curve" smooth="yes"/>
      <point x="-69" y="18" type="line"/>
    </contour>
    <contour>
      <point x="473" y="340" type="line"/>
      <point x="769" y="589" type="line" smooth="yes"/>
      <point x="813" y="626"/>
      <point x="856" y="642"/>
      <point x="906" y="649" type="curve" smooth="yes"/>
      <point x="952" y="655" type="line"/>
      <point x="959" y="673" type="line"/>
      <point x="675" y="673" type="line"/>
      <point x="668" y="655" type="line"/>
      <point x="730" y="641" type="line" smooth="yes"/>
      <point x="762" y="634"/>
      <point x="755" y="612"/>
      <point x="727" y="588" type="curve" smooth="yes"/>
      <point x="463" y="365" type="line"/>
    </contour>
  </outline>
</glyph>
<glyph name="Y" format="2">
  <advance width="706"/>
  <unicode hex="0059"/>
  <anchor x="568" y="690" name="topcase"/>
  <outline>
    <contour>
      <point x="366" y="305" type="line"/>
      <point x="438" y="321" type="line"/>
      <point x="720" y="588" type="line" smooth="yes"/>
      <point x="764" y="630"/>
      <point x="799" y="643"/>
      <point x="839" y="649" type="curve" smooth="yes"/>
      <point x="880" y="655" type="line"/>
      <point x="887" y="673" type="line"/>
      <point x="633" y="673" type="line"/>
      <point x="626" y="655" type="line"/>
      <point x="683" y="641" type="line" smooth="yes"/>
      <point x="714" y="633"/>
      <point x="709" y="616"/>
      <point x="678" y="587" type="curve" smooth="yes"/>
      <point x="432" y="352" type="line"/>
      <point x="441" y="352" type="line"/>
      <point x="365" y="580" type="line" smooth="yes"/>
      <point x="351" y="622"/>
      <point x="371" y="640"/>
      <point x="428" y="648" type="curve" smooth="yes"/>
      <point x="483" y="656" type="line"/>
      <point x="490" y="673" type="line"/>
      <point x="191" y="673" type="line"/>
      <point x="183" y="654" type="line"/>
      <point x="211" y="649" type="line" smooth="yes"/>
      <point x="244" y="643"/>
      <point x="256" y="631"/>
      <point x="265" y="604" type="curve" smooth="yes"/>
    </contour>
    <contour>
      <point x="102" y="0" type="line"/>
      <point x="442" y="0" type="line"/>
      <point x="449" y="18" type="line"/>
      <point x="393" y="29" type="line" smooth="yes"/>
      <point x="342" y="39"/>
      <point x="336" y="46"/>
      <point x="353" y="88" type="curve" smooth="yes"/>
      <point x="454" y="340" type="line"/>
      <point x="360" y="330" type="line"/>
      <point x="263" y="88" type="line" smooth="yes"/>
      <point x="246" y="46"/>
      <point x="234" y="39"/>
      <point x="175" y="29" type="curve" smooth="yes"/>
      <point x="109" y="18" type="line"/>
    </contour>
  </outline>
</glyph>
<glyph name="Z" format="2">
  <advance width="680"/>
  <unicode hex="005A"/>
  <anchor x="526" y="690" name="topcase"/>
  <outline>
    <contour>
      <point x="-46" y="0" type="line"/>
      <point x="533" y="0" type="line"/>
      <point x="558" y="63"/>
      <point x="591" y="122"/>
      <point x="634" y="187" type="curve"/>
      <point x="614" y="187" type="line"/>
      <point x="544" y="97"/>
      <point x="429" y="25"/>
      <point x="324" y="25" type="curve" smooth="yes"/>
      <point x="92" y="25" type="line"/>
      <point x="804" y="668" type="line"/>
      <point x="806" y="673" type="line"/>
      <point x="271" y="673" type="line"/>
      <point x="266" y="655"/>
      <point x="262" y="638"/>
      <point x="255" y="621" type="curve" smooth="yes"/>
      <point x="237" y="577"/>
      <point x="212" y="530"/>
      <point x="187" y="489" type="curve"/>
      <point x="207" y="489" type="line"/>
      <point x="287" y="592"/>
      <point x="366" y="649"/>
      <point x="471" y="649" type="curve" smooth="yes"/>
      <point x="660" y="649" type="line"/>
      <point x="-44" y="5" type="line"/>
    </contour>
  </outline>
</glyph>
<glyph name="backslash" format="2">
  <advance width="433"/>
  <unicode hex="005C"/>
  <outline>
    <contour>
      <point x="286" y="-7" type="line"/>
      <point x="324" y="-7" type="line"/>
      <point x="260" y="711" type="line"/>
      <point x="222" y="711" type="line"/>
    </contour>
  </outline>
</glyph>
<glyph name="bracketright" format="2">
  <advance width="268"/>
  <unicode hex="005D"/>
  <outline>
    <contour>
      <point x="445" y="744" type="line"/>
      <point x="255" y="744" type="line"/>
      <point x="243" y="714" type="line"/>
      <point x="373" y="714" type="line"/>
      <point x="9" y="-185" type="line"/>
      <point x="-121" y="-185" type="line"/>
      <point x="-133" y="-215" type="line"/>
      <point x="57" y="-215" type="line"/>
    </contour>
  </outline>
</glyph>
<glyph name="a" format="2">
  <advance width="490"/>
  <unicode hex="0061"/>
  <guideline x="139" y="347" angle="90"/>
  <guideline x="352" y="196" angle="68"/>
  <anchor x="335" y="470" name="top"/>
  <outline>
    <contour>
      <point x="65" y="-8" type="curve" smooth="yes"/>
      <point x="137" y="-8"/>
      <point x="218" y="59"/>
      <point x="266" y="123" type="curve"/>
      <point x="272" y="123" type="line"/>
      <point x="251" y="65" type="line" smooth="yes"/>
      <point x="234" y="15"/>
      <point x="255" y="-7"/>
      <point x="281" y="-7" type="curve" smooth="yes"/>
      <point x="320" y="-7"/>
      <point x="379" y="38"/>
      <point x="462" y="168" type="curve"/>
      <point x="446" y="178" type="line"/>
      <point x="390" y="92"/>
      <point x="337" y="43"/>
      <point x="314" y="43" type="curve" smooth="yes"/>
      <point x="304" y="43"/>
      <point x="296" y="56"/>
      <point x="308" y="85" type="curve" smooth="yes"/>
      <point x="455" y="449" type="line"/>
      <point x="445" y="449" type="line"/>
      <point x="391" y="410" type="line"/>
      <point x="389" y="410" type="line"/>
      <point x="378" y="425"/>
      <point x="361" y="434"/>
      <point x="335" y="434" type="curve" smooth="yes"/>
      <point x="279" y="434"/>
      <point x="201" y="389"/>
      <point x="139" y="322" type="curve" smooth="yes"/>
      <point x="65" y="242"/>
      <point x="1" y="145"/>
      <point x="1" y="70" type="curve" smooth="yes"/>
      <point x="1" y="10"/>
      <point x="31" y="-8"/>
    </contour>
    <contour>
      <point x="119" y="44" type="curve" smooth="yes"/>
      <point x="93" y="44"/>
      <point x="76" y="60"/>
      <point x="76" y="102" type="curve" smooth="yes"/>
      <point x="76" y="179"/>
      <point x="114" y="257"/>
      <point x="169" y="316" type="curve" smooth="yes"/>
      <point x="213" y="364"/>
      <point x="260" y="389"/>
      <point x="295" y="389" type="curve" smooth="yes"/>
      <point x="327" y="389"/>
      <point x="341" y="372"/>
      <point x="341" y="339" type="curve" smooth="yes"/>
      <point x="341" y="244"/>
      <point x="206" y="44"/>
    </contour>
  </outline>
</glyph>
<glyph name="b" format="2">
  <advance width="459"/>
  <unicode hex="0062"/>
  <outline>
    <contour>
      <point x="124" y="-8" type="curve" smooth="yes"/>
      <point x="251" y="-8"/>
      <point x="458" y="219"/>
      <point x="458" y="357" type="curve" smooth="yes"/>
      <point x="458" y="416"/>
      <point x="428" y="434"/>
      <point x="394" y="434" type="curve" smooth="yes"/>
      <point x="333" y="434"/>
      <point x="261" y="384"/>
      <point x="212" y="328" type="curve"/>
      <point x="207" y="328" type="line"/>
      <point x="320" y="625" type="line" smooth="yes"/>
      <point x="330" y="651"/>
      <point x="343" y="681"/>
      <point x="358" y="706" type="curve"/>
      <point x="346" y="712" type="line"/>
      <point x="300" y="693"/>
      <point x="250" y="681"/>
      <point x="196" y="673" type="curve"/>
      <point x="192" y="662" type="line"/>
      <point x="232" y="658" type="line" smooth="yes"/>
      <point x="265" y="655"/>
      <point x="267" y="644"/>
      <point x="262" y="631" type="curve" smooth="yes"/>
      <point x="66" y="127" type="line" smooth="yes"/>
      <point x="58" y="106"/>
      <point x="54" y="86"/>
      <point x="54" y="69" type="curve" smooth="yes"/>
      <point x="54" y="22"/>
      <point x="82" y="-8"/>
    </contour>
    <contour>
      <point x="165" y="40" type="curve" smooth="yes"/>
      <point x="135" y="40"/>
      <point x="118" y="55"/>
      <point x="118" y="91" type="curve" smooth="yes"/>
      <point x="118" y="204"/>
      <point x="261" y="382"/>
      <point x="337" y="382" type="curve" smooth="yes"/>
      <point x="363" y="382"/>
      <point x="383" y="367"/>
      <point x="383" y="325" type="curve" smooth="yes"/>
      <point x="383" y="239"/>
      <point x="338" y="163"/>
      <point x="288" y="111" type="curve" smooth="yes"/>
      <point x="246" y="67"/>
      <point x="200" y="40"/>
    </contour>
  </outline>
</glyph>
<glyph name="c" format="2">
  <advance width="368"/>
  <unicode hex="0063"/>
  <guideline x="183" y="399" angle="90"/>
  <anchor x="327" y="470" name="top"/>
  <outline>
    <contour>
      <point x="103" y="-8" type="curve" smooth="yes"/>
      <point x="179" y="-8"/>
      <point x="269" y="80"/>
      <point x="319" y="166" type="curve"/>
      <point x="301" y="177" type="line"/>
      <point x="254" y="94"/>
      <point x="190" y="46"/>
      <point x="144" y="46" type="curve" smooth="yes"/>
      <point x="111" y="46"/>
      <point x="90" y="68"/>
      <point x="90" y="144" type="curve" smooth="yes"/>
      <point x="90" y="288"/>
      <point x="215" y="394"/>
      <point x="281" y="394" type="curve" smooth="yes"/>
      <point x="305" y="394"/>
      <point x="308" y="378"/>
      <point x="310" y="362" type="curve" smooth="yes"/>
      <point x="312" y="345"/>
      <point x="315" y="329"/>
      <point x="345" y="329" type="curve" smooth="yes"/>
      <point x="366" y="329"/>
      <point x="378" y="343"/>
      <point x="378" y="371" type="curve" smooth="yes"/>
      <point x="378" y="405"/>
      <point x="352" y="434"/>
      <point x="302" y="434" type="curve" smooth="yes"/>
      <point x="263" y="434"/>
      <point x="210" y="410"/>
      <point x="163" y="367" type="curve" smooth="yes"/>
      <point x="95" y="304"/>
      <point x="22" y="204"/>
      <point x="22" y="87" type="curve" smooth="yes"/>
      <point x="22" y="26"/>
      <point x="57" y="-8"/>
    </contour>
  </outline>
</glyph>
<glyph name="d" format="2">
  <advance width="490"/>
  <unicode hex="0064"/>
  <outline>
    <contour>
      <point x="65" y="-8" type="curve"/>
      <point x="137" y="-8"/>
      <point x="218" y="59"/>
      <point x="266" y="123" type="curve"/>
      <point x="272" y="123" type="line"/>
      <point x="251" y="65" type="line" smooth="yes"/>
      <point x="234" y="15"/>
      <point x="255" y="-7"/>
      <point x="281" y="-7" type="curve" smooth="yes"/>
      <point x="320" y="-7"/>
      <point x="379" y="38"/>
      <point x="462" y="168" type="curve"/>
      <point x="446" y="178" type="line"/>
      <point x="390" y="92"/>
      <point x="337" y="43"/>
      <point x="314" y="43" type="curve" smooth="yes"/>
      <point x="304" y="43"/>
      <point x="296" y="56"/>
      <point x="308" y="85" type="curve" smooth="yes"/>
      <point x="524" y="625" type="line" smooth="yes"/>
      <point x="534" y="651"/>
      <point x="547" y="681"/>
      <point x="562" y="706" type="curve"/>
      <point x="550" y="712" type="line"/>
      <point x="504" y="693"/>
      <point x="454" y="681"/>
      <point x="400" y="673" type="curve"/>
      <point x="396" y="662" type="line"/>
      <point x="436" y="658" type="line" smooth="yes"/>
      <point x="465" y="655"/>
      <point x="473" y="649"/>
      <point x="466" y="631" type="curve" smooth="yes"/>
      <point x="381" y="419" type="line"/>
      <point x="370" y="428"/>
      <point x="356" y="434"/>
      <point x="335" y="434" type="curve"/>
      <point x="279" y="434"/>
      <point x="201" y="389"/>
      <point x="139" y="322" type="curve" smooth="yes"/>
      <point x="65" y="242"/>
      <point x="1" y="145"/>
      <point x="1" y="70" type="curve" smooth="yes"/>
      <point x="1" y="10"/>
      <point x="31" y="-8"/>
    </contour>
    <contour>
      <point x="119" y="44" type="curve" smooth="yes"/>
      <point x="93" y="44"/>
      <point x="76" y="60"/>
      <point x="76" y="102" type="curve" smooth="yes"/>
      <point x="76" y="179"/>
      <point x="114" y="257"/>
      <point x="169" y="316" type="curve" smooth="yes"/>
      <point x="213" y="364"/>
      <point x="260" y="389"/>
      <point x="295" y="389" type="curve" smooth="yes"/>
      <point x="327" y="389"/>
      <point x="341" y="372"/>
      <point x="341" y="339" type="curve" smooth="yes"/>
      <point x="341" y="244"/>
      <point x="206" y="44"/>
    </contour>
  </outline>
</glyph>
<glyph name="e" format="2">
  <advance width="373"/>
  <unicode hex="0065"/>
  <guideline x="95" y="376" angle="0"/>
  <anchor x="302" y="470" name="top"/>
  <outline>
    <contour>
      <point x="107" y="-8" type="curve" smooth="yes"/>
      <point x="175" y="-8"/>
      <point x="270" y="72"/>
      <point x="322" y="166" type="curve"/>
      <point x="303" y="177" type="line"/>
      <point x="260" y="98"/>
      <point x="192" y="46"/>
      <point x="150" y="46" type="curve" smooth="yes"/>
      <point x="102" y="46"/>
      <point x="94" y="84"/>
      <point x="94" y="137" type="curve" smooth="yes"/>
      <point x="94" y="312"/>
      <point x="216" y="392"/>
      <point x="274" y="392" type="curve" smooth="yes"/>
      <point x="297" y="392"/>
      <point x="309" y="380"/>
      <point x="309" y="359" type="curve" smooth="yes"/>
      <point x="309" y="315"/>
      <point x="242" y="239"/>
      <point x="94" y="227" type="curve"/>
      <point x="90" y="204" type="line"/>
      <point x="290" y="226"/>
      <point x="375" y="312"/>
      <point x="375" y="377" type="curve" smooth="yes"/>
      <point x="375" y="409"/>
      <point x="354" y="434"/>
      <point x="311" y="434" type="curve" smooth="yes"/>
      <point x="260" y="434"/>
      <point x="211" y="411"/>
      <point x="168" y="376" type="curve" smooth="yes"/>
      <point x="84" y="307"/>
      <point x="25" y="190"/>
      <point x="25" y="93" type="curve" smooth="yes"/>
      <point x="25" y="35"/>
      <point x="50" y="-8"/>
    </contour>
  </outline>
</glyph>
<glyph name="g" format="2">
  <advance width="457"/>
  <unicode hex="0067"/>
  <anchor x="298" y="470" name="top"/>
  <outline>
    <contour>
      <point x="61" y="-259" type="curve" smooth="yes"/>
      <point x="225" y="-259"/>
      <point x="361" y="-185"/>
      <point x="361" y="-94" type="curve" smooth="yes"/>
      <point x="361" y="-36"/>
      <point x="316" y="-3"/>
      <point x="192" y="22" type="curve" smooth="yes"/>
      <point x="78" y="45"/>
      <point x="58" y="53"/>
      <point x="58" y="78" type="curve" smooth="yes"/>
      <point x="58" y="112"/>
      <point x="127" y="127"/>
      <point x="193" y="129" type="curve"/>
      <point x="141" y="143" type="line"/>
      <point x="40" y="126"/>
      <point x="-13" y="93"/>
      <point x="-13" y="60" type="curve" smooth="yes"/>
      <point x="-13" y="20"/>
      <point x="19" y="-3"/>
      <point x="144" y="-29" type="curve" smooth="yes"/>
      <point x="275" y="-56"/>
      <point x="295" y="-82"/>
      <point x="295" y="-118" type="curve" smooth="yes"/>
      <point x="295" y="-185"/>
      <point x="211" y="-225"/>
      <point x="97" y="-225" type="curve" smooth="yes"/>
      <point x="26" y="-225"/>
      <point x="-35" y="-200"/>
      <point x="-35" y="-144" type="curve" smooth="yes"/>
      <point x="-35" y="-71"/>
      <point x="39" y="-26"/>
      <point x="142" y="-3" type="curve"/>
      <point x="93" y="11" type="line"/>
      <point x="-22" y="-21"/>
      <point x="-111" y="-69"/>
      <point x="-111" y="-159" type="curve" smooth="yes"/>
      <point x="-111" y="-221"/>
      <point x="-36" y="-259"/>
    </contour>
    <contour>
      <point x="142" y="3" type="line"/>
      <point x="207" y="22"/>
      <point x="280" y="38"/>
      <point x="346" y="50" type="curve"/>
      <point x="343" y="65" type="line"/>
      <point x="258" y="52"/>
      <point x="171" y="38"/>
      <point x="93" y="17" type="curve"/>
    </contour>
    <contour>
      <point x="192" y="150" type="curve" smooth="yes"/>
      <point x="148" y="150"/>
      <point x="130" y="187"/>
      <point x="130" y="225" type="curve" smooth="yes"/>
      <point x="130" y="311"/>
      <point x="195" y="413"/>
      <point x="261" y="413" type="curve" smooth="yes"/>
      <point x="276" y="413"/>
      <point x="289" y="410"/>
      <point x="300" y="404" type="curve"/>
      <point x="314" y="386"/>
      <point x="322" y="363"/>
      <point x="322" y="339" type="curve" smooth="yes"/>
      <point x="322" y="254"/>
      <point x="254" y="150"/>
    </contour>
    <contour>
      <point x="189" y="129" type="curve" smooth="yes"/>
      <point x="304" y="129"/>
      <point x="381" y="237"/>
      <point x="381" y="321" type="curve" smooth="yes"/>
      <point x="381" y="349"/>
      <point x="371" y="374"/>
      <point x="350" y="392" type="curve"/>
      <point x="352" y="397" type="line"/>
      <point x="364" y="389"/>
      <point x="380" y="385"/>
      <point x="395" y="385" type="curve" smooth="yes"/>
      <point x="463" y="385"/>
      <point x="501" y="442"/>
      <point x="501" y="484" type="curve" smooth="yes"/>
      <point x="501" y="506"/>
      <point x="489" y="524"/>
      <point x="464" y="524" type="curve" smooth="yes"/>
      <point x="441" y="524"/>
      <point x="420" y="507"/>
      <point x="420" y="472" type="curve" smooth="yes"/>
      <point x="420" y="460"/>
      <point x="425" y="450"/>
      <point x="425" y="440" type="curve" smooth="yes"/>
      <point x="425" y="419"/>
      <point x="412" y="413"/>
      <point x="394" y="413" type="curve" smooth="yes"/>
      <point x="376" y="413"/>
      <point x="353" y="418"/>
      <point x="330" y="423" type="curve" smooth="yes"/>
      <point x="306" y="428"/>
      <point x="281" y="434"/>
      <point x="259" y="434" type="curve" smooth="yes"/>
      <point x="134" y="434"/>
      <point x="68" y="320"/>
      <point x="68" y="237" type="curve" smooth="yes"/>
      <point x="68" y="167"/>
      <point x="119" y="129"/>
    </contour>
  </outline>
</glyph>
<glyph name="h" format="2">
  <advance width="528"/>
  <unicode hex="0068"/>
  <guideline x="294" y="74" angle="0"/>
  <outline>
    <contour>
      <point x="13" y="-9" type="line"/>
      <point x="83" y="0" type="line"/>
      <point x="162" y="212"/>
      <point x="322" y="382"/>
      <point x="376" y="382" type="curve" smooth="yes"/>
      <point x="399" y="382"/>
      <point x="403" y="362"/>
      <point x="390" y="332" type="curve" smooth="yes"/>
      <point x="281" y="74" type="line" smooth="yes"/>
      <point x="259" y="22"/>
      <point x="279" y="-7"/>
      <point x="314" y="-7" type="curve" smooth="yes"/>
      <point x="355" y="-7"/>
      <point x="419" y="38"/>
      <point x="505" y="168" type="curve"/>
      <point x="489" y="178" type="line"/>
      <point x="433" y="92"/>
      <point x="381" y="43"/>
      <point x="358" y="43" type="curve" smooth="yes"/>
      <point x="345" y="43"/>
      <point x="340" y="57"/>
      <point x="350" y="82" type="curve" smooth="yes"/>
      <point x="463" y="352" type="line" smooth="yes"/>
      <point x="482" y="398"/>
      <point x="465" y="434"/>
      <point x="423" y="434" type="curve" smooth="yes"/>
      <point x="322" y="434"/>
      <point x="200" y="264"/>
      <point x="155" y="184" type="curve"/>
      <point x="151" y="184" type="line"/>
      <point x="320" y="625" type="line" smooth="yes"/>
      <point x="330" y="651"/>
      <point x="343" y="681"/>
      <point x="358" y="706" type="curve"/>
      <point x="346" y="712" type="line"/>
      <point x="300" y="693"/>
      <point x="250" y="681"/>
      <point x="196" y="673" type="curve"/>
      <point x="192" y="662" type="line"/>
      <point x="232" y="658" type="line" smooth="yes"/>
      <point x="261" y="655"/>
      <point x="269" y="649"/>
      <point x="262" y="631" type="curve" smooth="yes"/>
    </contour>
  </outline>
</glyph>
<glyph name="k" format="2">
  <advance width="505"/>
  <unicode hex="006B"/>
  <outline>
    <contour>
      <point x="13" y="-9" type="line"/>
      <point x="82" y="1" type="line"/>
      <point x="164" y="217" type="line"/>
      <point x="166" y="221" type="line"/>
      <point x="320" y="625" type="line" smooth="yes"/>
      <point x="330" y="651"/>
      <point x="343" y="681"/>
      <point x="358" y="706" type="curve"/>
      <point x="346" y="712" type="line"/>
      <point x="300" y="693"/>
      <point x="250" y="681"/>
      <point x="196" y="673" type="curve"/>
      <point x="192" y="662" type="line"/>
      <point x="232" y="658" type="line" smooth="yes"/>
      <point x="261" y="655"/>
      <point x="269" y="649"/>
      <point x="262" y="631" type="curve" smooth="yes"/>
    </contour>
    <contour>
      <point x="324" y="-7" type="curve" smooth="yes"/>
      <point x="370" y="-7"/>
      <point x="430" y="59"/>
      <point x="482" y="169" type="curve"/>
      <point x="465" y="177" type="line"/>
      <point x="421" y="92"/>
      <point x="379" y="43"/>
      <point x="350" y="43" type="curve" smooth="yes"/>
      <point x="331" y="43"/>
      <point x="314" y="65"/>
      <point x="297" y="115" type="curve" smooth="yes"/>
      <point x="270" y="192"/>
      <point x="243" y="234"/>
      <point x="195" y="234" type="curve" smooth="yes"/>
      <point x="169" y="234"/>
      <point x="140" y="219"/>
      <point x="107" y="184" type="curve"/>
      <point x="127" y="182" type="line"/>
      <point x="140" y="196"/>
      <point x="151" y="202"/>
      <point x="162" y="202" type="curve" smooth="yes"/>
      <point x="193" y="202"/>
      <point x="209" y="145"/>
      <point x="220" y="114" type="curve" smooth="yes"/>
      <point x="251" y="31"/>
      <point x="275" y="-7"/>
    </contour>
    <contour>
      <point x="174" y="223" type="line"/>
      <point x="242" y="320"/>
      <point x="314" y="384"/>
      <point x="358" y="384" type="curve" smooth="yes"/>
      <point x="379" y="384"/>
      <point x="389" y="371"/>
      <point x="389" y="355" type="curve" smooth="yes"/>
      <point x="389" y="297"/>
      <point x="292" y="228"/>
      <point x="212" y="226" type="curve"/>
      <point x="224" y="209" type="line"/>
      <point x="349" y="214"/>
      <point x="456" y="331"/>
      <point x="456" y="385" type="curve" smooth="yes"/>
      <point x="456" y="419"/>
      <point x="433" y="434"/>
      <point x="396" y="434" type="curve" smooth="yes"/>
      <point x="313" y="434"/>
      <point x="216" y="318"/>
      <point x="161" y="229" type="curve"/>
    </contour>
  </outline>
</glyph>
<glyph name="l" format="2">
  <advance width="298"/>
  <unicode hex="006C"/>
  <outline>
    <contour>
      <point x="79" y="-7" type="curve" smooth="yes"/>
      <point x="120" y="-7"/>
      <point x="184" y="38"/>
      <point x="270" y="168" type="curve"/>
      <point x="254" y="178" type="line"/>
      <point x="198" y="92"/>
      <point x="145" y="43"/>
      <point x="122" y="43" type="curve" smooth="yes"/>
      <point x="112" y="43"/>
      <point x="105" y="56"/>
      <point x="116" y="85" type="curve" smooth="yes"/>
      <point x="325" y="625" type="line" smooth="yes"/>
      <point x="335" y="651"/>
      <point x="348" y="681"/>
      <point x="363" y="706" type="curve"/>
      <point x="351" y="712" type="line"/>
      <point x="305" y="693"/>
      <point x="250" y="681"/>
      <point x="196" y="673" type="curve"/>
      <point x="192" y="662" type="line"/>
      <point x="232" y="658" type="line" smooth="yes"/>
      <point x="261" y="655"/>
      <point x="269" y="649"/>
      <point x="262" y="631" type="curve" smooth="yes"/>
      <point x="40" y="59" type="line" smooth="yes"/>
      <point x="26" y="23"/>
      <point x="45" y="-7"/>
    </contour>
  </outline>
</glyph>
<glyph name="m" format="2">
  <advance width="769"/>
  <unicode hex="006D"/>
  <outline>
    <contour>
      <point x="38" y="-9" type="line"/>
      <point x="108" y="0" type="line"/>
      <point x="187" y="212"/>
      <point x="338" y="382"/>
      <point x="390" y="382" type="curve" smooth="yes"/>
      <point x="421" y="382"/>
      <point x="416" y="355"/>
      <point x="406" y="332" type="curve" smooth="yes"/>
      <point x="265" y="-9" type="line"/>
      <point x="335" y="0" type="line"/>
      <point x="414" y="212"/>
      <point x="563" y="382"/>
      <point x="617" y="382" type="curve" smooth="yes"/>
      <point x="640" y="382"/>
      <point x="644" y="362"/>
      <point x="631" y="332" type="curve" smooth="yes"/>
      <point x="522" y="74" type="line" smooth="yes"/>
      <point x="500" y="22"/>
      <point x="520" y="-7"/>
      <point x="555" y="-7" type="curve" smooth="yes"/>
      <point x="596" y="-7"/>
      <point x="660" y="38"/>
      <point x="746" y="168" type="curve"/>
      <point x="730" y="178" type="line"/>
      <point x="674" y="92"/>
      <point x="622" y="43"/>
      <point x="599" y="43" type="curve" smooth="yes"/>
      <point x="586" y="43"/>
      <point x="581" y="57"/>
      <point x="591" y="82" type="curve" smooth="yes"/>
      <point x="704" y="352" type="line" smooth="yes"/>
      <point x="723" y="398"/>
      <point x="704" y="434"/>
      <point x="662" y="434" type="curve" smooth="yes"/>
      <point x="561" y="434"/>
      <point x="449" y="264"/>
      <point x="404" y="184" type="curve"/>
      <point x="401" y="184" type="line"/>
      <point x="478" y="356" type="line" smooth="yes"/>
      <point x="499" y="403"/>
      <point x="474" y="434"/>
      <point x="438" y="434" type="curve" smooth="yes"/>
      <point x="337" y="434"/>
      <point x="223" y="264"/>
      <point x="178" y="184" type="curve"/>
      <point x="176" y="184" type="line"/>
      <point x="246" y="354" type="line" smooth="yes"/>
      <point x="268" y="407"/>
      <point x="241" y="434"/>
      <point x="208" y="434" type="curve" smooth="yes"/>
      <point x="159" y="434"/>
      <point x="109" y="377"/>
      <point x="29" y="260" type="curve"/>
      <point x="45" y="251" type="line"/>
      <point x="89" y="314"/>
      <point x="148" y="384"/>
      <point x="172" y="384" type="curve" smooth="yes"/>
      <point x="182" y="384"/>
      <point x="190" y="372"/>
      <point x="177" y="339" type="curve" smooth="yes"/>
    </contour>
  </outline>
</glyph>
<glyph name="n" format="2">
  <advance width="553"/>
  <unicode hex="006E"/>
  <anchor x="362" y="470" name="top"/>
  <outline>
    <contour>
      <point x="38" y="-9" type="line"/>
      <point x="108" y="0" type="line"/>
      <point x="187" y="212"/>
      <point x="347" y="382"/>
      <point x="401" y="382" type="curve" smooth="yes"/>
      <point x="424" y="382"/>
      <point x="428" y="362"/>
      <point x="415" y="332" type="curve" smooth="yes"/>
      <point x="306" y="74" type="line" smooth="yes"/>
      <point x="284" y="22"/>
      <point x="304" y="-7"/>
      <point x="339" y="-7" type="curve" smooth="yes"/>
      <point x="380" y="-7"/>
      <point x="444" y="38"/>
      <point x="530" y="168" type="curve"/>
      <point x="514" y="178" type="line"/>
      <point x="458" y="92"/>
      <point x="406" y="43"/>
      <point x="383" y="43" type="curve" smooth="yes"/>
      <point x="370" y="43"/>
      <point x="365" y="57"/>
      <point x="375" y="82" type="curve" smooth="yes"/>
      <point x="488" y="352" type="line" smooth="yes"/>
      <point x="507" y="398"/>
      <point x="490" y="434"/>
      <point x="448" y="434" type="curve" smooth="yes"/>
      <point x="347" y="434"/>
      <point x="226" y="264"/>
      <point x="181" y="184" type="curve"/>
      <point x="176" y="184" type="line"/>
      <point x="246" y="354" type="line" smooth="yes"/>
      <point x="266" y="402"/>
      <point x="247" y="434"/>
      <point x="208" y="434" type="curve" smooth="yes"/>
      <point x="159" y="434"/>
      <point x="109" y="377"/>
      <point x="29" y="260" type="curve"/>
      <point x="45" y="251" type="line"/>
      <point x="89" y="314"/>
      <point x="148" y="384"/>
      <point x="172" y="384" type="curve" smooth="yes"/>
      <point x="182" y="384"/>
      <point x="190" y="372"/>
      <point x="177" y="339" type="curve" smooth="yes"/>
    </contour>
  </outline>
</glyph>
<glyph name="p" format="2">
  <advance width="477"/>
  <unicode hex="0070"/>
  <outline>
    <contour>
      <point x="-145" y="-250" type="line"/>
      <point x="71" y="-250" type="line"/>
      <point x="77" y="-235" type="line"/>
      <point x="25" y="-224" type="line" smooth="yes"/>
      <point x="7" y="-220"/>
      <point x="4" y="-211"/>
      <point x="12" y="-192" type="curve" smooth="yes"/>
      <point x="157" y="170" type="line" smooth="yes"/>
      <point x="195" y="265"/>
      <point x="293" y="382"/>
      <point x="355" y="382" type="curve" smooth="yes"/>
      <point x="388" y="382"/>
      <point x="404" y="366"/>
      <point x="404" y="329" type="curve" smooth="yes"/>
      <point x="404" y="218"/>
      <point x="298" y="36"/>
      <point x="196" y="36" type="curve" smooth="yes"/>
      <point x="178" y="36"/>
      <point x="173" y="45"/>
      <point x="173" y="62" type="curve" smooth="yes"/>
      <point x="173" y="104"/>
      <point x="156" y="117"/>
      <point x="133" y="117" type="curve" smooth="yes"/>
      <point x="113" y="117"/>
      <point x="95" y="106"/>
      <point x="95" y="79" type="curve" smooth="yes"/>
      <point x="95" y="29"/>
      <point x="139" y="12"/>
      <point x="194" y="12" type="curve" smooth="yes"/>
      <point x="319" y="12"/>
      <point x="473" y="235"/>
      <point x="473" y="357" type="curve" smooth="yes"/>
      <point x="473" y="416"/>
      <point x="443" y="434"/>
      <point x="409" y="434" type="curve" smooth="yes"/>
      <point x="348" y="434"/>
      <point x="260" y="375"/>
      <point x="207" y="304" type="curve"/>
      <point x="202" y="304" type="line"/>
      <point x="264" y="465" type="line"/>
      <point x="173" y="369" type="line"/>
      <point x="-54" y="-192" type="line" smooth="yes"/>
      <point x="-62" y="-211"/>
      <point x="-71" y="-219"/>
      <point x="-93" y="-224" type="curve" smooth="yes"/>
      <point x="-139" y="-235" type="line"/>
    </contour>
    <contour>
      <point x="33" y="232" type="line"/>
      <point x="152" y="291"/>
      <point x="247" y="397"/>
      <point x="266" y="472" type="curve"/>
      <point x="269" y="482"/>
      <point x="260" y="487"/>
      <point x="248" y="487" type="curve" smooth="yes"/>
      <point x="236" y="487"/>
      <point x="224" y="482"/>
      <point x="220" y="472" type="curve" smooth="yes"/>
      <point x="188" y="394"/>
      <point x="145" y="320"/>
      <point x="24" y="248" type="curve"/>
    </contour>
  </outline>
</glyph>
<glyph name="q" format="2">
  <advance width="445"/>
  <unicode hex="0071"/>
  <outline>
    <contour>
      <point x="37" y="-250" type="line"/>
      <point x="253" y="-250" type="line"/>
      <point x="259" y="-235" type="line"/>
      <point x="210" y="-224" type="line" smooth="yes"/>
      <point x="192" y="-220"/>
      <point x="189" y="-211"/>
      <point x="197" y="-192" type="curve" smooth="yes"/>
      <point x="455" y="449" type="line"/>
      <point x="445" y="449" type="line"/>
      <point x="391" y="410" type="line"/>
      <point x="389" y="410" type="line"/>
      <point x="378" y="425"/>
      <point x="361" y="434"/>
      <point x="335" y="434" type="curve" smooth="yes"/>
      <point x="283" y="434"/>
      <point x="214" y="393"/>
      <point x="153" y="335" type="curve" smooth="yes"/>
      <point x="71" y="258"/>
      <point x="1" y="150"/>
      <point x="1" y="70" type="curve" smooth="yes"/>
      <point x="1" y="10"/>
      <point x="31" y="-8"/>
      <point x="65" y="-8" type="curve" smooth="yes"/>
      <point x="127" y="-8"/>
      <point x="195" y="41"/>
      <point x="243" y="95" type="curve"/>
      <point x="248" y="95" type="line"/>
      <point x="132" y="-192" type="line" smooth="yes"/>
      <point x="124" y="-211"/>
      <point x="115" y="-219"/>
      <point x="93" y="-224" type="curve" smooth="yes"/>
      <point x="43" y="-235" type="line"/>
    </contour>
    <contour>
      <point x="119" y="44" type="curve" smooth="yes"/>
      <point x="93" y="44"/>
      <point x="76" y="60"/>
      <point x="76" y="102" type="curve" smooth="yes"/>
      <point x="76" y="179"/>
      <point x="114" y="257"/>
      <point x="169" y="316" type="curve" smooth="yes"/>
      <point x="213" y="364"/>
      <point x="260" y="389"/>
      <point x="295" y="389" type="curve" smooth="yes"/>
      <point x="327" y="389"/>
      <point x="341" y="372"/>
      <point x="341" y="339" type="curve" smooth="yes"/>
      <point x="341" y="244"/>
      <point x="206" y="44"/>
    </contour>
  </outline>
</glyph>
<glyph name="r" format="2">
  <advance width="424"/>
  <unicode hex="0072"/>
  <anchor x="319" y="470" name="top"/>
  <outline>
    <contour>
      <point x="38" y="-9" type="line"/>
      <point x="109" y="0" type="line"/>
      <point x="185" y="188"/>
      <point x="293" y="380"/>
      <point x="361" y="380" type="curve" smooth="yes"/>
      <point x="370" y="380"/>
      <point x="376" y="373"/>
      <point x="378" y="357" type="curve" smooth="yes"/>
      <point x="380" y="340"/>
      <point x="393" y="328"/>
      <point x="415" y="328" type="curve" smooth="yes"/>
      <point x="440" y="328"/>
      <point x="462" y="348"/>
      <point x="462" y="382" type="curve" smooth="yes"/>
      <point x="462" y="412"/>
      <point x="442" y="434"/>
      <point x="406" y="434" type="curve" smooth="yes"/>
      <point x="311" y="434"/>
      <point x="221" y="264"/>
      <point x="179" y="184" type="curve"/>
      <point x="176" y="184" type="line"/>
      <point x="246" y="354" type="line" smooth="yes"/>
      <point x="266" y="402"/>
      <point x="247" y="434"/>
      <point x="208" y="434" type="curve" smooth="yes"/>
      <point x="159" y="434"/>
      <point x="109" y="377"/>
      <point x="29" y="260" type="curve"/>
      <point x="45" y="251" type="line"/>
      <point x="89" y="314"/>
      <point x="148" y="384"/>
      <point x="172" y="384" type="curve" smooth="yes"/>
      <point x="182" y="384"/>
      <point x="190" y="372"/>
      <point x="177" y="339" type="curve" smooth="yes"/>
    </contour>
  </outline>
</glyph>
<glyph name="s" format="2">
  <advance width="362"/>
  <unicode hex="0073"/>
  <anchor x="251" y="470" name="top"/>
  <outline>
    <contour>
      <point x="131" y="-8" type="curve" smooth="yes"/>
      <point x="201" y="-8"/>
      <point x="273" y="35"/>
      <point x="273" y="115" type="curve" smooth="yes"/>
      <point x="273" y="168"/>
      <point x="244" y="206"/>
      <point x="216" y="242" type="curve" smooth="yes"/>
      <point x="190" y="275"/>
      <point x="165" y="307"/>
      <point x="165" y="346" type="curve" smooth="yes"/>
      <point x="165" y="391"/>
      <point x="199" y="412"/>
      <point x="230" y="412" type="curve" smooth="yes"/>
      <point x="256" y="412"/>
      <point x="280" y="397"/>
      <point x="280" y="371" type="curve" smooth="yes"/>
      <point x="280" y="368"/>
      <point x="279" y="363"/>
      <point x="278" y="359" type="curve"/>
      <point x="277" y="354"/>
      <point x="276" y="349"/>
      <point x="276" y="346" type="curve" smooth="yes"/>
      <point x="276" y="326"/>
      <point x="287" y="311"/>
      <point x="312" y="311" type="curve" smooth="yes"/>
      <point x="337" y="311"/>
      <point x="348" y="327"/>
      <point x="348" y="355" type="curve" smooth="yes"/>
      <point x="348" y="407"/>
      <point x="295" y="434"/>
      <point x="239" y="434" type="curve" smooth="yes"/>
      <point x="175" y="434"/>
      <point x="108" y="400"/>
      <point x="108" y="328" type="curve" smooth="yes"/>
      <point x="108" y="279"/>
      <point x="136" y="242"/>
      <point x="163" y="206" type="curve" smooth="yes"/>
      <point x="189" y="172"/>
      <point x="214" y="139"/>
      <point x="214" y="97" type="curve" smooth="yes"/>
      <point x="214" y="39"/>
      <point x="174" y="15"/>
      <point x="129" y="15" type="curve" smooth="yes"/>
      <point x="86" y="15"/>
      <point x="56" y="32"/>
      <point x="56" y="64" type="curve" smooth="yes"/>
      <point x="56" y="77"/>
      <point x="65" y="85"/>
      <point x="73" y="94" type="curve" smooth="yes"/>
      <point x="80" y="102"/>
      <point x="87" y="111"/>
      <point x="87" y="125" type="curve" smooth="yes"/>
      <point x="87" y="150"/>
      <point x="67" y="165"/>
      <point x="46" y="165" type="curve" smooth="yes"/>
      <point x="24" y="165"/>
      <point x="1" y="148"/>
      <point x="1" y="109" type="curve" smooth="yes"/>
      <point x="1" y="24"/>
      <point x="62" y="-8"/>
    </contour>
  </outline>
</glyph>
<glyph name="t" format="2">
  <advance width="304"/>
  <unicode hex="0074"/>
  <outline>
    <contour>
      <point x="69" y="-8" type="curve" smooth="yes"/>
      <point x="119" y="-8"/>
      <point x="169" y="37"/>
      <point x="255" y="167" type="curve"/>
      <point x="239" y="177" type="line"/>
      <point x="185" y="94"/>
      <point x="135" y="42"/>
      <point x="114" y="42" type="curve" smooth="yes"/>
      <point x="102" y="42"/>
      <point x="94" y="53"/>
      <point x="104" y="79" type="curve" smooth="yes"/>
      <point x="232" y="398" type="line"/>
      <point x="314" y="398" type="line"/>
      <point x="325" y="426" type="line"/>
      <point x="243" y="426" type="line"/>
      <point x="279" y="515" type="line"/>
      <point x="210" y="506" type="line"/>
      <point x="178" y="426" type="line"/>
      <point x="101" y="426" type="line"/>
      <point x="90" y="398" type="line"/>
      <point x="165" y="398" type="line"/>
      <point x="30" y="58" type="line" smooth="yes"/>
      <point x="16" y="22"/>
      <point x="35" y="-8"/>
    </contour>
  </outline>
</glyph>
<glyph name="u" format="2">
  <advance width="548"/>
  <unicode hex="0075"/>
  <anchor x="358" y="470" name="top"/>
  <outline>
    <contour>
      <point x="104" y="-8" type="curve" smooth="yes"/>
      <point x="204" y="-8"/>
      <point x="323" y="162"/>
      <point x="367" y="242" type="curve"/>
      <point x="372" y="242" type="line"/>
      <point x="302" y="72" type="line" smooth="yes"/>
      <point x="282" y="24"/>
      <point x="301" y="-8"/>
      <point x="340" y="-8" type="curve" smooth="yes"/>
      <point x="389" y="-8"/>
      <point x="439" y="49"/>
      <point x="519" y="166" type="curve"/>
      <point x="503" y="175" type="line"/>
      <point x="459" y="112"/>
      <point x="400" y="42"/>
      <point x="376" y="42" type="curve" smooth="yes"/>
      <point x="366" y="42"/>
      <point x="358" y="54"/>
      <point x="371" y="87" type="curve" smooth="yes"/>
      <point x="510" y="435" type="line"/>
      <point x="440" y="426" type="line"/>
      <point x="362" y="214"/>
      <point x="205" y="44"/>
      <point x="152" y="44" type="curve" smooth="yes"/>
      <point x="129" y="44"/>
      <point x="125" y="64"/>
      <point x="138" y="94" type="curve" smooth="yes"/>
      <point x="247" y="353" type="line" smooth="yes"/>
      <point x="269" y="405"/>
      <point x="249" y="434"/>
      <point x="214" y="434" type="curve" smooth="yes"/>
      <point x="173" y="434"/>
      <point x="109" y="388"/>
      <point x="23" y="258" type="curve"/>
      <point x="39" y="248" type="line"/>
      <point x="95" y="334"/>
      <point x="147" y="384"/>
      <point x="170" y="384" type="curve" smooth="yes"/>
      <point x="183" y="384"/>
      <point x="188" y="370"/>
      <point x="178" y="345" type="curve" smooth="yes"/>
      <point x="65" y="74" type="line" smooth="yes"/>
      <point x="46" y="28"/>
      <point x="63" y="-8"/>
    </contour>
  </outline>
</glyph>
<glyph name="v" format="2">
  <advance width="506"/>
  <unicode hex="0076"/>
  <outline>
    <contour>
      <point x="201" y="-8" type="curve" smooth="yes"/>
      <point x="365" y="-8"/>
      <point x="490" y="217"/>
      <point x="490" y="368" type="curve" smooth="yes"/>
      <point x="490" y="421"/>
      <point x="468" y="450"/>
      <point x="436" y="450" type="curve" smooth="yes"/>
      <point x="413" y="450"/>
      <point x="386" y="433"/>
      <point x="386" y="400" type="curve" smooth="yes"/>
      <point x="386" y="377"/>
      <point x="399" y="367"/>
      <point x="413" y="356" type="curve"/>
      <point x="428" y="343"/>
      <point x="445" y="329"/>
      <point x="445" y="293" type="curve" smooth="yes"/>
      <point x="445" y="150"/>
      <point x="325" y="43"/>
      <point x="245" y="43" type="curve" smooth="yes"/>
      <point x="204" y="43"/>
      <point x="173" y="72"/>
      <point x="173" y="138" type="curve" smooth="yes"/>
      <point x="173" y="264"/>
      <point x="236" y="310"/>
      <point x="312" y="405" type="curve" smooth="yes"/>
      <point x="324" y="420"/>
      <point x="333" y="423"/>
      <point x="333" y="429" type="curve" smooth="yes"/>
      <point x="333" y="435"/>
      <point x="330" y="439"/>
      <point x="323" y="439" type="curve" smooth="yes"/>
      <point x="314" y="439"/>
      <point x="311" y="433"/>
      <point x="302" y="426" type="curve" smooth="yes"/>
      <point x="289" y="416"/>
      <point x="274" y="413"/>
      <point x="257" y="413" type="curve" smooth="yes"/>
      <point x="233" y="413"/>
      <point x="207" y="420"/>
      <point x="188" y="426" type="curve" smooth="yes"/>
      <point x="174" y="430"/>
      <point x="159" y="434"/>
      <point x="143" y="434" type="curve" smooth="yes"/>
      <point x="82" y="434"/>
      <point x="29" y="388"/>
      <point x="29" y="327" type="curve" smooth="yes"/>
      <point x="29" y="295"/>
      <point x="47" y="264"/>
      <point x="75" y="264" type="curve" smooth="yes"/>
      <point x="94" y="264"/>
      <point x="109" y="277"/>
      <point x="109" y="297" type="curve" smooth="yes"/>
      <point x="109" y="315"/>
      <point x="99" y="323"/>
      <point x="81" y="329" type="curve"/>
      <point x="69" y="334"/>
      <point x="57" y="338"/>
      <point x="57" y="351" type="curve" smooth="yes"/>
      <point x="57" y="366"/>
      <point x="77" y="378"/>
      <point x="109" y="378" type="curve" smooth="yes"/>
      <point x="124" y="378"/>
      <point x="143" y="375"/>
      <point x="163" y="370" type="curve" smooth="yes"/>
      <point x="180" y="365"/>
      <point x="196" y="359"/>
      <point x="216" y="359" type="curve" smooth="yes"/>
      <point x="223" y="359"/>
      <point x="230" y="360"/>
      <point x="239" y="362" type="curve"/>
      <point x="241" y="359" type="line"/>
      <point x="199" y="301"/>
      <point x="109" y="225"/>
      <point x="109" y="91" type="curve" smooth="yes"/>
      <point x="109" y="30"/>
      <point x="141" y="-8"/>
    </contour>
  </outline>
</glyph>
<glyph name="w" format="2">
  <advance width="678"/>
  <unicode hex="0077"/>
  <guideline x="377" y="219" angle="0" identifier="7INai72ojx"/>
  <anchor x="444" y="470" name="top"/>
  <outline>
    <contour>
      <point x="204" y="-8" type="curve" smooth="yes"/>
      <point x="346" y="-8"/>
      <point x="505" y="214"/>
      <point x="505" y="332" type="curve" smooth="yes"/>
      <point x="505" y="365"/>
      <point x="490" y="386"/>
      <point x="460" y="386" type="curve" smooth="yes"/>
      <point x="395" y="386"/>
      <point x="307" y="270"/>
      <point x="307" y="134" type="curve" smooth="yes"/>
      <point x="307" y="32"/>
      <point x="342" y="-8"/>
      <point x="395" y="-8" type="curve" smooth="yes"/>
      <point x="504" y="-8"/>
      <point x="658" y="169"/>
      <point x="658" y="368" type="curve" smooth="yes"/>
      <point x="658" y="421"/>
      <point x="636" y="450"/>
      <point x="604" y="450" type="curve" smooth="yes"/>
      <point x="581" y="450"/>
      <point x="554" y="433"/>
      <point x="554" y="400" type="curve" smooth="yes"/>
      <point x="554" y="377"/>
      <point x="567" y="367"/>
      <point x="581" y="356" type="curve"/>
      <point x="596" y="343"/>
      <point x="613" y="329"/>
      <point x="613" y="293" type="curve" smooth="yes"/>
      <point x="613" y="180"/>
      <point x="535" y="45"/>
      <point x="424" y="45" type="curve" smooth="yes"/>
      <point x="371" y="45"/>
      <point x="351" y="89"/>
      <point x="351" y="165" type="curve" smooth="yes"/>
      <point x="351" y="249"/>
      <point x="410" y="355"/>
      <point x="454" y="355" type="curve" smooth="yes"/>
      <point x="472" y="355"/>
      <point x="478" y="343"/>
      <point x="478" y="316" type="curve" smooth="yes"/>
      <point x="478" y="236"/>
      <point x="356" y="43"/>
      <point x="245" y="43" type="curve" smooth="yes"/>
      <point x="204" y="43"/>
      <point x="173" y="72"/>
      <point x="173" y="138" type="curve" smooth="yes"/>
      <point x="173" y="264"/>
      <point x="236" y="310"/>
      <point x="312" y="405" type="curve" smooth="yes"/>
      <point x="324" y="420"/>
      <point x="333" y="423"/>
      <point x="333" y="429" type="curve" smooth="yes"/>
      <point x="333" y="435"/>
      <point x="330" y="439"/>
      <point x="323" y="439" type="curve" smooth="yes"/>
      <point x="314" y="439"/>
      <point x="311" y="433"/>
      <point x="302" y="426" type="curve" smooth="yes"/>
      <point x="289" y="416"/>
      <point x="274" y="413"/>
      <point x="257" y="413" type="curve" smooth="yes"/>
      <point x="233" y="413"/>
      <point x="207" y="420"/>
      <point x="188" y="426" type="curve" smooth="yes"/>
      <point x="174" y="430"/>
      <point x="159" y="434"/>
      <point x="143" y="434" type="curve" smooth="yes"/>
      <point x="82" y="434"/>
      <point x="29" y="388"/>
      <point x="29" y="327" type="curve" smooth="yes"/>
      <point x="29" y="295"/>
      <point x="47" y="264"/>
      <point x="75" y="264" type="curve" smooth="yes"/>
      <point x="94" y="264"/>
      <point x="109" y="277"/>
      <point x="109" y="297" type="curve" smooth="yes"/>
      <point x="109" y="315"/>
      <point x="99" y="323"/>
      <point x="81" y="329" type="curve"/>
      <point x="69" y="334"/>
      <point x="57" y="338"/>
      <point x="57" y="351" type="curve" smooth="yes"/>
      <point x="57" y="366"/>
      <point x="77" y="378"/>
      <point x="109" y="378" type="curve" smooth="yes"/>
      <point x="124" y="378"/>
      <point x="143" y="375"/>
      <point x="163" y="370" type="curve"/>
      <point x="180" y="365"/>
      <point x="196" y="359"/>
      <point x="216" y="359" type="curve" smooth="yes"/>
      <point x="223" y="359"/>
      <point x="230" y="360"/>
      <point x="239" y="362" type="curve"/>
      <point x="241" y="359" type="line"/>
      <point x="199" y="301"/>
      <point x="109" y="225"/>
      <point x="109" y="91" type="curve" smooth="yes"/>
      <point x="109" y="30"/>
      <point x="141" y="-8"/>
    </contour>
  </outline>
</glyph>
<glyph name="x" format="2">
  <advance width="553"/>
  <unicode hex="0078"/>
  <outline>
    <contour>
      <point x="298" y="-7" type="curve" smooth="yes"/>
      <point x="374" y="-7"/>
      <point x="451" y="80"/>
      <point x="504" y="166" type="curve"/>
      <point x="486" y="177" type="line"/>
      <point x="436" y="94"/>
      <point x="380" y="43"/>
      <point x="334" y="43" type="curve" smooth="yes"/>
      <point x="310" y="43"/>
      <point x="293" y="66"/>
      <point x="293" y="132" type="curve" smooth="yes"/>
      <point x="293" y="302"/>
      <point x="402" y="393"/>
      <point x="456" y="393" type="curve" smooth="yes"/>
      <point x="473" y="393"/>
      <point x="475" y="379"/>
      <point x="477" y="364" type="curve" smooth="yes"/>
      <point x="479" y="347"/>
      <point x="482" y="329"/>
      <point x="508" y="329" type="curve" smooth="yes"/>
      <point x="530" y="329"/>
      <point x="545" y="343"/>
      <point x="545" y="372" type="curve" smooth="yes"/>
      <point x="545" y="413"/>
      <point x="515" y="434"/>
      <point x="481" y="434" type="curve" smooth="yes"/>
      <point x="393" y="434"/>
      <point x="235" y="278"/>
      <point x="235" y="78" type="curve" smooth="yes"/>
      <point x="235" y="23"/>
      <point x="259" y="-7"/>
    </contour>
    <contour>
      <point x="72" y="-8" type="curve" smooth="yes"/>
      <point x="160" y="-8"/>
      <point x="318" y="148"/>
      <point x="318" y="348" type="curve" smooth="yes"/>
      <point x="318" y="403"/>
      <point x="294" y="433"/>
      <point x="255" y="433" type="curve" smooth="yes"/>
      <point x="179" y="433"/>
      <point x="102" y="346"/>
      <point x="49" y="260" type="curve"/>
      <point x="67" y="249" type="line"/>
      <point x="117" y="332"/>
      <point x="173" y="383"/>
      <point x="219" y="383" type="curve" smooth="yes"/>
      <point x="243" y="383"/>
      <point x="260" y="360"/>
      <point x="260" y="294" type="curve" smooth="yes"/>
      <point x="260" y="124"/>
      <point x="151" y="33"/>
      <point x="97" y="33" type="curve" smooth="yes"/>
      <point x="80" y="33"/>
      <point x="78" y="47"/>
      <point x="76" y="62" type="curve" smooth="yes"/>
      <point x="74" y="79"/>
      <point x="71" y="97"/>
      <point x="45" y="97" type="curve" smooth="yes"/>
      <point x="23" y="97"/>
      <point x="8" y="83"/>
      <point x="8" y="54" type="curve" smooth="yes"/>
      <point x="8" y="13"/>
      <point x="38" y="-8"/>
    </contour>
  </outline>
</glyph>
<glyph name="y" format="2">
  <advance width="458"/>
  <unicode hex="0079"/>
  <anchor x="235" y="470" name="top"/>
  <outline>
    <contour>
      <point x="-79" y="-284" type="curve" smooth="yes"/>
      <point x="66" y="-284"/>
      <point x="209" y="-113"/>
      <point x="286" y="-2" type="curve" smooth="yes"/>
      <point x="376" y="127"/>
      <point x="438" y="274"/>
      <point x="438" y="368" type="curve" smooth="yes"/>
      <point x="438" y="421"/>
      <point x="417" y="450"/>
      <point x="386" y="450" type="curve" smooth="yes"/>
      <point x="363" y="450"/>
      <point x="333" y="433"/>
      <point x="333" y="400" type="curve" smooth="yes"/>
      <point x="333" y="378"/>
      <point x="346" y="368"/>
      <point x="360" y="358" type="curve" smooth="yes"/>
      <point x="376" y="347"/>
      <point x="394" y="334"/>
      <point x="394" y="297" type="curve" smooth="yes"/>
      <point x="394" y="218"/>
      <point x="324" y="80"/>
      <point x="268" y="23" type="curve"/>
      <point x="264" y="25" type="line"/>
      <point x="281" y="70"/>
      <point x="292" y="131"/>
      <point x="292" y="188" type="curve" smooth="yes"/>
      <point x="292" y="313"/>
      <point x="241" y="434"/>
      <point x="138" y="434" type="curve" smooth="yes"/>
      <point x="70" y="434"/>
      <point x="33" y="384"/>
      <point x="33" y="332" type="curve" smooth="yes"/>
      <point x="33" y="300"/>
      <point x="48" y="266"/>
      <point x="79" y="246" type="curve"/>
      <point x="86" y="256" type="line"/>
      <point x="65" y="276"/>
      <point x="56" y="302"/>
      <point x="56" y="326" type="curve" smooth="yes"/>
      <point x="56" y="368"/>
      <point x="82" y="400"/>
      <point x="128" y="400" type="curve" smooth="yes"/>
      <point x="189" y="400"/>
      <point x="226" y="325"/>
      <point x="226" y="191" type="curve" smooth="yes"/>
      <point x="226" y="-2"/>
      <point x="92" y="-262"/>
      <point x="-75" y="-262" type="curve" smooth="yes"/>
      <point x="-103" y="-262"/>
      <point x="-105" y="-236"/>
      <point x="-110" y="-210" type="curve" smooth="yes"/>
      <point x="-115" y="-183"/>
      <point x="-121" y="-155"/>
      <point x="-158" y="-155" type="curve" smooth="yes"/>
      <point x="-183" y="-155"/>
      <point x="-203" y="-171"/>
      <point x="-203" y="-202" type="curve" smooth="yes"/>
      <point x="-203" y="-253"/>
      <point x="-133" y="-284"/>
    </contour>
  </outline>
</glyph>
<glyph name="z" format="2">
  <advance width="401"/>
  <unicode hex="007A"/>
  <anchor x="254" y="470" name="top"/>
  <outline>
    <contour>
      <point x="-28" y="-6" type="curve" smooth="yes"/>
      <point x="-23" y="-6"/>
      <point x="-19" y="-4"/>
      <point x="-15" y="1" type="curve" smooth="yes"/>
      <point x="-2" y="17"/>
      <point x="20" y="35"/>
      <point x="44" y="35" type="curve" smooth="yes"/>
      <point x="67" y="35"/>
      <point x="88" y="27"/>
      <point x="112" y="18" type="curve" smooth="yes"/>
      <point x="142" y="7"/>
      <point x="176" y="-6"/>
      <point x="219" y="-6" type="curve" smooth="yes"/>
      <point x="267" y="-6"/>
      <point x="285" y="3"/>
      <point x="311" y="30" type="curve" smooth="yes"/>
      <point x="334" y="54"/>
      <point x="347" y="81"/>
      <point x="347" y="108" type="curve" smooth="yes"/>
      <point x="347" y="135"/>
      <point x="333" y="168"/>
      <point x="296" y="168" type="curve" smooth="yes"/>
      <point x="265" y="168"/>
      <point x="253" y="148"/>
      <point x="253" y="125" type="curve" smooth="yes"/>
      <point x="253" y="106"/>
      <point x="264" y="94"/>
      <point x="275" y="84" type="curve"/>
      <point x="285" y="74"/>
      <point x="294" y="66"/>
      <point x="294" y="54" type="curve" smooth="yes"/>
      <point x="294" y="36"/>
      <point x="281" y="31"/>
      <point x="270" y="31" type="curve" smooth="yes"/>
      <point x="237" y="31"/>
      <point x="207" y="46"/>
      <point x="178" y="61" type="curve" smooth="yes"/>
      <point x="148" y="77"/>
      <point x="119" y="92"/>
      <point x="86" y="92" type="curve" smooth="yes"/>
      <point x="63" y="92"/>
      <point x="36" y="82"/>
      <point x="12" y="61" type="curve"/>
      <point x="-24" y="-1" type="line"/>
      <point x="404" y="414" type="line"/>
      <point x="385" y="432" type="line"/>
      <point x="-11" y="48" type="line" smooth="yes"/>
      <point x="-34" y="26"/>
      <point x="-47" y="22"/>
      <point x="-47" y="13" type="curve" smooth="yes"/>
      <point x="-47" y="7"/>
      <point x="-38" y="-6"/>
    </contour>
    <contour>
      <point x="108" y="295" type="curve" smooth="yes"/>
      <point x="128" y="295"/>
      <point x="143" y="309"/>
      <point x="143" y="329" type="curve" smooth="yes"/>
      <point x="143" y="344"/>
      <point x="130" y="350"/>
      <point x="117" y="356" type="curve" smooth="yes"/>
      <point x="107" y="361"/>
      <point x="98" y="366"/>
      <point x="98" y="377" type="curve" smooth="yes"/>
      <point x="98" y="386"/>
      <point x="105" y="395"/>
      <point x="118" y="395" type="curve" smooth="yes"/>
      <point x="145" y="395"/>
      <point x="168" y="381"/>
      <point x="190" y="367" type="curve" smooth="yes"/>
      <point x="213" y="353"/>
      <point x="234" y="338"/>
      <point x="260" y="338" type="curve" smooth="yes"/>
      <point x="280" y="338"/>
      <point x="301" y="346"/>
      <point x="327" y="364" type="curve"/>
      <point x="366" y="377" type="line"/>
      <point x="378" y="389"/>
      <point x="391" y="399"/>
      <point x="406" y="410" type="curve" smooth="yes"/>
      <point x="419" y="420"/>
      <point x="396" y="434"/>
      <point x="389" y="434" type="curve" smooth="yes"/>
      <point x="381" y="434"/>
      <point x="374" y="426"/>
      <point x="365" y="417" type="curve" smooth="yes"/>
      <point x="345" y="397"/>
      <point x="327" y="390"/>
      <point x="308" y="390" type="curve" smooth="yes"/>
      <point x="287" y="390"/>
      <point x="265" y="398"/>
      <point x="240" y="410" type="curve" smooth="yes"/>
      <point x="216" y="421"/>
      <point x="189" y="434"/>
      <point x="155" y="434" type="curve" smooth="yes"/>
      <point x="133" y="434"/>
      <point x="110" y="421"/>
      <point x="90" y="401" type="curve" smooth="yes"/>
      <point x="75" y="386"/>
      <point x="63" y="367"/>
      <point x="63" y="347" type="curve" smooth="yes"/>
      <point x="63" y="314"/>
      <point x="79" y="295"/>
    </contour>
  </outline>
</glyph>
<glyph name="braceleft" format="2">
  <advance width="353"/>
  <unicode hex="007B"/>
  <outline>
    <contour>
      <point x="135" y="-215" type="curve"/>
      <point x="145" y="-190" type="line"/>
      <point x="74" y="-188"/>
      <point x="36" y="-166"/>
      <point x="36" y="-116" type="curve" smooth="yes"/>
      <point x="36" y="-77"/>
      <point x="61" y="-25"/>
      <point x="89" y="26" type="curve" smooth="yes"/>
      <point x="122" y="85"/>
      <point x="158" y="145"/>
      <point x="158" y="183" type="curve" smooth="yes"/>
      <point x="158" y="229"/>
      <point x="151" y="255"/>
      <point x="121" y="264" type="curve"/>
      <point x="121" y="265" type="line"/>
      <point x="241" y="283"/>
      <point x="233" y="326"/>
      <point x="282" y="510" type="curve" smooth="yes"/>
      <point x="311" y="618"/>
      <point x="347" y="719"/>
      <point x="512" y="719" type="curve"/>
      <point x="522" y="744" type="line"/>
      <point x="242" y="744"/>
      <point x="232" y="621"/>
      <point x="209" y="476" type="curve" smooth="yes"/>
      <point x="189" y="349"/>
      <point x="181" y="279"/>
      <point x="52" y="279" type="curve"/>
      <point x="41" y="250" type="line"/>
      <point x="83" y="250"/>
      <point x="114" y="236"/>
      <point x="114" y="200" type="curve" smooth="yes"/>
      <point x="114" y="168"/>
      <point x="83" y="120"/>
      <point x="48" y="68" type="curve" smooth="yes"/>
      <point x="7" y="6"/>
      <point x="-37" y="-62"/>
      <point x="-37" y="-119" type="curve" smooth="yes"/>
      <point x="-37" y="-202"/>
      <point x="54" y="-215"/>
    </contour>
  </outline>
</glyph>
<glyph name="bar" format="2">
  <advance width="335"/>
  <unicode hex="007C"/>
  <outline>
    <contour>
      <point x="177" y="711" type="line"/>
      <point x="177" y="-250" type="line"/>
      <point x="218" y="-250" type="line"/>
      <point x="218" y="711" type="line"/>
    </contour>
  </outline>
</glyph>
<glyph name="braceright" format="2">
  <advance width="353"/>
  <unicode hex="007D"/>
  <outline>
    <contour>
      <point x="260" y="744" type="curve"/>
      <point x="250" y="719" type="line"/>
      <point x="321" y="717"/>
      <point x="359" y="695"/>
      <point x="359" y="645" type="curve" smooth="yes"/>
      <point x="359" y="606"/>
      <point x="334" y="554"/>
      <point x="306" y="503" type="curve" smooth="yes"/>
      <point x="273" y="444"/>
      <point x="237" y="384"/>
      <point x="237" y="346" type="curve" smooth="yes"/>
      <point x="237" y="300"/>
      <point x="244" y="274"/>
      <point x="274" y="265" type="curve"/>
      <point x="274" y="264" type="line"/>
      <point x="154" y="246"/>
      <point x="162" y="203"/>
      <point x="113" y="19" type="curve" smooth="yes"/>
      <point x="84" y="-89"/>
      <point x="48" y="-190"/>
      <point x="-117" y="-190" type="curve"/>
      <point x="-127" y="-215" type="line"/>
      <point x="153" y="-215"/>
      <point x="163" y="-92"/>
      <point x="186" y="53" type="curve" smooth="yes"/>
      <point x="206" y="180"/>
      <point x="214" y="250"/>
      <point x="343" y="250" type="curve"/>
      <point x="354" y="279" type="line"/>
      <point x="312" y="279"/>
      <point x="281" y="293"/>
      <point x="281" y="329" type="curve" smooth="yes"/>
      <point x="281" y="361"/>
      <point x="312" y="409"/>
      <point x="347" y="461" type="curve" smooth="yes"/>
      <point x="388" y="523"/>
      <point x="432" y="591"/>
      <point x="432" y="648" type="curve" smooth="yes"/>
      <point x="432" y="731"/>
      <point x="341" y="744"/>
    </contour>
  </outline>
</glyph>
<glyph name="exclamdown" format="2">
  <advance width="222"/>
  <unicode hex="00A1"/>
  <outline>
    <contour>
      <point x="152" y="289" type="line"/>
      <point x="125" y="289" type="line"/>
      <point x="-92" y="-170" type="line"/>
      <point x="-2" y="-170" type="line"/>
    </contour>
    <contour>
      <point x="203" y="495" type="curve" smooth="yes"/>
      <point x="171" y="495"/>
      <point x="145" y="469"/>
      <point x="145" y="439" type="curve" smooth="yes"/>
      <point x="145" y="407"/>
      <point x="171" y="381"/>
      <point x="203" y="381" type="curve" smooth="yes"/>
      <point x="233" y="381"/>
      <point x="259" y="407"/>
      <point x="259" y="439" type="curve" smooth="yes"/>
      <point x="259" y="469"/>
      <point x="233" y="495"/>
    </contour>
  </outline>
</glyph>
<glyph name="cent" format="2">
  <advance width="368"/>
  <unicode hex="00A2"/>
  <outline>
    <contour>
      <point x="-17" y="-85" type="line"/>
      <point x="7" y="-97" type="line"/>
      <point x="363" y="514" type="line"/>
      <point x="340" y="526" type="line"/>
    </contour>
    <component base="c"/>
  </outline>
</glyph>
<glyph name="sterling" format="2">
  <advance width="639"/>
  <unicode hex="00A3"/>
  <outline>
    <contour>
      <point x="-63" y="-99" type="curve" smooth="yes"/>
      <point x="-21" y="-99"/>
      <point x="78" y="10"/>
      <point x="139" y="80" type="curve" smooth="yes"/>
      <point x="223" y="177"/>
      <point x="316" y="301"/>
      <point x="397" y="426" type="curve" smooth="yes"/>
      <point x="494" y="577"/>
      <point x="570" y="654"/>
      <point x="650" y="654" type="curve" smooth="yes"/>
      <point x="672" y="654"/>
      <point x="697" y="648"/>
      <point x="697" y="633" type="curve" smooth="yes"/>
      <point x="697" y="621"/>
      <point x="689" y="614"/>
      <point x="681" y="606" type="curve" smooth="yes"/>
      <point x="673" y="597"/>
      <point x="663" y="588"/>
      <point x="663" y="568" type="curve" smooth="yes"/>
      <point x="663" y="551"/>
      <point x="682" y="535"/>
      <point x="703" y="535" type="curve" smooth="yes"/>
      <point x="746" y="535"/>
      <point x="769" y="563"/>
      <point x="769" y="606" type="curve" smooth="yes"/>
      <point x="769" y="651"/>
      <point x="729" y="681"/>
      <point x="660" y="681" type="curve" smooth="yes"/>
      <point x="490" y="681"/>
      <point x="386" y="561"/>
      <point x="278" y="402" type="curve" smooth="yes"/>
      <point x="219" y="316"/>
      <point x="191" y="256"/>
      <point x="156" y="198" type="curve" smooth="yes"/>
      <point x="117" y="133"/>
      <point x="74" y="70"/>
      <point x="-10" y="-28" type="curve"/>
      <point x="-3" y="-27" type="line"/>
      <point x="10" y="-9"/>
      <point x="72" y="72"/>
      <point x="136" y="72" type="curve" smooth="yes"/>
      <point x="171" y="72"/>
      <point x="187" y="39"/>
      <point x="204" y="3" type="curve" smooth="yes"/>
      <point x="225" y="-41"/>
      <point x="254" y="-89"/>
      <point x="332" y="-89" type="curve" smooth="yes"/>
      <point x="435" y="-89"/>
      <point x="527" y="17"/>
      <point x="527" y="88" type="curve" smooth="yes"/>
      <point x="527" y="111"/>
      <point x="511" y="121"/>
      <point x="493" y="121" type="curve" smooth="yes"/>
      <point x="469" y="121"/>
      <point x="442" y="104"/>
      <point x="442" y="76" type="curve" smooth="yes"/>
      <point x="442" y="66"/>
      <point x="444" y="58"/>
      <point x="446" y="49" type="curve" smooth="yes"/>
      <point x="448" y="39"/>
      <point x="450" y="30"/>
      <point x="450" y="20" type="curve" smooth="yes"/>
      <point x="450" y="-16"/>
      <point x="420" y="-52"/>
      <point x="372" y="-52" type="curve" smooth="yes"/>
      <point x="330" y="-52"/>
      <point x="313" y="-25"/>
      <point x="295" y="12" type="curve" smooth="yes"/>
      <point x="275" y="53"/>
      <point x="245" y="97"/>
      <point x="168" y="97" type="curve" smooth="yes"/>
      <point x="60" y="97"/>
      <point x="-89" y="12"/>
      <point x="-89" y="-71" type="curve" smooth="yes"/>
      <point x="-89" y="-94"/>
      <point x="-74" y="-99"/>
    </contour>
    <contour>
      <point x="52" y="247" type="line"/>
      <point x="425" y="247" type="line"/>
      <point x="448" y="280" type="line"/>
      <point x="74" y="280" type="line"/>
    </contour>
  </outline>
</glyph>
<glyph name="currency" format="2">
  <advance width="588"/>
  <unicode hex="00A4"/>
  <outline>
    <contour>
      <point x="130" y="128" type="line"/>
      <point x="222" y="213" type="line"/>
      <point x="248" y="191"/>
      <point x="283" y="178"/>
      <point x="325" y="178" type="curve" smooth="yes"/>
      <point x="364" y="178"/>
      <point x="409" y="193"/>
      <point x="439" y="212" type="curve"/>
      <point x="531" y="129" type="line"/>
      <point x="557" y="161" type="line"/>
      <point x="475" y="238" type="line"/>
      <point x="502" y="280"/>
      <point x="517" y="322"/>
      <point x="517" y="363" type="curve" smooth="yes"/>
      <point x="517" y="402"/>
      <point x="504" y="441"/>
      <point x="474" y="479" type="curve"/>
      <point x="554" y="553" type="line"/>
      <point x="528" y="580" type="line"/>
      <point x="441" y="503" type="line"/>
      <point x="419" y="520"/>
      <point x="375" y="535"/>
      <point x="339" y="535" type="curve" smooth="yes"/>
      <point x="296" y="535"/>
      <point x="251" y="523"/>
      <point x="224" y="500" type="curve"/>
      <point x="133" y="579" type="line"/>
      <point x="107" y="551" type="line"/>
      <point x="189" y="475" type="line"/>
      <point x="161" y="439"/>
      <point x="146" y="398"/>
      <point x="146" y="356" type="curve" smooth="yes"/>
      <point x="146" y="316"/>
      <point x="160" y="275"/>
      <point x="191" y="240" type="curve"/>
      <point x="104" y="160" type="line"/>
    </contour>
    <contour>
      <point x="330" y="213" type="curve" smooth="yes"/>
      <point x="268" y="213"/>
      <point x="206" y="261"/>
      <point x="206" y="357" type="curve" smooth="yes"/>
      <point x="206" y="426"/>
      <point x="242" y="501"/>
      <point x="331" y="501" type="curve" smooth="yes"/>
      <point x="405" y="501"/>
      <point x="455" y="442"/>
      <point x="455" y="357" type="curve" smooth="yes"/>
      <point x="455" y="262"/>
      <point x="393" y="213"/>
    </contour>
  </outline>
</glyph>
<glyph name="yen" format="2">
  <advance width="706"/>
  <unicode hex="00A5"/>
  <outline>
    <contour>
      <point x="189" y="325" type="line"/>
      <point x="619" y="325" type="line"/>
      <point x="631" y="355" type="line"/>
      <point x="201" y="355" type="line"/>
    </contour>
    <contour>
      <point x="140" y="202" type="line"/>
      <point x="570" y="202" type="line"/>
      <point x="582" y="232" type="line"/>
      <point x="152" y="232" type="line"/>
    </contour>
    <component base="Y"/>
  </outline>
</glyph>
<glyph name="section" format="2">
  <advance width="438"/>
  <unicode hex="00A7"/>
  <outline>
    <contour>
      <point x="188" y="88" type="line"/>
      <point x="289" y="84"/>
      <point x="405" y="162"/>
      <point x="405" y="272" type="curve" smooth="yes"/>
      <point x="405" y="321"/>
      <point x="368" y="370"/>
      <point x="337" y="407" type="curve" smooth="yes"/>
      <point x="305" y="444"/>
      <point x="278" y="482"/>
      <point x="278" y="532" type="curve" smooth="yes"/>
      <point x="278" y="604"/>
      <point x="329" y="669"/>
      <point x="399" y="669" type="curve" smooth="yes"/>
      <point x="438" y="669"/>
      <point x="455" y="660"/>
      <point x="455" y="646" type="curve" smooth="yes"/>
      <point x="455" y="638"/>
      <point x="450" y="630"/>
      <point x="444" y="622" type="curve" smooth="yes"/>
      <point x="438" y="612"/>
      <point x="432" y="602"/>
      <point x="432" y="588" type="curve" smooth="yes"/>
      <point x="432" y="574"/>
      <point x="442" y="563"/>
      <point x="464" y="563" type="curve" smooth="yes"/>
      <point x="502" y="563"/>
      <point x="523" y="594"/>
      <point x="523" y="629" type="curve" smooth="yes"/>
      <point x="523" y="665"/>
      <point x="490" y="695"/>
      <point x="414" y="695" type="curve" smooth="yes"/>
      <point x="312" y="695"/>
      <point x="203" y="620"/>
      <point x="203" y="514" type="curve" smooth="yes"/>
      <point x="203" y="449"/>
      <point x="243" y="409"/>
      <point x="278" y="370" type="curve" smooth="yes"/>
      <point x="308" y="335"/>
      <point x="335" y="300"/>
      <point x="335" y="253" type="curve" smooth="yes"/>
      <point x="335" y="180"/>
      <point x="274" y="115"/>
      <point x="206" y="113" type="curve"/>
    </contour>
    <contour>
      <point x="53" y="-199" type="curve" smooth="yes"/>
      <point x="174" y="-199"/>
      <point x="263" y="-109"/>
      <point x="263" y="-11" type="curve" smooth="yes"/>
      <point x="263" y="42"/>
      <point x="227" y="88"/>
      <point x="196" y="126" type="curve" smooth="yes"/>
      <point x="164" y="166"/>
      <point x="136" y="200"/>
      <point x="136" y="247" type="curve" smooth="yes"/>
      <point x="136" y="316"/>
      <point x="197" y="383"/>
      <point x="268" y="383" type="curve"/>
      <point x="272" y="408" type="line"/>
      <point x="172" y="408"/>
      <point x="67" y="339"/>
      <point x="67" y="241" type="curve" smooth="yes"/>
      <point x="67" y="186"/>
      <point x="104" y="129"/>
      <point x="138" y="89" type="curve" smooth="yes"/>
      <point x="169" y="52"/>
      <point x="191" y="10"/>
      <point x="191" y="-39" type="curve" smooth="yes"/>
      <point x="191" y="-114"/>
      <point x="131" y="-175"/>
      <point x="63" y="-175" type="curve" smooth="yes"/>
      <point x="23" y="-175"/>
      <point x="-9" y="-158"/>
      <point x="-9" y="-136" type="curve" smooth="yes"/>
      <point x="-9" y="-126"/>
      <point x="-1" y="-118"/>
      <point x="8" y="-107" type="curve" smooth="yes"/>
      <point x="18" y="-96"/>
      <point x="28" y="-83"/>
      <point x="28" y="-65" type="curve" smooth="yes"/>
      <point x="28" y="-49"/>
      <point x="18" y="-35"/>
      <point x="-5" y="-35" type="curve" smooth="yes"/>
      <point x="-49" y="-35"/>
      <point x="-78" y="-83"/>
      <point x="-78" y="-121" type="curve" smooth="yes"/>
      <point x="-78" y="-165"/>
      <point x="-34" y="-199"/>
    </contour>
  </outline>
</glyph>
<glyph name="copyright" format="2">
  <advance width="805"/>
  <unicode hex="00A9"/>
  <outline>
    <contour>
      <point x="455" y="3" type="curve" smooth="yes"/>
      <point x="669" y="3"/>
      <point x="797" y="173"/>
      <point x="797" y="353" type="curve" smooth="yes"/>
      <point x="797" y="531"/>
      <point x="664" y="680"/>
      <point x="455" y="680" type="curve" smooth="yes"/>
      <point x="243" y="680"/>
      <point x="112" y="510"/>
      <point x="112" y="332" type="curve" smooth="yes"/>
      <point x="112" y="153"/>
      <point x="235" y="3"/>
    </contour>
    <contour>
      <point x="459" y="152" type="curve" smooth="yes"/>
      <point x="479" y="152"/>
      <point x="509" y="158"/>
      <point x="534" y="163" type="curve" smooth="yes"/>
      <point x="558" y="168"/>
      <point x="579" y="172"/>
      <point x="594" y="172" type="curve" smooth="yes"/>
      <point x="599" y="172" type="line"/>
      <point x="599" y="202"/>
      <point x="607" y="237"/>
      <point x="614" y="273" type="curve"/>
      <point x="593" y="273" type="line"/>
      <point x="564" y="196"/>
      <point x="518" y="180"/>
      <point x="459" y="180" type="curve" smooth="yes"/>
      <point x="377" y="180"/>
      <point x="336" y="245"/>
      <point x="336" y="348" type="curve" smooth="yes"/>
      <point x="336" y="448"/>
      <point x="382" y="514"/>
      <point x="459" y="514" type="curve" smooth="yes"/>
      <point x="532" y="514"/>
      <point x="575" y="467"/>
      <point x="593" y="419" type="curve"/>
      <point x="613" y="419" type="line"/>
      <point x="600" y="469"/>
      <point x="602" y="497"/>
      <point x="605" y="514" type="curve"/>
      <point x="604" y="516" type="line"/>
      <point x="597" y="514"/>
      <point x="591" y="513"/>
      <point x="584" y="513" type="curve" smooth="yes"/>
      <point x="569" y="513"/>
      <point x="557" y="517"/>
      <point x="542" y="522" type="curve" smooth="yes"/>
      <point x="522" y="529"/>
      <point x="497" y="538"/>
      <point x="457" y="538" type="curve" smooth="yes"/>
      <point x="354" y="538"/>
      <point x="261" y="460"/>
      <point x="261" y="346" type="curve" smooth="yes"/>
      <point x="261" y="237"/>
      <point x="341" y="152"/>
    </contour>
    <contour>
      <point x="457" y="32" type="curve" smooth="yes"/>
      <point x="284" y="32"/>
      <point x="152" y="150"/>
      <point x="152" y="335" type="curve" smooth="yes"/>
      <point x="152" y="498"/>
      <point x="282" y="652"/>
      <point x="454" y="652" type="curve" smooth="yes"/>
      <point x="626" y="652"/>
      <point x="758" y="521"/>
      <point x="758" y="349" type="curve" smooth="yes"/>
      <point x="758" y="167"/>
      <point x="627" y="32"/>
    </contour>
  </outline>
</glyph>
<glyph name="registered" format="2">
  <advance width="517"/>
  <unicode hex="00AE"/>
  <outline>
    <contour>
      <point x="356" y="231" type="curve" smooth="yes"/>
      <point x="498" y="231"/>
      <point x="583" y="344"/>
      <point x="583" y="463" type="curve" smooth="yes"/>
      <point x="583" y="581"/>
      <point x="495" y="680"/>
      <point x="356" y="680" type="curve" smooth="yes"/>
      <point x="216" y="680"/>
      <point x="129" y="567"/>
      <point x="129" y="449" type="curve" smooth="yes"/>
      <point x="129" y="331"/>
      <point x="211" y="231"/>
    </contour>
    <contour>
      <point x="358" y="257" type="curve" smooth="yes"/>
      <point x="230" y="257"/>
      <point x="164" y="356"/>
      <point x="164" y="456" type="curve" smooth="yes"/>
      <point x="164" y="556"/>
      <point x="230" y="655"/>
      <point x="356" y="655" type="curve" smooth="yes"/>
      <point x="466" y="655"/>
      <point x="551" y="571"/>
      <point x="551" y="461" type="curve" smooth="yes"/>
      <point x="551" y="343"/>
      <point x="467" y="257"/>
    </contour>
    <contour>
      <point x="473" y="350" type="curve" smooth="yes"/>
      <point x="480" y="350"/>
      <point x="493" y="350"/>
      <point x="498" y="353" type="curve"/>
      <point x="498" y="358" type="line"/>
      <point x="478" y="358"/>
      <point x="460" y="383"/>
      <point x="443" y="408" type="curve" smooth="yes"/>
      <point x="424" y="436"/>
      <point x="402" y="463"/>
      <point x="371" y="463" type="curve"/>
      <point x="371" y="464" type="line"/>
      <point x="411" y="468"/>
      <point x="440" y="489"/>
      <point x="440" y="521" type="curve" smooth="yes"/>
      <point x="440" y="560"/>
      <point x="405" y="585"/>
      <point x="337" y="585" type="curve" smooth="yes"/>
      <point x="241" y="585" type="line"/>
      <point x="241" y="574" type="line"/>
      <point x="256" y="570" type="line" smooth="yes"/>
      <point x="275" y="565"/>
      <point x="278" y="564"/>
      <point x="278" y="550" type="curve" smooth="yes"/>
      <point x="278" y="389" type="line" smooth="yes"/>
      <point x="278" y="375"/>
      <point x="275" y="374"/>
      <point x="256" y="369" type="curve" smooth="yes"/>
      <point x="241" y="365" type="line"/>
      <point x="241" y="354" type="line"/>
      <point x="358" y="354" type="line"/>
      <point x="358" y="365" type="line"/>
      <point x="343" y="369" type="line" smooth="yes"/>
      <point x="324" y="374"/>
      <point x="320" y="375"/>
      <point x="320" y="389" type="curve" smooth="yes"/>
      <point x="320" y="453" type="line"/>
      <point x="327" y="453" type="line" smooth="yes"/>
      <point x="366" y="453"/>
      <point x="381" y="429"/>
      <point x="402" y="402" type="curve" smooth="yes"/>
      <point x="422" y="376"/>
      <point x="442" y="350"/>
    </contour>
    <contour>
      <point x="320" y="470" type="line"/>
      <point x="320" y="572" type="line"/>
      <point x="333" y="572" type="line" smooth="yes"/>
      <point x="366" y="572"/>
      <point x="392" y="553"/>
      <point x="392" y="520" type="curve" smooth="yes"/>
      <point x="392" y="490"/>
      <point x="369" y="470"/>
      <point x="337" y="470" type="curve" smooth="yes"/>
    </contour>
  </outline>
</glyph>
<glyph name="degree" format="2">
  <advance width="366"/>
  <unicode hex="00B0"/>
  <outline>
    <contour>
      <point x="318" y="416" type="curve" smooth="yes"/>
      <point x="391" y="416"/>
      <point x="451" y="476"/>
      <point x="451" y="549" type="curve" smooth="yes"/>
      <point x="451" y="621"/>
      <point x="391" y="681"/>
      <point x="318" y="681" type="curve" smooth="yes"/>
      <point x="246" y="681"/>
      <point x="186" y="621"/>
      <point x="186" y="549" type="curve" smooth="yes"/>
      <point x="186" y="476"/>
      <point x="246" y="416"/>
    </contour>
    <contour>
      <point x="317" y="457" type="curve" smooth="yes"/>
      <point x="266" y="457"/>
      <point x="224" y="499"/>
      <point x="224" y="550" type="curve" smooth="yes"/>
      <point x="224" y="601"/>
      <point x="266" y="643"/>
      <point x="317" y="643" type="curve" smooth="yes"/>
      <point x="368" y="643"/>
      <point x="410" y="601"/>
      <point x="410" y="550" type="curve" smooth="yes"/>
      <point x="410" y="499"/>
      <point x="368" y="457"/>
    </contour>
  </outline>
</glyph>
<glyph name="plusminus" format="2">
  <advance width="530"/>
  <unicode hex="00B1"/>
  <guideline x="506" y="254" angle="90"/>
  <outline>
    <contour>
      <point x="268" y="365" type="line"/>
      <point x="268" y="227" type="line"/>
      <point x="306" y="227" type="line"/>
      <point x="306" y="365" type="line"/>
      <point x="479" y="365" type="line"/>
      <point x="479" y="403" type="line"/>
      <point x="306" y="403" type="line"/>
      <point x="306" y="540" type="line"/>
      <point x="268" y="540" type="line"/>
      <point x="268" y="403" type="line"/>
      <point x="95" y="403" type="line"/>
      <point x="95" y="365" type="line"/>
    </contour>
    <component base="minus" xOffset="-27" yOffset="-185"/>
  </outline>
</glyph>
<glyph name="micro" format="2">
  <advance width="540"/>
  <unicode hex="00B5"/>
  <outline>
    <contour>
      <point x="-70" y="-260" type="line"/>
      <point x="8" y="-242" type="line"/>
      <point x="89" y="-9" type="line"/>
      <point x="93" y="-10"/>
      <point x="96" y="-10"/>
      <point x="100" y="-10" type="curve" smooth="yes"/>
      <point x="200" y="-10"/>
      <point x="313" y="160"/>
      <point x="359" y="240" type="curve"/>
      <point x="365" y="240" type="line"/>
      <point x="342" y="181"/>
      <point x="315" y="118"/>
      <point x="291" y="59" type="curve" smooth="yes"/>
      <point x="276" y="23"/>
      <point x="292" y="-7"/>
      <point x="325" y="-7" type="curve" smooth="yes"/>
      <point x="365" y="-7"/>
      <point x="428" y="38"/>
      <point x="512" y="168" type="curve"/>
      <point x="496" y="178" type="line"/>
      <point x="440" y="92"/>
      <point x="387" y="43"/>
      <point x="364" y="43" type="curve" smooth="yes"/>
      <point x="354" y="43"/>
      <point x="346" y="56"/>
      <point x="358" y="85" type="curve" smooth="yes"/>
      <point x="497" y="433" type="line"/>
      <point x="434" y="424" type="line"/>
      <point x="354" y="212"/>
      <point x="202" y="42"/>
      <point x="144" y="42" type="curve" smooth="yes"/>
      <point x="113" y="42"/>
      <point x="118" y="69"/>
      <point x="127" y="92" type="curve" smooth="yes"/>
      <point x="233" y="351" type="line" smooth="yes"/>
      <point x="255" y="404"/>
      <point x="228" y="431"/>
      <point x="196" y="431" type="curve" smooth="yes"/>
      <point x="149" y="431"/>
      <point x="100" y="374"/>
      <point x="23" y="257" type="curve"/>
      <point x="39" y="248" type="line"/>
      <point x="83" y="311"/>
      <point x="142" y="381"/>
      <point x="166" y="381" type="curve" smooth="yes"/>
      <point x="176" y="381"/>
      <point x="184" y="369"/>
      <point x="171" y="336" type="curve" smooth="yes"/>
    </contour>
  </outline>
</glyph>
<glyph name="paragraph" format="2">
  <advance width="641"/>
  <unicode hex="00B6"/>
  <outline>
    <contour>
      <point x="86" y="-229" type="curve" smooth="yes"/>
      <point x="247" y="-229"/>
      <point x="340" y="-111"/>
      <point x="403" y="45" type="curve" smooth="yes"/>
      <point x="622" y="588" type="line" smooth="yes"/>
      <point x="639" y="630"/>
      <point x="651" y="637"/>
      <point x="710" y="647" type="curve" smooth="yes"/>
      <point x="776" y="658" type="line"/>
      <point x="782" y="673" type="line"/>
      <point x="526" y="673" type="line" smooth="yes"/>
      <point x="289" y="673"/>
      <point x="154" y="563"/>
      <point x="154" y="407" type="curve" smooth="yes"/>
      <point x="154" y="313"/>
      <point x="221" y="235"/>
      <point x="348" y="235" type="curve" smooth="yes"/>
      <point x="439" y="235" type="line"/>
      <point x="362" y="44" type="line" smooth="yes"/>
      <point x="306" y="-94"/>
      <point x="214" y="-196"/>
      <point x="96" y="-196" type="curve" smooth="yes"/>
      <point x="28" y="-196"/>
      <point x="-24" y="-167"/>
      <point x="-24" y="-100" type="curve" smooth="yes"/>
      <point x="-24" y="-32"/>
      <point x="32" y="68"/>
      <point x="84" y="68" type="curve" smooth="yes"/>
      <point x="91" y="68"/>
      <point x="93" y="65"/>
      <point x="93" y="61" type="curve" smooth="yes"/>
      <point x="93" y="56"/>
      <point x="91" y="49"/>
      <point x="91" y="42" type="curve" smooth="yes"/>
      <point x="91" y="23"/>
      <point x="99" y="3"/>
      <point x="141" y="3" type="curve" smooth="yes"/>
      <point x="172" y="3"/>
      <point x="198" y="29"/>
      <point x="198" y="66" type="curve" smooth="yes"/>
      <point x="198" y="96"/>
      <point x="179" y="121"/>
      <point x="135" y="121" type="curve" smooth="yes"/>
      <point x="25" y="121"/>
      <point x="-62" y="0"/>
      <point x="-62" y="-106" type="curve" smooth="yes"/>
      <point x="-62" y="-175"/>
      <point x="-10" y="-229"/>
    </contour>
  </outline>
</glyph>
<glyph name="ordmasculine" format="2">
  <advance width="369"/>
  <unicode hex="00BA"/>
  <guideline x="356" y="372" angle="0"/>
  <guideline x="498" y="713" angle="0"/>
  <outline>
    <contour>
      <point x="262" y="372" type="curve" smooth="yes"/>
      <point x="370" y="372"/>
      <point x="450" y="510"/>
      <point x="450" y="600" type="curve" smooth="yes"/>
      <point x="450" y="664"/>
      <point x="413" y="713"/>
      <point x="354" y="713" type="curve" smooth="yes"/>
      <point x="246" y="713"/>
      <point x="166" y="575"/>
      <point x="166" y="485" type="curve" smooth="yes"/>
      <point x="166" y="421"/>
      <point x="203" y="372"/>
    </contour>
    <contour>
      <point x="259" y="393" type="curve" smooth="yes"/>
      <point x="234" y="393"/>
      <point x="215" y="419"/>
      <point x="215" y="455" type="curve" smooth="yes"/>
      <point x="215" y="535"/>
      <point x="289" y="689"/>
      <point x="358" y="689" type="curve" smooth="yes"/>
      <point x="384" y="689"/>
      <point x="402" y="666"/>
      <point x="402" y="630" type="curve" smooth="yes"/>
      <point x="402" y="550"/>
      <point x="327" y="393"/>
    </contour>
  </outline>
</glyph>
<glyph name="threequarters" format="2">
  <advance width="645"/>
  <unicode hex="00BE"/>
  <outline>
    <contour>
      <point x="403" y="0" type="line"/>
      <point x="463" y="0" type="line"/>
      <point x="601" y="342" type="line"/>
      <point x="585" y="342" type="line"/>
      <point x="266" y="72" type="line"/>
      <point x="262" y="63" type="line"/>
      <point x="527" y="63" type="line"/>
      <point x="574" y="149" type="line"/>
      <point x="562" y="149" type="line"/>
      <point x="548" y="131" type="line" smooth="yes"/>
      <point x="538" y="119"/>
      <point x="535" y="116"/>
      <point x="521" y="116" type="curve" smooth="yes"/>
      <point x="337" y="116" type="line"/>
      <point x="345" y="109" type="line"/>
      <point x="541" y="277" type="line"/>
      <point x="506" y="256" type="line"/>
    </contour>
    <component base="fraction" xOffset="154"/>
    <component base="threesuperior"/>
  </outline>
</glyph>
<glyph name="AE" format="2">
  <advance width="1030"/>
  <unicode hex="00C6"/>
  <outline>
    <contour>
      <point x="-81" y="0" type="line"/>
      <point x="175" y="0" type="line"/>
      <point x="184" y="18" type="line"/>
      <point x="126" y="30" type="line" smooth="yes"/>
      <point x="88" y="37"/>
      <point x="92" y="55"/>
      <point x="123" y="82" type="curve" smooth="yes"/>
      <point x="675" y="564" type="line"/>
      <point x="666" y="595" type="line"/>
      <point x="89" y="84" type="line" smooth="yes"/>
      <point x="56" y="54"/>
      <point x="29" y="34"/>
      <point x="-20" y="26" type="curve" smooth="yes"/>
      <point x="-72" y="18" type="line"/>
    </contour>
    <contour>
      <point x="277" y="229" type="line"/>
      <point x="547" y="229" type="line"/>
      <point x="563" y="261" type="line"/>
      <point x="300" y="261" type="line"/>
    </contour>
    <component base="E" xOffset="345"/>
  </outline>
</glyph>
<glyph name="multiply" format="2">
  <advance width="530"/>
  <unicode hex="00D7"/>
  <outline>
    <contour>
      <point x="184" y="177" type="line"/>
      <point x="314" y="308" type="line"/>
      <point x="443" y="177" type="line"/>
      <point x="470" y="204" type="line"/>
      <point x="341" y="335" type="line"/>
      <point x="471" y="464" type="line"/>
      <point x="444" y="491" type="line"/>
      <point x="314" y="362" type="line"/>
      <point x="184" y="491" type="line"/>
      <point x="157" y="464" type="line"/>
      <point x="287" y="335" type="line"/>
      <point x="157" y="204" type="line"/>
    </contour>
  </outline>
</glyph>
<glyph name="eth" format="2">
  <advance width="494"/>
  <unicode hex="00F0"/>
  <outline>
    <contour>
      <point x="323" y="472" type="line"/>
      <point x="642" y="592" type="line"/>
      <point x="633" y="616" type="line"/>
      <point x="315" y="497" type="line"/>
    </contour>
    <component base="partialdiff" xOffset="-10"/>
  </outline>
</glyph>
<glyph name="divide" format="2">
  <advance width="530"/>
  <unicode hex="00F7"/>
  <outline>
    <contour>
      <point x="314" y="133" type="curve" smooth="yes"/>
      <point x="341" y="133"/>
      <point x="363" y="155"/>
      <point x="363" y="182" type="curve" smooth="yes"/>
      <point x="363" y="209"/>
      <point x="341" y="231"/>
      <point x="314" y="231" type="curve" smooth="yes"/>
      <point x="287" y="231"/>
      <point x="265" y="209"/>
      <point x="265" y="182" type="curve" smooth="yes"/>
      <point x="265" y="155"/>
      <point x="287" y="133"/>
    </contour>
    <contour>
      <point x="314" y="439" type="curve" smooth="yes"/>
      <point x="341" y="439"/>
      <point x="363" y="461"/>
      <point x="363" y="488" type="curve" smooth="yes"/>
      <point x="363" y="515"/>
      <point x="341" y="537"/>
      <point x="314" y="537" type="curve" smooth="yes"/>
      <point x="287" y="537"/>
      <point x="265" y="515"/>
      <point x="265" y="488" type="curve" smooth="yes"/>
      <point x="265" y="461"/>
      <point x="287" y="439"/>
    </contour>
    <component base="minus"/>
  </outline>
</glyph>
<glyph name="oslash" format="2">
  <advance width="436"/>
  <unicode hex="00F8"/>
  <guideline x="73" y="270" angle="68" identifier="fMmvjgPeNX"/>
  <guideline x="431" y="323" angle="68" identifier="JcXP7XakZ9"/>
  <outline>
    <contour>
      <point x="-13" y="-9" type="line"/>
      <point x="466" y="412" type="line"/>
      <point x="445" y="434" type="line"/>
      <point x="-31" y="13" type="line"/>
    </contour>
    <component base="o"/>
  </outline>
</glyph>
<glyph name="thorn" format="2">
  <advance width="460"/>
  <unicode hex="00FE"/>
  <outline>
    <contour>
      <point x="-162" y="-250" type="line"/>
      <point x="54" y="-250" type="line"/>
      <point x="60" y="-235" type="line"/>
      <point x="8" y="-224" type="line" smooth="yes"/>
      <point x="-10" y="-220"/>
      <point x="-13" y="-211"/>
      <point x="-5" y="-192" type="curve" smooth="yes"/>
      <point x="140" y="170" type="line" smooth="yes"/>
      <point x="178" y="265"/>
      <point x="276" y="382"/>
      <point x="338" y="382" type="curve" smooth="yes"/>
      <point x="371" y="382"/>
      <point x="387" y="366"/>
      <point x="387" y="329" type="curve" smooth="yes"/>
      <point x="387" y="218"/>
      <point x="281" y="36"/>
      <point x="179" y="36" type="curve" smooth="yes"/>
      <point x="161" y="36"/>
      <point x="156" y="45"/>
      <point x="156" y="62" type="curve" smooth="yes"/>
      <point x="156" y="104"/>
      <point x="139" y="117"/>
      <point x="116" y="117" type="curve" smooth="yes"/>
      <point x="96" y="117"/>
      <point x="78" y="106"/>
      <point x="78" y="79" type="curve" smooth="yes"/>
      <point x="78" y="29"/>
      <point x="122" y="12"/>
      <point x="177" y="12" type="curve" smooth="yes"/>
      <point x="302" y="12"/>
      <point x="456" y="235"/>
      <point x="456" y="357" type="curve" smooth="yes"/>
      <point x="456" y="416"/>
      <point x="426" y="434"/>
      <point x="392" y="434" type="curve" smooth="yes"/>
      <point x="331" y="434"/>
      <point x="243" y="375"/>
      <point x="190" y="304" type="curve"/>
      <point x="185" y="304" type="line"/>
      <point x="260" y="465" type="line"/>
      <point x="325" y="625" type="line" smooth="yes"/>
      <point x="335" y="651"/>
      <point x="348" y="681"/>
      <point x="363" y="706" type="curve"/>
      <point x="351" y="712" type="line"/>
      <point x="305" y="693"/>
      <point x="250" y="681"/>
      <point x="196" y="673" type="curve"/>
      <point x="192" y="662" type="line"/>
      <point x="232" y="658" type="line" smooth="yes"/>
      <point x="261" y="655"/>
      <point x="269" y="649"/>
      <point x="262" y="631" type="curve" smooth="yes"/>
      <point x="-71" y="-192" type="line" smooth="yes"/>
      <point x="-79" y="-211"/>
      <point x="-88" y="-219"/>
      <point x="-110" y="-224" type="curve" smooth="yes"/>
      <point x="-156" y="-235" type="line"/>
    </contour>
  </outline>
</glyph>
<glyph name="dcroat" format="2">
  <advance width="489"/>
  <unicode hex="0111"/>
  <outline>
    <contour>
      <point x="64" y="-8" type="curve" smooth="yes"/>
      <point x="136" y="-8"/>
      <point x="217" y="59"/>
      <point x="265" y="123" type="curve"/>
      <point x="271" y="123" type="line"/>
      <point x="250" y="65" type="line" smooth="yes"/>
      <point x="233" y="15"/>
      <point x="254" y="-7"/>
      <point x="280" y="-7" type="curve" smooth="yes"/>
      <point x="319" y="-7"/>
      <point x="378" y="38"/>
      <point x="461" y="168" type="curve"/>
      <point x="445" y="178" type="line"/>
      <point x="389" y="92"/>
      <point x="336" y="43"/>
      <point x="313" y="43" type="curve" smooth="yes"/>
      <point x="303" y="43"/>
      <point x="295" y="56"/>
      <point x="307" y="85" type="curve" smooth="yes"/>
      <point x="523" y="625" type="line" smooth="yes"/>
      <point x="533" y="651"/>
      <point x="546" y="681"/>
      <point x="561" y="706" type="curve"/>
      <point x="549" y="712" type="line"/>
      <point x="503" y="693"/>
      <point x="453" y="681"/>
      <point x="399" y="673" type="curve"/>
      <point x="395" y="662" type="line"/>
      <point x="435" y="658" type="line" smooth="yes"/>
      <point x="464" y="655"/>
      <point x="472" y="649"/>
      <point x="465" y="631" type="curve" smooth="yes"/>
      <point x="376" y="409" type="line"/>
      <point x="365" y="418"/>
      <point x="351" y="424"/>
      <point x="330" y="424" type="curve" smooth="yes"/>
      <point x="275" y="424"/>
      <point x="198" y="380"/>
      <point x="136" y="315" type="curve" smooth="yes"/>
      <point x="63" y="237"/>
      <point x="0" y="143"/>
      <point x="0" y="70" type="curve" smooth="yes"/>
      <point x="0" y="10"/>
      <point x="30" y="-8"/>
    </contour>
    <contour>
      <point x="118" y="44" type="curve" smooth="yes"/>
      <point x="92" y="44"/>
      <point x="75" y="61"/>
      <point x="75" y="102" type="curve" smooth="yes"/>
      <point x="75" y="176"/>
      <point x="113" y="252"/>
      <point x="167" y="309" type="curve" smooth="yes"/>
      <point x="211" y="355"/>
      <point x="257" y="379"/>
      <point x="292" y="379" type="curve" smooth="yes"/>
      <point x="324" y="379"/>
      <point x="338" y="362"/>
      <point x="338" y="330" type="curve" smooth="yes"/>
      <point x="338" y="238"/>
      <point x="204" y="44"/>
    </contour>
    <contour>
      <point x="231" y="536" type="line"/>
      <point x="557" y="536" type="line"/>
      <point x="569" y="566" type="line"/>
      <point x="243" y="566" type="line"/>
    </contour>
  </outline>
</glyph>
<glyph name="Hbar" format="2">
  <advance width="836"/>
  <unicode hex="0126"/>
  <outline>
    <contour>
      <point x="187" y="490" type="line"/>
      <point x="872" y="490" type="line"/>
      <point x="887" y="528" type="line"/>
      <point x="202" y="528" type="line"/>
    </contour>
    <component base="H"/>
  </outline>
</glyph>
<glyph name="hbar" format="2">
  <advance width="528"/>
  <unicode hex="0127"/>
  <outline>
    <contour>
      <point x="13" y="-9" type="line"/>
      <point x="83" y="0" type="line"/>
      <point x="162" y="212"/>
      <point x="317" y="372"/>
      <point x="371" y="372" type="curve" smooth="yes"/>
      <point x="394" y="372"/>
      <point x="398" y="352"/>
      <point x="385" y="322" type="curve" smooth="yes"/>
      <point x="281" y="74" type="line" smooth="yes"/>
      <point x="259" y="22"/>
      <point x="279" y="-7"/>
      <point x="314" y="-7" type="curve" smooth="yes"/>
      <point x="355" y="-7"/>
      <point x="419" y="38"/>
      <point x="505" y="168" type="curve"/>
      <point x="489" y="178" type="line"/>
      <point x="433" y="92"/>
      <point x="381" y="43"/>
      <point x="358" y="43" type="curve" smooth="yes"/>
      <point x="345" y="43"/>
      <point x="340" y="57"/>
      <point x="350" y="82" type="curve" smooth="yes"/>
      <point x="458" y="342" type="line" smooth="yes"/>
      <point x="477" y="388"/>
      <point x="460" y="424"/>
      <point x="418" y="424" type="curve" smooth="yes"/>
      <point x="317" y="424"/>
      <point x="200" y="264"/>
      <point x="155" y="184" type="curve"/>
      <point x="151" y="184" type="line"/>
      <point x="320" y="625" type="line" smooth="yes"/>
      <point x="330" y="651"/>
      <point x="343" y="681"/>
      <point x="358" y="706" type="curve"/>
      <point x="346" y="712" type="line"/>
      <point x="300" y="693"/>
      <point x="250" y="681"/>
      <point x="196" y="673" type="curve"/>
      <point x="192" y="662" type="line"/>
      <point x="232" y="658" type="line" smooth="yes"/>
      <point x="261" y="655"/>
      <point x="269" y="649"/>
      <point x="262" y="631" type="curve" smooth="yes"/>
    </contour>
    <contour>
      <point x="157" y="536" type="line"/>
      <point x="483" y="536" type="line"/>
      <point x="495" y="566" type="line"/>
      <point x="169" y="566" type="line"/>
    </contour>
  </outline>
</glyph>
<glyph name="idotless" format="2">
  <advance width="319"/>
  <unicode hex="0131"/>
  <anchor x="235" y="470" name="top"/>
  <outline>
    <contour>
      <point x="105" y="-7" type="curve" smooth="yes"/>
      <point x="146" y="-7"/>
      <point x="210" y="38"/>
      <point x="296" y="168" type="curve"/>
      <point x="280" y="178" type="line"/>
      <point x="224" y="92"/>
      <point x="171" y="43"/>
      <point x="148" y="43" type="curve" smooth="yes"/>
      <point x="138" y="43"/>
      <point x="130" y="56"/>
      <point x="142" y="85" type="curve" smooth="yes"/>
      <point x="249" y="354" type="line" smooth="yes"/>
      <point x="270" y="407"/>
      <point x="242" y="434"/>
      <point x="210" y="434" type="curve" smooth="yes"/>
      <point x="161" y="434"/>
      <point x="110" y="377"/>
      <point x="29" y="260" type="curve"/>
      <point x="45" y="251" type="line"/>
      <point x="89" y="314"/>
      <point x="148" y="384"/>
      <point x="172" y="384" type="curve" smooth="yes"/>
      <point x="182" y="384"/>
      <point x="190" y="372"/>
      <point x="177" y="339" type="curve" smooth="yes"/>
      <point x="66" y="59" type="line" smooth="yes"/>
      <point x="52" y="23"/>
      <point x="71" y="-7"/>
    </contour>
  </outline>
</glyph>
<glyph name="Lslash" format="2">
  <advance width="704"/>
  <unicode hex="0141"/>
  <guideline x="105" y="372" angle="68"/>
  <outline>
    <contour>
      <point x="37" y="205" type="line"/>
      <point x="596" y="362" type="line"/>
      <point x="616" y="412" type="line"/>
      <point x="58" y="255" type="line"/>
    </contour>
    <component base="L"/>
  </outline>
</glyph>
<glyph name="lslash" format="2">
  <advance width="298"/>
  <unicode hex="0142"/>
  <guideline x="372" y="328" angle="68"/>
  <guideline x="98" y="338" angle="68"/>
  <outline>
    <contour>
      <point x="217" y="331" type="line"/>
      <point x="199" y="284" type="line"/>
      <point x="314" y="321" type="line"/>
      <point x="333" y="368" type="line"/>
    </contour>
    <contour>
      <point x="199" y="290" type="line"/>
      <point x="217" y="337" type="line"/>
      <point x="102" y="300" type="line"/>
      <point x="83" y="253" type="line"/>
    </contour>
    <component base="l" xOffset="37"/>
  </outline>
</glyph>
<glyph name="Eng" format="2">
  <advance width="856"/>
  <unicode hex="014A"/>
  <outline>
    <contour>
      <point x="412" y="-228" type="curve" smooth="yes"/>
      <point x="461" y="-228"/>
      <point x="502" y="-199"/>
      <point x="529" y="-173" type="curve" smooth="yes"/>
      <point x="549" y="-154"/>
      <point x="556" y="-143"/>
      <point x="569" y="-143" type="curve"/>
      <point x="855" y="581" type="line" smooth="yes"/>
      <point x="872" y="623"/>
      <point x="885" y="634"/>
      <point x="944" y="644" type="curve" smooth="yes"/>
      <point x="1010" y="655" type="line"/>
      <point x="1017" y="673" type="line"/>
      <point x="738" y="673" type="line"/>
      <point x="731" y="655" type="line"/>
      <point x="787" y="644" type="line" smooth="yes"/>
      <point x="838" y="634"/>
      <point x="842" y="620"/>
      <point x="825" y="578" type="curve" smooth="yes"/>
      <point x="642" y="122" type="line"/>
      <point x="390" y="673" type="line"/>
      <point x="226" y="673" type="line"/>
      <point x="219" y="656" type="line"/>
      <point x="263" y="647" type="line" smooth="yes"/>
      <point x="332" y="633"/>
      <point x="332" y="624"/>
      <point x="314" y="578" type="curve" smooth="yes"/>
      <point x="117" y="92" type="line" smooth="yes"/>
      <point x="100" y="50"/>
      <point x="87" y="39"/>
      <point x="28" y="29" type="curve" smooth="yes"/>
      <point x="-37" y="18" type="line"/>
      <point x="-45" y="0" type="line"/>
      <point x="234" y="0" type="line"/>
      <point x="242" y="18" type="line"/>
      <point x="185" y="29" type="line" smooth="yes"/>
      <point x="134" y="39"/>
      <point x="131" y="53"/>
      <point x="148" y="95" type="curve" smooth="yes"/>
      <point x="340" y="567" type="line"/>
      <point x="597" y="3" type="line"/>
      <point x="569" y="-69" type="line" smooth="yes"/>
      <point x="537" y="-152"/>
      <point x="488" y="-204"/>
      <point x="423" y="-204" type="curve" smooth="yes"/>
      <point x="405" y="-204"/>
      <point x="395" y="-197"/>
      <point x="395" y="-186" type="curve" smooth="yes"/>
      <point x="395" y="-174"/>
      <point x="403" y="-166"/>
      <point x="412" y="-158" type="curve" smooth="yes"/>
      <point x="422" y="-149"/>
      <point x="432" y="-135"/>
      <point x="432" y="-116" type="curve" smooth="yes"/>
      <point x="432" y="-82"/>
      <point x="412" y="-69"/>
      <point x="385" y="-69" type="curve" smooth="yes"/>
      <point x="358" y="-69"/>
      <point x="325" y="-87"/>
      <point x="325" y="-127" type="curve" smooth="yes"/>
      <point x="325" y="-181"/>
      <point x="361" y="-228"/>
    </contour>
  </outline>
</glyph>
<glyph name="OE" format="2">
  <advance width="1050"/>
  <unicode hex="0152"/>
  <outline>
    <contour>
      <point x="395" y="0" type="line"/>
      <point x="898" y="0" type="line"/>
      <point x="920" y="52"/>
      <point x="955" y="118"/>
      <point x="997" y="180" type="curve"/>
      <point x="978" y="180" type="line"/>
      <point x="931" y="129" type="line" smooth="yes"/>
      <point x="888" y="82"/>
      <point x="797" y="25"/>
      <point x="715" y="25" type="curve" smooth="yes"/>
      <point x="623" y="25" type="line" smooth="yes"/>
      <point x="559" y="25"/>
      <point x="552" y="41"/>
      <point x="571" y="90" type="curve" smooth="yes"/>
      <point x="673" y="341" type="line"/>
      <point x="832" y="341" type="line" smooth="yes"/>
      <point x="901" y="341"/>
      <point x="907" y="319"/>
      <point x="895" y="263" type="curve" smooth="yes"/>
      <point x="885" y="216" type="line"/>
      <point x="903" y="216" type="line"/>
      <point x="1016" y="494" type="line"/>
      <point x="998" y="494" type="line"/>
      <point x="970" y="447" type="line" smooth="yes"/>
      <point x="936" y="391"/>
      <point x="912" y="369"/>
      <point x="843" y="369" type="curve" smooth="yes"/>
      <point x="684" y="369" type="line"/>
      <point x="797" y="649" type="line"/>
      <point x="971" y="649" type="line" smooth="yes"/>
      <point x="1073" y="649"/>
      <point x="1084" y="583"/>
      <point x="1078" y="496" type="curve"/>
      <point x="1098" y="496" type="line"/>
      <point x="1106" y="524"/>
      <point x="1112" y="568"/>
      <point x="1131" y="617" type="curve" smooth="yes"/>
      <point x="1139" y="635"/>
      <point x="1148" y="654"/>
      <point x="1160" y="673" type="curve"/>
      <point x="591" y="673" type="line"/>
      <point x="697" y="628" type="line"/>
      <point x="455" y="30" type="line"/>
    </contour>
    <contour>
      <point x="400" y="-8" type="curve" smooth="yes"/>
      <point x="449" y="-8"/>
      <point x="498" y="2"/>
      <point x="545" y="21" type="curve"/>
      <point x="516" y="46" type="line"/>
      <point x="476" y="27"/>
      <point x="435" y="17"/>
      <point x="394" y="17" type="curve" smooth="yes"/>
      <point x="286" y="17"/>
      <point x="198" y="95"/>
      <point x="198" y="226" type="curve" smooth="yes"/>
      <point x="198" y="496"/>
      <point x="377" y="658"/>
      <point x="540" y="658" type="curve" smooth="yes"/>
      <point x="613" y="658"/>
      <point x="676" y="621"/>
      <point x="709" y="556" type="curve"/>
      <point x="737" y="612" type="line"/>
      <point x="684" y="657"/>
      <point x="612" y="682"/>
      <point x="532" y="682" type="curve" smooth="yes"/>
      <point x="325" y="682"/>
      <point x="105" y="497"/>
      <point x="105" y="266" type="curve" smooth="yes"/>
      <point x="105" y="95"/>
      <point x="237" y="-8"/>
    </contour>
  </outline>
</glyph>
<glyph name="oe" format="2">
  <advance width="645"/>
  <unicode hex="0153"/>
  <outline>
    <contour>
      <point x="159" y="-7" type="curve" smooth="yes"/>
      <point x="299" y="-7"/>
      <point x="384" y="175"/>
      <point x="384" y="292" type="curve" smooth="yes"/>
      <point x="384" y="375"/>
      <point x="354" y="434"/>
      <point x="278" y="434" type="curve" smooth="yes"/>
      <point x="138" y="434"/>
      <point x="41" y="252"/>
      <point x="41" y="135" type="curve" smooth="yes"/>
      <point x="41" y="52"/>
      <point x="83" y="-7"/>
    </contour>
    <contour>
      <point x="152" y="13" type="curve" smooth="yes"/>
      <point x="119" y="13"/>
      <point x="99" y="43"/>
      <point x="99" y="91" type="curve" smooth="yes"/>
      <point x="99" y="200"/>
      <point x="193" y="411"/>
      <point x="285" y="411" type="curve" smooth="yes"/>
      <point x="320" y="411"/>
      <point x="338" y="384"/>
      <point x="338" y="336" type="curve" smooth="yes"/>
      <point x="338" y="227"/>
      <point x="244" y="13"/>
    </contour>
    <contour>
      <point x="379" y="-8" type="curve" smooth="yes"/>
      <point x="447" y="-8"/>
      <point x="542" y="72"/>
      <point x="594" y="166" type="curve"/>
      <point x="575" y="177" type="line"/>
      <point x="532" y="98"/>
      <point x="464" y="46"/>
      <point x="422" y="46" type="curve" smooth="yes"/>
      <point x="374" y="46"/>
      <point x="366" y="84"/>
      <point x="366" y="137" type="curve" smooth="yes"/>
      <point x="366" y="312"/>
      <point x="488" y="392"/>
      <point x="546" y="392" type="curve" smooth="yes"/>
      <point x="569" y="392"/>
      <point x="581" y="380"/>
      <point x="581" y="359" type="curve" smooth="yes"/>
      <point x="581" y="315"/>
      <point x="514" y="239"/>
      <point x="366" y="227" type="curve"/>
      <point x="362" y="204" type="line"/>
      <point x="562" y="226"/>
      <point x="647" y="312"/>
      <point x="647" y="377" type="curve" smooth="yes"/>
      <point x="647" y="409"/>
      <point x="626" y="434"/>
      <point x="583" y="434" type="curve" smooth="yes"/>
      <point x="532" y="434"/>
      <point x="483" y="411"/>
      <point x="440" y="376" type="curve" smooth="yes"/>
      <point x="356" y="307"/>
      <point x="309" y="190"/>
      <point x="309" y="93" type="curve" smooth="yes"/>
      <point x="309" y="35"/>
      <point x="322" y="-8"/>
    </contour>
  </outline>
</glyph>
<glyph name="Tbar" format="2">
  <advance width="694"/>
  <unicode hex="0166"/>
  <outline>
    <contour>
      <point x="182" y="322" type="line"/>
      <point x="602" y="322" type="line"/>
      <point x="617" y="360" type="line"/>
      <point x="197" y="360" type="line"/>
    </contour>
    <component base="T"/>
  </outline>
</glyph>
<glyph name="tbar" format="2">
  <advance width="324"/>
  <unicode hex="0167"/>
  <guideline x="306" y="330" angle="68"/>
  <guideline x="83" y="330" angle="68"/>
  <outline>
    <contour>
      <point x="46" y="238" type="line"/>
      <point x="269" y="238" type="line"/>
      <point x="285" y="276" type="line"/>
      <point x="62" y="276" type="line"/>
    </contour>
    <component base="t" xOffset="10"/>
  </outline>
</glyph>
<glyph name="florin" format="2">
  <advance width="322"/>
  <unicode hex="0192"/>
  <outline>
    <contour>
      <point x="-82" y="-247" type="curve" smooth="yes"/>
      <point x="-23" y="-247"/>
      <point x="14" y="-212"/>
      <point x="41" y="-182" type="curve" smooth="yes"/>
      <point x="63" y="-159"/>
      <point x="78" y="-138"/>
      <point x="93" y="-138" type="curve"/>
      <point x="300" y="580" type="line" smooth="yes"/>
      <point x="318" y="643"/>
      <point x="337" y="685"/>
      <point x="374" y="685" type="curve" smooth="yes"/>
      <point x="392" y="685"/>
      <point x="402" y="667"/>
      <point x="410" y="647" type="curve" smooth="yes"/>
      <point x="417" y="629"/>
      <point x="428" y="610"/>
      <point x="447" y="610" type="curve" smooth="yes"/>
      <point x="468" y="610"/>
      <point x="483" y="621"/>
      <point x="483" y="643" type="curve" smooth="yes"/>
      <point x="483" y="680"/>
      <point x="443" y="711"/>
      <point x="382" y="711" type="curve" smooth="yes"/>
      <point x="276" y="711"/>
      <point x="233" y="621"/>
      <point x="213" y="552" type="curve" smooth="yes"/>
      <point x="27" y="-100" type="line" smooth="yes"/>
      <point x="1" y="-190"/>
      <point x="-40" y="-224"/>
      <point x="-73" y="-224" type="curve" smooth="yes"/>
      <point x="-89" y="-224"/>
      <point x="-102" y="-217"/>
      <point x="-102" y="-195" type="curve" smooth="yes"/>
      <point x="-102" y="-153"/>
      <point x="-121" y="-143"/>
      <point x="-144" y="-143" type="curve" smooth="yes"/>
      <point x="-166" y="-143"/>
      <point x="-186" y="-156"/>
      <point x="-186" y="-183" type="curve" smooth="yes"/>
      <point x="-186" y="-218"/>
      <point x="-133" y="-247"/>
    </contour>
    <contour>
      <point x="85" y="396" type="line"/>
      <point x="319" y="396" type="line"/>
      <point x="328" y="426" type="line"/>
      <point x="328" y="426"/>
      <point x="217" y="426"/>
      <point x="217" y="426" type="curve" smooth="yes"/>
      <point x="217" y="426"/>
      <point x="208" y="534"/>
      <point x="208" y="534" type="curve"/>
      <point x="186" y="457"/>
      <point x="163" y="426"/>
      <point x="119" y="426" type="curve" smooth="yes"/>
      <point x="96" y="426" type="line"/>
    </contour>
  </outline>
</glyph>
<glyph name="jdotless" format="2">
  <advance width="261"/>
  <unicode hex="0237"/>
  <anchor x="202" y="470" name="top"/>
  <outline>
    <contour>
      <point x="-103" y="-258" type="curve" smooth="yes"/>
      <point x="-45" y="-258"/>
      <point x="-11" y="-210"/>
      <point x="15" y="-173" type="curve" smooth="yes"/>
      <point x="32" y="-149"/>
      <point x="46" y="-129"/>
      <point x="62" y="-129" type="curve"/>
      <point x="240" y="354" type="line"/>
      <point x="261" y="407"/>
      <point x="233" y="434"/>
      <point x="201" y="434" type="curve" smooth="yes"/>
      <point x="152" y="434"/>
      <point x="101" y="377"/>
      <point x="20" y="260" type="curve"/>
      <point x="36" y="251" type="line"/>
      <point x="80" y="314"/>
      <point x="139" y="384"/>
      <point x="163" y="384" type="curve" smooth="yes"/>
      <point x="173" y="384"/>
      <point x="181" y="372"/>
      <point x="168" y="339" type="curve"/>
      <point x="7" y="-111" type="line" smooth="yes"/>
      <point x="-24" y="-199"/>
      <point x="-58" y="-235"/>
      <point x="-90" y="-235" type="curve" smooth="yes"/>
      <point x="-106" y="-235"/>
      <point x="-118" y="-228"/>
      <point x="-118" y="-206" type="curve" smooth="yes"/>
      <point x="-118" y="-164"/>
      <point x="-137" y="-154"/>
      <point x="-162" y="-154" type="curve" smooth="yes"/>
      <point x="-186" y="-154"/>
      <point x="-207" y="-167"/>
      <point x="-207" y="-194" type="curve" smooth="yes"/>
      <point x="-207" y="-230"/>
      <point x="-163" y="-258"/>
    </contour>
  </outline>
</glyph>
<glyph name="uni02C9" format="2">
  <advance width="530"/>
  <unicode hex="02C9"/>
  <outline>
    <contour>
      <point x="270" y="599" type="line"/>
      <point x="570" y="599" type="line"/>
      <point x="586" y="637" type="line"/>
      <point x="286" y="637" type="line"/>
    </contour>
  </outline>
</glyph>
<glyph name="gravecomb" format="2">
  <unicode hex="0300"/>
  <anchor x="445" y="470" name="_top"/>
  <outline>
    <contour>
      <point x="477" y="548" type="line"/>
      <point x="498" y="559" type="line"/>
      <point x="434" y="707" type="line" smooth="yes"/>
      <point x="428" y="721"/>
      <point x="416" y="727"/>
      <point x="404" y="727" type="curve" smooth="yes"/>
      <point x="387" y="727"/>
      <point x="369" y="714"/>
      <point x="369" y="695" type="curve" smooth="yes"/>
      <point x="369" y="687"/>
      <point x="373" y="677"/>
      <point x="381" y="667" type="curve" smooth="yes"/>
    </contour>
  </outline>
</glyph>
<glyph name="acutecomb" format="2">
  <unicode hex="0301"/>
  <anchor x="347" y="470" name="_top"/>
  <outline>
    <contour>
      <point x="349" y="543" type="line"/>
      <point x="532" y="646" type="line" smooth="yes"/>
      <point x="553" y="658"/>
      <point x="561" y="671"/>
      <point x="561" y="683" type="curve" smooth="yes"/>
      <point x="561" y="698"/>
      <point x="548" y="711"/>
      <point x="531" y="711" type="curve" smooth="yes"/>
      <point x="521" y="711"/>
      <point x="512" y="709"/>
      <point x="499" y="698" type="curve" smooth="yes"/>
      <point x="337" y="559" type="line"/>
    </contour>
  </outline>
</glyph>
<glyph name="circumflexcomb" format="2">
  <unicode hex="0302"/>
  <anchor x="368" y="470" name="_top"/>
  <outline>
    <contour>
      <point x="464" y="692" type="line"/>
      <point x="448" y="692" type="line"/>
      <point x="266" y="553" type="line"/>
      <point x="278" y="540" type="line"/>
      <point x="433" y="616" type="line"/>
      <point x="521" y="539" type="line"/>
      <point x="537" y="550" type="line"/>
    </contour>
  </outline>
</glyph>
<glyph name="brevecomb" format="2">
  <unicode hex="0306"/>
  <guideline x="297" y="296" angle="68"/>
  <anchor x="368" y="470" name="_top"/>
  <outline>
    <contour>
      <point x="406" y="542" type="curve" smooth="yes"/>
      <point x="497" y="542"/>
      <point x="570" y="604"/>
      <point x="597" y="692" type="curve"/>
      <point x="573" y="692" type="line"/>
      <point x="553" y="642"/>
      <point x="480" y="603"/>
      <point x="422" y="603" type="curve" smooth="yes"/>
      <point x="367" y="603"/>
      <point x="323" y="642"/>
      <point x="343" y="692" type="curve"/>
      <point x="321" y="692" type="line"/>
      <point x="287" y="616"/>
      <point x="326" y="542"/>
    </contour>
  </outline>
</glyph>
<glyph name="dieresiscomb" format="2">
  <unicode hex="0308"/>
  <anchor x="367" y="470" name="_top"/>
  <outline>
    <contour>
      <point x="529" y="571" type="curve" smooth="yes"/>
      <point x="558" y="571"/>
      <point x="582" y="595"/>
      <point x="582" y="622" type="curve" smooth="yes"/>
      <point x="582" y="651"/>
      <point x="558" y="675"/>
      <point x="529" y="675" type="curve" smooth="yes"/>
      <point x="502" y="675"/>
      <point x="478" y="651"/>
      <point x="478" y="622" type="curve" smooth="yes"/>
      <point x="478" y="595"/>
      <point x="502" y="571"/>
    </contour>
    <contour>
      <point x="330" y="571" type="curve" smooth="yes"/>
      <point x="359" y="571"/>
      <point x="383" y="595"/>
      <point x="383" y="622" type="curve" smooth="yes"/>
      <point x="383" y="651"/>
      <point x="359" y="675"/>
      <point x="330" y="675" type="curve" smooth="yes"/>
      <point x="303" y="675"/>
      <point x="279" y="651"/>
      <point x="279" y="622" type="curve" smooth="yes"/>
      <point x="279" y="595"/>
      <point x="303" y="571"/>
    </contour>
  </outline>
</glyph>
<glyph name="ringcomb" format="2">
  <unicode hex="030A"/>
  <guideline x="295" y="296" angle="68" identifier="ZASs37jbCq"/>
  <anchor x="415" y="470" name="_top"/>
  <outline>
    <contour>
      <point x="538" y="616" type="curve" smooth="yes"/>
      <point x="538" y="677"/>
      <point x="488" y="727"/>
      <point x="427" y="727" type="curve" smooth="yes"/>
      <point x="366" y="727"/>
      <point x="316" y="677"/>
      <point x="316" y="616" type="curve" smooth="yes"/>
      <point x="316" y="555"/>
      <point x="366" y="505"/>
      <point x="427" y="505" type="curve" smooth="yes"/>
      <point x="488" y="505"/>
      <point x="538" y="555"/>
    </contour>
    <contour>
      <point x="498" y="616" type="curve" smooth="yes"/>
      <point x="498" y="577"/>
      <point x="467" y="545"/>
      <point x="428" y="545" type="curve" smooth="yes"/>
      <point x="389" y="545"/>
      <point x="356" y="577"/>
      <point x="356" y="616" type="curve" smooth="yes"/>
      <point x="356" y="655"/>
      <point x="389" y="687"/>
      <point x="428" y="687" type="curve" smooth="yes"/>
      <point x="467" y="687"/>
      <point x="498" y="655"/>
    </contour>
  </outline>
</glyph>
<glyph name="caroncomb" format="2">
  <unicode hex="030C"/>
  <guideline x="295" y="296" angle="68"/>
  <anchor x="368" y="470" name="_top"/>
  <outline>
    <contour>
      <point x="391" y="539" type="line"/>
      <point x="407" y="539" type="line"/>
      <point x="589" y="678" type="line"/>
      <point x="577" y="691" type="line"/>
      <point x="422" y="615" type="line"/>
      <point x="334" y="692" type="line"/>
      <point x="318" y="681" type="line"/>
    </contour>
  </outline>
</glyph>
<glyph name="commaturnedabovecomb" format="2">
  <unicode hex="0312"/>
  <anchor x="368" y="470" name="_top"/>
  <outline>
    <contour>
      <point x="549" y="726" type="line"/>
      <point x="454" y="724"/>
      <point x="335" y="668"/>
      <point x="335" y="576" type="curve" smooth="yes"/>
      <point x="335" y="541"/>
      <point x="364" y="512"/>
      <point x="415" y="512" type="curve"/>
      <point x="443" y="541"/>
      <point x="464" y="551"/>
      <point x="491" y="562" type="curve"/>
      <point x="501" y="588" type="line"/>
      <point x="494" y="587"/>
      <point x="488" y="587"/>
      <point x="482" y="587" type="curve" smooth="yes"/>
      <point x="437" y="587"/>
      <point x="418" y="603"/>
      <point x="418" y="625" type="curve" smooth="yes"/>
      <point x="418" y="683"/>
      <point x="498" y="699"/>
      <point x="540" y="701" type="curve"/>
    </contour>
  </outline>
</glyph>
<glyph name="commaaccentcomb" format="2">
  <unicode hex="0326"/>
  <outline>
    <contour>
      <point x="2" y="-249" type="line"/>
      <point x="97" y="-247"/>
      <point x="216" y="-191"/>
      <point x="216" y="-99" type="curve" smooth="yes"/>
      <point x="216" y="-64"/>
      <point x="187" y="-35"/>
      <point x="136" y="-35" type="curve"/>
      <point x="108" y="-64"/>
      <point x="87" y="-74"/>
      <point x="60" y="-85" type="curve"/>
      <point x="50" y="-111" type="line"/>
      <point x="57" y="-110"/>
      <point x="63" y="-110"/>
      <point x="69" y="-110" type="curve" smooth="yes"/>
      <point x="114" y="-110"/>
      <point x="133" y="-126"/>
      <point x="133" y="-148" type="curve" smooth="yes"/>
      <point x="133" y="-206"/>
      <point x="53" y="-222"/>
      <point x="11" y="-224" type="curve"/>
    </contour>
  </outline>
</glyph>
<glyph name="cedillacomb" format="2">
  <unicode hex="0327"/>
  <anchor x="144" y="-53" name="_bottom"/>
  <outline>
    <contour>
      <point x="-23" y="-247" type="line"/>
      <point x="76" y="-241"/>
      <point x="230" y="-202"/>
      <point x="230" y="-110" type="curve" smooth="yes"/>
      <point x="230" y="-63"/>
      <point x="191" y="-49"/>
      <point x="137" y="-42" type="curve"/>
      <point x="165" y="0" type="line"/>
      <point x="133" y="0" type="line"/>
      <point x="68" y="-94" type="line"/>
      <point x="124" y="-96"/>
      <point x="149" y="-110"/>
      <point x="149" y="-135" type="curve" smooth="yes"/>
      <point x="149" y="-198"/>
      <point x="51" y="-213"/>
      <point x="-12" y="-221" type="curve"/>
    </contour>
  </outline>
</glyph>
<glyph name="Delta" format="2">
  <advance width="631"/>
  <unicode hex="0394"/>
  <outline>
    <contour>
      <point x="-16" y="0" type="line"/>
      <point x="585" y="0" type="line"/>
      <point x="328" y="673" type="line"/>
      <point x="279" y="673" type="line"/>
      <point x="254" y="631" type="line"/>
      <point x="457" y="85" type="line"/>
      <point x="65" y="85" type="line"/>
      <point x="306" y="673" type="line"/>
      <point x="261" y="673" type="line"/>
    </contour>
  </outline>
</glyph>
<glyph name="Omega" format="2">
  <advance width="843"/>
  <unicode hex="03A9"/>
  <outline>
    <contour>
      <point x="67" y="0" type="line"/>
      <point x="319" y="0" type="line"/>
      <point x="331" y="11" type="line"/>
      <point x="263" y="81"/>
      <point x="202" y="208"/>
      <point x="202" y="372" type="curve" smooth="yes"/>
      <point x="202" y="533"/>
      <point x="271" y="654"/>
      <point x="407" y="654" type="curve" smooth="yes"/>
      <point x="543" y="654"/>
      <point x="612" y="533"/>
      <point x="612" y="372" type="curve" smooth="yes"/>
      <point x="612" y="208"/>
      <point x="551" y="81"/>
      <point x="483" y="11" type="curve"/>
      <point x="495" y="0" type="line"/>
      <point x="747" y="0" type="line"/>
      <point x="775" y="175" type="line"/>
      <point x="757" y="175" type="line"/>
      <point x="746" y="141" type="line" smooth="yes"/>
      <point x="730" y="93"/>
      <point x="723" y="85"/>
      <point x="686" y="85" type="curve" smooth="yes"/>
      <point x="558" y="85" type="line"/>
      <point x="631" y="138"/>
      <point x="714" y="243"/>
      <point x="714" y="373" type="curve" smooth="yes"/>
      <point x="714" y="543"/>
      <point x="585" y="681"/>
      <point x="407" y="681" type="curve" smooth="yes"/>
      <point x="229" y="681"/>
      <point x="100" y="543"/>
      <point x="100" y="373" type="curve" smooth="yes"/>
      <point x="100" y="243"/>
      <point x="183" y="138"/>
      <point x="256" y="85" type="curve"/>
      <point x="128" y="85" type="line" smooth="yes"/>
      <point x="91" y="85"/>
      <point x="84" y="93"/>
      <point x="68" y="141" type="curve" smooth="yes"/>
      <point x="57" y="175" type="line"/>
      <point x="39" y="175" type="line"/>
    </contour>
  </outline>
</glyph>
<glyph name="pi" format="2">
  <advance width="560"/>
  <unicode hex="03C0"/>
  <outline>
    <contour>
      <point x="36" y="325" type="line"/>
      <point x="78" y="360"/>
      <point x="120" y="369"/>
      <point x="163" y="369" type="curve" smooth="yes"/>
      <point x="485" y="369" type="line"/>
      <point x="503" y="479" type="line"/>
      <point x="479" y="479" type="line"/>
      <point x="473" y="456" type="line" smooth="yes"/>
      <point x="468" y="436"/>
      <point x="460" y="430"/>
      <point x="441" y="430" type="curve" smooth="yes"/>
      <point x="189" y="430" type="line" smooth="yes"/>
      <point x="137" y="430"/>
      <point x="73" y="406"/>
      <point x="24" y="335" type="curve"/>
    </contour>
    <contour>
      <point x="71" y="0" type="line"/>
      <point x="149" y="0" type="line"/>
      <point x="198" y="52"/>
      <point x="203" y="252"/>
      <point x="207" y="372" type="curve"/>
      <point x="177" y="377" type="line"/>
      <point x="167" y="248"/>
      <point x="153" y="72"/>
      <point x="65" y="19" type="curve"/>
    </contour>
    <contour>
      <point x="401" y="-7" type="curve" smooth="yes"/>
      <point x="425" y="-7"/>
      <point x="470" y="12"/>
      <point x="495" y="28" type="curve"/>
      <point x="495" y="47" type="line"/>
      <point x="486" y="44"/>
      <point x="477" y="43"/>
      <point x="470" y="43" type="curve" smooth="yes"/>
      <point x="434" y="43"/>
      <point x="408" y="80"/>
      <point x="408" y="219" type="curve" smooth="yes"/>
      <point x="408" y="261"/>
      <point x="411" y="312"/>
      <point x="418" y="374" type="curve"/>
      <point x="374" y="374" type="line"/>
      <point x="362" y="271"/>
      <point x="354" y="195"/>
      <point x="354" y="139" type="curve" smooth="yes"/>
      <point x="354" y="16"/>
      <point x="370" y="-7"/>
    </contour>
  </outline>
</glyph>
<glyph name="emdash" format="2">
  <advance width="1060"/>
  <unicode hex="2014"/>
  <outline>
    <contour>
      <point x="1074" y="230" type="line"/>
      <point x="1074" y="265" type="line"/>
      <point x="14" y="265" type="line"/>
      <point x="14" y="230" type="line"/>
    </contour>
  </outline>
</glyph>
